<svg width="420" height="420" viewBox="0 0 420 420" fill="none" xmlns="http://www.w3.org/2000/svg">
<rect width="420" height="420" rx="80" fill="url(#paint0_linear_4_92)"/>
<g filter="url(#filter0_d_4_92)">
<path fill-rule="evenodd" clip-rule="evenodd" d="M210 107C153.115 107 107 153.115 107 210C107 266.885 153.115 313 210 313H250.499C250.499 313 250.5 313 250.5 333C250.5 353 250.5 353 250.5 353H210C131.023 353 67 288.977 67 210C67 131.023 131.023 67 210 67C288.977 67 353 131.023 353 210C353 242.621 343.058 268.732 324.925 292.599C315.295 305.275 305.912 312.615 301.679 315.926C300.826 316.594 300.182 317.097 299.787 317.448L273.213 287.552C275.032 285.934 276.713 284.599 278.366 283.284C282.753 279.797 286.954 276.458 293.075 268.401C306.319 250.969 313 233.246 313 210C313 153.115 266.885 107 210 107Z" fill="white"/>
<path d="M198 215H252L325.987 289.5L299 316.513L198 215Z" fill="white"/>
<path d="M163 279H217.005L291 353H236.995L163 279Z" fill="white"/>
</g>
<defs>
<filter id="filter0_d_4_92" x="38" y="56" width="344" height="344" filterUnits="userSpaceOnUse" color-interpolation-filters="sRGB">
<feFlood flood-opacity="0" result="BackgroundImageFix"/>
<feColorMatrix in="SourceAlpha" type="matrix" values="0 0 0 0 0 0 0 0 0 0 0 0 0 0 0 0 0 0 127 0" result="hardAlpha"/>
<feOffset dy="18"/>
<feGaussianBlur stdDeviation="14.5"/>
<feComposite in2="hardAlpha" operator="out"/>
<feColorMatrix type="matrix" values="0 0 0 0 0.350625 0 0 0 0 0.1725 0 0 0 0 0.6 0 0 0 0.3 0"/>
<feBlend mode="normal" in2="BackgroundImageFix" result="effect1_dropShadow_4_92"/>
<feBlend mode="normal" in="SourceGraphic" in2="effect1_dropShadow_4_92" result="shape"/>
</filter>
<linearGradient id="paint0_linear_4_92" x1="420" y1="403.5" x2="-17" y2="2.907e-06" gradientUnits="userSpaceOnUse">
<stop stop-color="#5018CA"/>
<stop offset="1" stop-color="#7E43FF"/>
</linearGradient>
</defs>
</svg>
