<svg width="24" height="24" viewBox="0 0 24 24" fill="none" xmlns="http://www.w3.org/2000/svg">
<path d="M2.25 20.25H15.75" stroke="black" stroke-width="1.5" stroke-linecap="round" stroke-linejoin="round"/>
<path d="M1.58665 13.1596L5.12059 16.4726C5.59144 16.9141 6.19209 17.1919 6.83336 17.2648C7.47463 17.3378 8.12232 17.2019 8.68028 16.8775L22.8747 8.62496L21.1273 6.48921C20.674 5.93514 20.0374 5.56144 19.3327 5.43562C18.6279 5.3098 17.9014 5.44015 17.2844 5.80312L13.1247 8.24996L7.49973 6.37496L5.95295 7.03787C5.83723 7.08746 5.73586 7.16539 5.65817 7.26447C5.58049 7.36355 5.529 7.48059 5.50845 7.60481C5.4879 7.72902 5.49895 7.85641 5.54058 7.97523C5.58221 8.09405 5.65309 8.20047 5.74667 8.2847L8.62473 10.875L5.99973 12.375L3.37473 11.25L1.80417 11.9231C1.68963 11.9721 1.58913 12.049 1.51175 12.1467C1.43437 12.2443 1.38254 12.3598 1.36095 12.4825C1.33936 12.6052 1.34869 12.7314 1.3881 12.8496C1.4275 12.9678 1.49575 13.0743 1.58665 13.1596V13.1596Z" stroke="black" stroke-width="1.5" stroke-linecap="round" stroke-linejoin="round"/>
</svg>
