<svg width="24" height="24" viewBox="0 0 24 24" fill="none" xmlns="http://www.w3.org/2000/svg">
<path d="M15.375 15.5625C15.8928 15.5625 16.3125 15.1428 16.3125 14.625C16.3125 14.1072 15.8928 13.6875 15.375 13.6875C14.8572 13.6875 14.4375 14.1072 14.4375 14.625C14.4375 15.1428 14.8572 15.5625 15.375 15.5625Z" fill="black"/>
<path d="M8.625 15.5625C9.14277 15.5625 9.5625 15.1428 9.5625 14.625C9.5625 14.1072 9.14277 13.6875 8.625 13.6875C8.10723 13.6875 7.6875 14.1072 7.6875 14.625C7.6875 15.1428 8.10723 15.5625 8.625 15.5625Z" fill="black"/>
<path d="M2.25 18V15.8558C2.25 10.4672 6.5769 6.01871 11.9655 6.00006C13.2488 5.99552 14.5203 6.24436 15.7073 6.73231C16.8942 7.22025 17.9731 7.93771 18.8821 8.84353C19.7911 9.74934 20.5124 10.8257 21.0045 12.0109C21.4967 13.196 21.75 14.4667 21.75 15.75V18C21.75 18.1989 21.671 18.3897 21.5303 18.5303C21.3897 18.671 21.1989 18.75 21 18.75H3C2.80109 18.75 2.61032 18.671 2.46967 18.5303C2.32902 18.3897 2.25 18.1989 2.25 18Z" stroke="black" stroke-width="1.5" stroke-linecap="round" stroke-linejoin="round"/>
<path d="M3 5.25L5.91306 8.16306" stroke="black" stroke-width="1.5" stroke-linecap="round" stroke-linejoin="round"/>
<path d="M21.0001 5.25L18.1035 8.14656" stroke="black" stroke-width="1.5" stroke-linecap="round" stroke-linejoin="round"/>
</svg>
