<svg width="24" height="24" viewBox="0 0 24 24" fill="none" xmlns="http://www.w3.org/2000/svg">
<path d="M21 4.5H3C2.58579 4.5 2.25 4.83579 2.25 5.25V7.5C2.25 7.91421 2.58579 8.25 3 8.25H21C21.4142 8.25 21.75 7.91421 21.75 7.5V5.25C21.75 4.83579 21.4142 4.5 21 4.5Z" stroke="black" stroke-width="1.5" stroke-linecap="round" stroke-linejoin="round"/>
<path d="M20.25 8.25V18.6346C20.25 18.8641 20.171 19.0842 20.0303 19.2465C19.8897 19.4088 19.6989 19.5 19.5 19.5H4.5C4.30109 19.5 4.11032 19.4088 3.96967 19.2465C3.82902 19.0842 3.75 18.8641 3.75 18.6346V8.25" stroke="black" stroke-width="1.5" stroke-linecap="round" stroke-linejoin="round"/>
<path d="M9.75 12.75H14.25" stroke="black" stroke-width="1.5" stroke-linecap="round" stroke-linejoin="round"/>
</svg>
