<svg width="24" height="24" viewBox="0 0 24 24" fill="none" xmlns="http://www.w3.org/2000/svg">
<path d="M15 9.75H22.5" stroke="black" stroke-width="1.5" stroke-linecap="round" stroke-linejoin="round"/>
<path d="M15 12.75H22.5" stroke="black" stroke-width="1.5" stroke-linecap="round" stroke-linejoin="round"/>
<path d="M15 15.75H22.5" stroke="black" stroke-width="1.5" stroke-linecap="round" stroke-linejoin="round"/>
<path d="M6.75 18.75H22.5" stroke="black" stroke-width="1.5" stroke-linecap="round" stroke-linejoin="round"/>
<path d="M11.8605 12.3389C11.6566 13.1572 11.2268 13.9017 10.6202 14.4876C10.0136 15.0735 9.25463 15.4771 8.42974 15.6525C7.60486 15.8279 6.74728 15.7681 5.95478 15.4797C5.16228 15.1913 4.46675 14.6861 3.94748 14.0216C3.42821 13.3571 3.1061 12.56 3.01787 11.7213C2.92963 10.8826 3.07883 10.036 3.44844 9.27801C3.81806 8.51999 4.39322 7.88107 5.10836 7.4341C5.8235 6.98713 6.64984 6.75009 7.49317 6.75" stroke="black" stroke-width="1.5" stroke-linecap="round" stroke-linejoin="round"/>
<path d="M7.49342 10.7324L7.48828 15.74" stroke="black" stroke-width="1.5" stroke-linecap="round" stroke-linejoin="round"/>
<path d="M10.4932 4.875C10.9904 4.875 11.4674 5.07254 11.819 5.42417C12.1706 5.77581 12.3682 6.25272 12.3682 6.75C12.3682 7.24728 12.1706 7.72419 11.819 8.07583C11.4674 8.42746 10.9904 8.625 10.4932 8.625L4.49317 4.875C4.04729 4.87507 3.61603 5.03401 3.27675 5.3233C2.93746 5.61259 2.71235 6.0133 2.6418 6.45356C2.57124 6.89381 2.65986 7.3448 2.89175 7.72563C3.12364 8.10646 3.48363 8.3922 3.90715 8.53161" stroke="black" stroke-width="1.5" stroke-linecap="round" stroke-linejoin="round"/>
</svg>
