<svg width="24" height="24" viewBox="0 0 24 24" fill="none" xmlns="http://www.w3.org/2000/svg">
<path d="M12 21C16.9706 21 21 16.9706 21 12C21 7.02944 16.9706 3 12 3C7.02944 3 3 7.02944 3 12C3 16.9706 7.02944 21 12 21Z" stroke="black" stroke-width="1.5" stroke-linecap="round" stroke-linejoin="round"/>
<path d="M15.8604 10.5965C15.9387 10.1017 16.058 9.61423 16.217 9.13916" stroke="black" stroke-width="1.5" stroke-linecap="round" stroke-linejoin="round"/>
<path d="M16.216 14.8602C16.057 14.3851 15.9377 13.8976 15.8594 13.4028" stroke="black" stroke-width="1.5" stroke-linecap="round" stroke-linejoin="round"/>
<path d="M8.13984 10.597C8.06148 10.1022 7.94219 9.61472 7.7832 9.13965" stroke="black" stroke-width="1.5" stroke-linecap="round" stroke-linejoin="round"/>
<path d="M7.7832 14.8602C7.94217 14.3851 8.06144 13.8976 8.13978 13.4028" stroke="black" stroke-width="1.5" stroke-linecap="round" stroke-linejoin="round"/>
<path d="M17.5127 6.65019C17.7754 6.2952 18.0637 5.9599 18.3752 5.64697" stroke="black" stroke-width="1.5" stroke-linecap="round" stroke-linejoin="round"/>
<path d="M18.3745 18.3531C18.0628 18.0401 17.7744 17.7047 17.5117 17.3496" stroke="black" stroke-width="1.5" stroke-linecap="round" stroke-linejoin="round"/>
<path d="M5.625 18.3531C5.93668 18.0401 6.22504 17.7047 6.48776 17.3496" stroke="black" stroke-width="1.5" stroke-linecap="round" stroke-linejoin="round"/>
<path d="M6.48758 6.65022C6.2249 6.29522 5.93661 5.95991 5.625 5.64697" stroke="black" stroke-width="1.5" stroke-linecap="round" stroke-linejoin="round"/>
</svg>
