<svg width="24" height="24" viewBox="0 0 24 24" fill="none" xmlns="http://www.w3.org/2000/svg">
<path d="M4.5 3.75L19.5 20.25" stroke="black" stroke-width="1.5" stroke-linecap="round" stroke-linejoin="round"/>
<path d="M9 20.998H15" stroke="black" stroke-width="1.5" stroke-linecap="round" stroke-linejoin="round"/>
<path d="M8.67188 3.87962C9.70037 3.29173 10.8666 2.98759 12.0512 2.99832C15.7627 3.02591 18.7315 6.11095 18.7315 9.83287V10.4981C18.7315 13.0007 19.1217 14.7204 19.5766 15.8749" stroke="black" stroke-width="1.5" stroke-linecap="round" stroke-linejoin="round"/>
<path d="M17.4523 17.998H4.59173C4.45985 17.9977 4.33038 17.9626 4.2164 17.8962C4.10242 17.8299 4.00795 17.7347 3.94252 17.6201C3.8771 17.5056 3.84303 17.3759 3.84376 17.244C3.84449 17.1121 3.87999 16.9827 3.94667 16.869C4.56573 15.804 5.26855 13.8556 5.26855 10.498V9.74804C5.2662 8.37669 5.68274 7.03733 6.46241 5.90918" stroke="black" stroke-width="1.5" stroke-linecap="round" stroke-linejoin="round"/>
</svg>
