<svg width="24" height="24" viewBox="0 0 24 24" fill="none" xmlns="http://www.w3.org/2000/svg">
<path d="M5.26855 10.4999C5.26608 9.61436 5.43837 8.73703 5.77554 7.91817C6.11271 7.09931 6.60815 6.35503 7.23346 5.72798C7.85876 5.10092 8.60166 4.60341 9.41957 4.26395C10.2375 3.92449 11.1143 3.74976 11.9999 3.74976C12.8854 3.74976 13.7623 3.92449 14.5802 4.26395C15.3981 4.60341 16.141 5.10092 16.7663 5.72798C17.3916 6.35503 17.8871 7.09931 18.2242 7.91817C18.5614 8.73703 18.7337 9.61436 18.7312 10.4999V10.4999C18.7312 13.8576 19.4337 15.8061 20.0524 16.871C20.1191 16.9848 20.1546 17.1141 20.1553 17.246C20.156 17.3779 20.1219 17.5076 20.0565 17.6221C19.991 17.7366 19.8966 17.8318 19.7826 17.8981C19.6686 17.9645 19.5392 17.9996 19.4073 17.9999H4.59173C4.45985 17.9996 4.33038 17.9645 4.2164 17.8981C4.10242 17.8318 4.00795 17.7365 3.94252 17.622C3.8771 17.5075 3.84303 17.3778 3.84376 17.2459C3.84449 17.114 3.87999 16.9846 3.94667 16.8708C4.56573 15.8059 5.26855 13.8575 5.26855 10.4999H5.26855Z" stroke="black" stroke-width="1.5" stroke-linecap="round" stroke-linejoin="round"/>
<path d="M9 18V18.75C9 19.5456 9.31607 20.3087 9.87868 20.8713C10.4413 21.4339 11.2044 21.75 12 21.75C12.7956 21.75 13.5587 21.4339 14.1213 20.8713C14.6839 20.3087 15 19.5456 15 18.75V18" stroke="black" stroke-width="1.5" stroke-linecap="round" stroke-linejoin="round"/>
<path d="M17.1973 2.24902C18.7234 3.21245 19.9536 4.57885 20.7521 6.19736" stroke="black" stroke-width="1.5" stroke-linecap="round" stroke-linejoin="round"/>
<path d="M3.24805 6.19736C4.04657 4.57885 5.27679 3.21245 6.8029 2.24902" stroke="black" stroke-width="1.5" stroke-linecap="round" stroke-linejoin="round"/>
</svg>
