<svg width="24" height="24" viewBox="0 0 24 24" fill="none" xmlns="http://www.w3.org/2000/svg">
<path d="M4.5 3.75L19.5 20.25" stroke="black" stroke-width="1.5" stroke-linecap="round" stroke-linejoin="round"/>
<path d="M9 18V18.75C9 19.5456 9.31607 20.3087 9.87868 20.8713C10.4413 21.4339 11.2044 21.75 12 21.75C12.7956 21.75 13.5587 21.4339 14.1213 20.8713C14.6839 20.3087 15 19.5456 15 18.75V18" stroke="black" stroke-width="1.5" stroke-linecap="round" stroke-linejoin="round"/>
<path d="M17.4541 18.0001H4.59173C4.45985 17.9998 4.33038 17.9647 4.2164 17.8983C4.10242 17.832 4.00795 17.7367 3.94252 17.6222C3.8771 17.5077 3.84303 17.3779 3.84376 17.2461C3.84449 17.1142 3.87999 16.9848 3.94667 16.871C4.56573 15.8061 5.26855 13.8577 5.26855 10.5001V9.75012C5.2662 8.37831 5.68301 7.03852 6.46318 5.91016" stroke="black" stroke-width="1.5" stroke-linecap="round" stroke-linejoin="round"/>
<path d="M8.67285 3.88091C9.70107 3.29345 10.8668 2.98955 12.051 3.00027C15.7625 3.02787 18.7313 6.1129 18.7313 9.83482V10.5001C18.7313 13.0002 19.1208 14.719 19.5751 15.8735" stroke="black" stroke-width="1.5" stroke-linecap="round" stroke-linejoin="round"/>
</svg>
