<svg width="24" height="24" viewBox="0 0 24 24" fill="none" xmlns="http://www.w3.org/2000/svg">
<path d="M12 16.5V21" stroke="black" stroke-width="1.5" stroke-linecap="round" stroke-linejoin="round"/>
<path d="M8.25 21H15.75" stroke="black" stroke-width="1.5" stroke-linecap="round" stroke-linejoin="round"/>
<path d="M18.9156 3.74956C19.7256 4.99466 20.1843 6.43533 20.2435 7.9195C20.3026 9.40366 19.96 10.8763 19.2517 12.1819C18.5435 13.4875 17.4959 14.5777 16.2195 15.3374C14.9431 16.097 13.4853 16.4981 12 16.498C10.5146 16.498 9.05684 16.097 7.78047 15.3373C6.5041 14.5776 5.4565 13.4875 4.74826 12.1818C4.04001 10.8762 3.69739 9.40361 3.75655 7.91944C3.81571 6.43528 4.27447 4.99461 5.08439 3.74951L18.9156 3.74956Z" stroke="black" stroke-width="1.5" stroke-linecap="round" stroke-linejoin="round"/>
<path d="M3.75 8.25H20.25" stroke="black" stroke-width="1.5" stroke-linecap="round" stroke-linejoin="round"/>
</svg>
