<svg width="24" height="24" viewBox="0 0 24 24" fill="none" xmlns="http://www.w3.org/2000/svg">
<path d="M14.625 8.8125C15.1428 8.8125 15.5625 8.39277 15.5625 7.875C15.5625 7.35723 15.1428 6.9375 14.625 6.9375C14.1072 6.9375 13.6875 7.35723 13.6875 7.875C13.6875 8.39277 14.1072 8.8125 14.625 8.8125Z" fill="black"/>
<path d="M9.375 8.8125C9.89277 8.8125 10.3125 8.39277 10.3125 7.875C10.3125 7.35723 9.89277 6.9375 9.375 6.9375C8.85723 6.9375 8.4375 7.35723 8.4375 7.875C8.4375 8.39277 8.85723 8.8125 9.375 8.8125Z" fill="black"/>
<path d="M19.4932 13.875C19.4932 15.8641 18.703 17.7718 17.2965 19.1783C15.8899 20.5848 13.9823 21.375 11.9932 21.375C10.004 21.375 8.09639 20.5848 6.68986 19.1783C5.28334 17.7718 4.49316 15.8641 4.49316 13.875V10.125C4.49316 8.13588 5.28334 6.22822 6.68986 4.8217C8.09639 3.41518 10.004 2.625 11.9932 2.625C13.9823 2.625 15.8899 3.41518 17.2965 4.8217C18.703 6.22822 19.4932 8.13588 19.4932 10.125V13.875Z" stroke="black" stroke-width="1.5" stroke-linecap="round" stroke-linejoin="round"/>
<path d="M19.4932 12H4.49316" stroke="black" stroke-width="1.5" stroke-linecap="round" stroke-linejoin="round"/>
<path d="M5.24316 2.625L7.14762 4.40025" stroke="black" stroke-width="1.5" stroke-linecap="round" stroke-linejoin="round"/>
<path d="M18.7434 2.625L16.8389 4.40031" stroke="black" stroke-width="1.5" stroke-linecap="round" stroke-linejoin="round"/>
</svg>
