<svg width="24" height="24" viewBox="0 0 24 24" fill="none" xmlns="http://www.w3.org/2000/svg">
<path d="M1.5 20.2485H22.5" stroke="black" stroke-width="1.5" stroke-linecap="round" stroke-linejoin="round"/>
<path d="M13.499 20.2485V3.74853C13.499 3.54962 13.42 3.35886 13.2794 3.21821C13.1387 3.07755 12.9479 2.99854 12.749 2.99854H3.74902C3.55011 2.99854 3.35935 3.07755 3.21869 3.21821C3.07804 3.35886 2.99902 3.54962 2.99902 3.74853V20.2485" stroke="black" stroke-width="1.5" stroke-linecap="round" stroke-linejoin="round"/>
<path d="M20.999 20.2485V9.74854C20.999 9.54962 20.92 9.35886 20.7794 9.21821C20.6387 9.07755 20.4479 8.99854 20.249 8.99854H13.499" stroke="black" stroke-width="1.5" stroke-linecap="round" stroke-linejoin="round"/>
<path d="M5.99902 6.74854H8.99902" stroke="black" stroke-width="1.5" stroke-linecap="round" stroke-linejoin="round"/>
<path d="M7.49902 12.7485H10.499" stroke="black" stroke-width="1.5" stroke-linecap="round" stroke-linejoin="round"/>
<path d="M5.99902 16.4985H8.99902" stroke="black" stroke-width="1.5" stroke-linecap="round" stroke-linejoin="round"/>
<path d="M16.499 16.4985H17.999" stroke="black" stroke-width="1.5" stroke-linecap="round" stroke-linejoin="round"/>
<path d="M16.499 12.7485H17.999" stroke="black" stroke-width="1.5" stroke-linecap="round" stroke-linejoin="round"/>
</svg>
