<svg width="24" height="24" viewBox="0 0 24 24" fill="none" xmlns="http://www.w3.org/2000/svg">
<path d="M4.49951 3.75073L19.4995 20.2507" stroke="black" stroke-width="1.5" stroke-linecap="round" stroke-linejoin="round"/>
<path d="M12.6943 8.30537L17.4695 3.53022C17.5744 3.42533 17.708 3.3539 17.8535 3.32496C17.999 3.29602 18.1498 3.31087 18.2868 3.36764C18.4239 3.4244 18.541 3.52053 18.6234 3.64387C18.7058 3.76721 18.7498 3.91221 18.7498 4.06055V14.9664" stroke="black" stroke-width="1.5" stroke-linecap="round" stroke-linejoin="round"/>
<path d="M19.4994 20.2508L2.56055 20.25C2.41221 20.25 2.26721 20.206 2.14387 20.1236C2.02053 20.0412 1.9244 19.924 1.86764 19.787C1.81087 19.65 1.79602 19.4992 1.82496 19.3537C1.8539 19.2082 1.92533 19.0745 2.03022 18.9697L10.5707 10.4292" stroke="black" stroke-width="1.5" stroke-linecap="round" stroke-linejoin="round"/>
</svg>
