<svg width="24" height="24" viewBox="0 0 24 24" fill="none" xmlns="http://www.w3.org/2000/svg">
<path d="M12 22.5L14.4609 18.75" stroke="black" stroke-width="1.5" stroke-linecap="round" stroke-linejoin="round"/>
<path d="M9.25781 19.5L12.2109 15" stroke="black" stroke-width="1.5" stroke-linecap="round" stroke-linejoin="round"/>
<path d="M8.25044 8.625C8.25044 7.36415 8.62433 6.13161 9.32482 5.08324C10.0253 4.03488 11.021 3.21778 12.1858 2.73527C13.3507 2.25276 14.6325 2.12652 15.8691 2.3725C17.1058 2.61848 18.2417 3.22564 19.1332 4.1172C20.0248 5.00876 20.632 6.14467 20.8779 7.3813C21.1239 8.61793 20.9977 9.89973 20.5152 11.0646C20.0327 12.2295 19.2156 13.2251 18.1672 13.9256C17.1188 14.6261 15.8863 15 14.6254 15H7.12544C6.52651 14.9995 5.93487 14.8686 5.39165 14.6163C4.84842 14.3641 4.36664 13.9966 3.97979 13.5393C3.59294 13.0821 3.3103 12.5461 3.15151 11.9686C2.99273 11.3911 2.9616 10.786 3.06031 10.1952C3.15901 9.60448 3.38517 9.04231 3.72307 8.5478C4.06097 8.05329 4.5025 7.63829 5.01698 7.33164C5.53146 7.025 6.10655 6.83407 6.70227 6.77213C7.29799 6.71018 7.90005 6.7787 8.46661 6.97293" stroke="black" stroke-width="1.5" stroke-linecap="round" stroke-linejoin="round"/>
</svg>
