<svg width="24" height="24" viewBox="0 0 24 24" fill="none" xmlns="http://www.w3.org/2000/svg">
<path d="M8.25044 8.625C8.25044 7.36415 8.62433 6.13161 9.32482 5.08324C10.0253 4.03488 11.021 3.21778 12.1858 2.73527C13.3507 2.25276 14.6325 2.12652 15.8691 2.3725C17.1058 2.61848 18.2417 3.22564 19.1332 4.1172C20.0248 5.00876 20.632 6.14467 20.8779 7.3813C21.1239 8.61793 20.9977 9.89973 20.5152 11.0646C20.0327 12.2295 19.2156 13.2251 18.1672 13.9256C17.1188 14.6261 15.8863 15 14.6254 15H7.12544C6.52651 14.9995 5.93487 14.8686 5.39165 14.6163C4.84842 14.3641 4.36664 13.9966 3.97979 13.5393C3.59294 13.0821 3.3103 12.5461 3.15151 11.9686C2.99273 11.3911 2.9616 10.786 3.06031 10.1952C3.15901 9.60448 3.38517 9.04231 3.72307 8.5478C4.06097 8.05329 4.5025 7.63829 5.01698 7.33164C5.53146 7.025 6.10655 6.83407 6.70227 6.77213C7.29799 6.71018 7.90005 6.7787 8.46661 6.97293" stroke="black" stroke-width="1.5" stroke-linecap="round" stroke-linejoin="round"/>
<path d="M7.125 19.3125C7.64277 19.3125 8.0625 18.8928 8.0625 18.375C8.0625 17.8572 7.64277 17.4375 7.125 17.4375C6.60723 17.4375 6.1875 17.8572 6.1875 18.375C6.1875 18.8928 6.60723 19.3125 7.125 19.3125Z" fill="black"/>
<path d="M10.875 20.8125C11.3928 20.8125 11.8125 20.3928 11.8125 19.875C11.8125 19.3572 11.3928 18.9375 10.875 18.9375C10.3572 18.9375 9.9375 19.3572 9.9375 19.875C9.9375 20.3928 10.3572 20.8125 10.875 20.8125Z" fill="black"/>
<path d="M15.375 19.3125C15.8928 19.3125 16.3125 18.8928 16.3125 18.375C16.3125 17.8572 15.8928 17.4375 15.375 17.4375C14.8572 17.4375 14.4375 17.8572 14.4375 18.375C14.4375 18.8928 14.8572 19.3125 15.375 19.3125Z" fill="black"/>
<path d="M6.375 23.0625C6.89277 23.0625 7.3125 22.6428 7.3125 22.125C7.3125 21.6072 6.89277 21.1875 6.375 21.1875C5.85723 21.1875 5.4375 21.6072 5.4375 22.125C5.4375 22.6428 5.85723 23.0625 6.375 23.0625Z" fill="black"/>
<path d="M14.625 23.0625C15.1428 23.0625 15.5625 22.6428 15.5625 22.125C15.5625 21.6072 15.1428 21.1875 14.625 21.1875C14.1072 21.1875 13.6875 21.6072 13.6875 22.125C13.6875 22.6428 14.1072 23.0625 14.625 23.0625Z" fill="black"/>
</svg>
