<svg width="24" height="24" viewBox="0 0 24 24" fill="none" xmlns="http://www.w3.org/2000/svg">
<path d="M4.5 3.75L19.5 20.25" stroke="black" stroke-width="1.5" stroke-linecap="round" stroke-linejoin="round"/>
<path d="M18.1774 18.7956C17.1828 19.261 16.0979 19.5015 14.9998 19.5H6.74978C6.00525 19.4993 5.26939 19.3402 4.59104 19.0333C3.91269 18.7265 3.30737 18.2788 2.81526 17.7201C2.32314 17.1614 1.95548 16.5045 1.73669 15.7928C1.5179 15.0812 1.45297 14.3311 1.54623 13.5924C1.63948 12.8538 1.88877 12.1434 2.27757 11.5084C2.66636 10.8735 3.18576 10.3285 3.80129 9.90963C4.41682 9.49077 5.11439 9.20762 5.84772 9.07897C6.58105 8.95032 7.33336 8.97912 8.0547 9.16345" stroke="black" stroke-width="1.5" stroke-linecap="round" stroke-linejoin="round"/>
<path d="M10.5596 5.95545C12.0538 4.85778 13.9017 4.35247 15.7465 4.53702C17.5914 4.72157 19.3025 5.58291 20.5497 6.95482C21.7969 8.32673 22.4918 10.112 22.5002 11.966C22.5086 13.8201 21.83 15.6116 20.5953 16.9948" stroke="black" stroke-width="1.5" stroke-linecap="round" stroke-linejoin="round"/>
<path d="M7.50001 12C7.49789 10.6604 7.85629 9.34484 8.53763 8.19141" stroke="black" stroke-width="1.5" stroke-linecap="round" stroke-linejoin="round"/>
</svg>
