<svg width="24" height="24" viewBox="0 0 24 24" fill="none" xmlns="http://www.w3.org/2000/svg">
<path d="M8.25044 13.875C8.25044 12.6141 8.62433 11.3816 9.32482 10.3332C10.0253 9.28488 11.021 8.46778 12.1858 7.98527C13.3507 7.50276 14.6325 7.37652 15.8691 7.6225C17.1058 7.86848 18.2417 8.47564 19.1332 9.3672C20.0248 10.2588 20.632 11.3947 20.8779 12.6313C21.1239 13.8679 20.9977 15.1497 20.5152 16.3146C20.0327 17.4795 19.2156 18.4751 18.1672 19.1756C17.1188 19.8761 15.8863 20.25 14.6254 20.25H7.12544C6.52651 20.2495 5.93487 20.1186 5.39165 19.8663C4.84842 19.6141 4.36664 19.2466 3.97979 18.7893C3.59294 18.3321 3.3103 17.7961 3.15151 17.2186C2.99273 16.6411 2.9616 16.036 3.06031 15.4452C3.15901 14.8545 3.38517 14.2923 3.72307 13.7978C4.06097 13.3033 4.5025 12.8883 5.01698 12.5816C5.53146 12.275 6.10655 12.0841 6.70227 12.0221C7.29799 11.9602 7.90005 12.0287 8.46661 12.2229" stroke="black" stroke-width="1.5" stroke-linecap="round" stroke-linejoin="round"/>
<path d="M4.40561 13.0244C3.53392 12.6535 2.76222 12.0818 2.15342 11.356C1.54462 10.6302 1.11594 9.77082 0.902344 8.84789L0.902365 8.8478C1.89381 9.07522 2.92677 9.04707 3.90436 8.76601C4.88195 8.48494 5.77213 7.96016 6.49139 7.2409C7.21065 6.52163 7.73543 5.63146 8.0165 4.65387C8.29756 3.67628 8.32571 2.64332 8.09829 1.65187L8.09837 1.65186C9.42068 1.95717 10.6005 2.70158 11.4453 3.76364C12.2902 4.8257 12.7502 6.14271 12.7503 7.49981C12.7503 7.59446 12.7481 7.68857 12.7438 7.78216" stroke="black" stroke-width="1.5" stroke-linecap="round" stroke-linejoin="round"/>
</svg>
