<svg width="24" height="24" viewBox="0 0 24 24" fill="none" xmlns="http://www.w3.org/2000/svg">
<path d="M11.0684 16.3181L14.2503 19.5001L17.4323 16.3181" stroke="black" stroke-width="1.5" stroke-linecap="round" stroke-linejoin="round"/>
<path d="M14.25 12V19.5" stroke="black" stroke-width="1.5" stroke-linecap="round" stroke-linejoin="round"/>
<path d="M8.99978 19.5H6.74978C6.00525 19.4993 5.26939 19.3402 4.59104 19.0333C3.91269 18.7265 3.30737 18.2788 2.81526 17.7201C2.32314 17.1614 1.95548 16.5045 1.73669 15.7928C1.5179 15.0812 1.45297 14.3311 1.54623 13.5924C1.63948 12.8538 1.88877 12.1434 2.27757 11.5084C2.66636 10.8735 3.18576 10.3285 3.80129 9.90963C4.41682 9.49077 5.11439 9.20762 5.84772 9.07897C6.58105 8.95032 7.33336 8.97912 8.0547 9.16345" stroke="black" stroke-width="1.5" stroke-linecap="round" stroke-linejoin="round"/>
<path d="M7.5 12C7.50012 10.8117 7.78261 9.64035 8.3242 8.5826C8.86578 7.52485 9.65097 6.61093 10.615 5.91615C11.5791 5.22137 12.6945 4.76563 13.8692 4.58646C15.044 4.4073 16.2445 4.50985 17.3719 4.88566C18.4992 5.26148 19.5211 5.8998 20.3534 6.74802C21.1857 7.59625 21.8045 8.6301 22.1588 9.76438C22.5132 10.8987 22.5929 12.1009 22.3915 13.2721C22.19 14.4432 21.7132 15.5497 21.0002 16.5004" stroke="black" stroke-width="1.5" stroke-linecap="round" stroke-linejoin="round"/>
</svg>
