<svg width="24" height="24" viewBox="0 0 24 24" fill="none" xmlns="http://www.w3.org/2000/svg">
<path d="M12 21C16.9706 21 21 16.9706 21 12C21 7.02944 16.9706 3 12 3C7.02944 3 3 7.02944 3 12C3 16.9706 7.02944 21 12 21Z" stroke="black" stroke-width="1.5" stroke-linecap="round" stroke-linejoin="round"/>
<path d="M15.0005 14.2501C14.5282 14.8796 13.8698 15.3446 13.1186 15.5791C12.3674 15.8136 11.5614 15.8059 10.8148 15.557C10.0682 15.308 9.41886 14.8305 8.95872 14.192C8.49858 13.5536 8.25098 12.7865 8.25098 11.9995C8.25097 11.2125 8.49857 10.4455 8.95869 9.80702C9.41882 9.16855 10.0682 8.69103 10.8147 8.44208C11.5613 8.19313 12.3673 8.18537 13.1185 8.41991C13.8698 8.65445 14.5282 9.11939 15.0005 9.74888" stroke="black" stroke-width="1.5" stroke-linecap="round" stroke-linejoin="round"/>
</svg>
