<svg width="24" height="24" viewBox="0 0 24 24" fill="none" xmlns="http://www.w3.org/2000/svg">
<path d="M18 3.75H6C4.75736 3.75 3.75 4.75736 3.75 6V18C3.75 19.2426 4.75736 20.25 6 20.25H18C19.2426 20.25 20.25 19.2426 20.25 18V6C20.25 4.75736 19.2426 3.75 18 3.75Z" stroke="black" stroke-width="1.5" stroke-linecap="round" stroke-linejoin="round"/>
<path d="M10.125 11.0625C10.6428 11.0625 11.0625 10.6428 11.0625 10.125C11.0625 9.60723 10.6428 9.1875 10.125 9.1875C9.60723 9.1875 9.1875 9.60723 9.1875 10.125C9.1875 10.6428 9.60723 11.0625 10.125 11.0625Z" fill="black"/>
<path d="M13.875 14.8125C14.3928 14.8125 14.8125 14.3928 14.8125 13.875C14.8125 13.3572 14.3928 12.9375 13.875 12.9375C13.3572 12.9375 12.9375 13.3572 12.9375 13.875C12.9375 14.3928 13.3572 14.8125 13.875 14.8125Z" fill="black"/>
</svg>
