<svg width="24" height="24" viewBox="0 0 24 24" fill="none" xmlns="http://www.w3.org/2000/svg">
<path d="M9 14.4375C9.51777 14.4375 9.9375 14.0178 9.9375 13.5C9.9375 12.9822 9.51777 12.5625 9 12.5625C8.48223 12.5625 8.0625 12.9822 8.0625 13.5C8.0625 14.0178 8.48223 14.4375 9 14.4375Z" fill="black"/>
<path d="M15 14.4375C15.5178 14.4375 15.9375 14.0178 15.9375 13.5C15.9375 12.9822 15.5178 12.5625 15 12.5625C14.4822 12.5625 14.0625 12.9822 14.0625 13.5C14.0625 14.0178 14.4822 14.4375 15 14.4375Z" fill="black"/>
<path d="M6.97559 7.49992C8.60154 6.991 10.2967 6.73798 12.0004 6.74992C13.7041 6.73798 15.3993 6.99099 17.0252 7.49989" stroke="black" stroke-width="1.5" stroke-linecap="round" stroke-linejoin="round"/>
<path d="M17.0251 16.5C15.3992 17.0089 13.704 17.2619 12.0004 17.25C10.2967 17.2619 8.60152 17.0089 6.97559 16.5" stroke="black" stroke-width="1.5" stroke-linecap="round" stroke-linejoin="round"/>
<path d="M14.5352 17.071L15.6625 19.3257C15.7376 19.4772 15.8619 19.5987 16.015 19.6703C16.1681 19.742 16.341 19.7596 16.5054 19.7203C18.806 19.1579 20.7892 18.1773 22.2336 16.9218C22.3439 16.827 22.4245 16.7023 22.4656 16.5627C22.5067 16.4232 22.5066 16.2748 22.4653 16.1353L19.2803 5.51843C19.2481 5.41137 19.1925 5.31283 19.1175 5.22998C19.0425 5.14712 18.9499 5.08203 18.8466 5.03945C17.9467 4.67104 17.0161 4.38295 16.0655 4.17856C15.8844 4.13887 15.695 4.16752 15.5337 4.259C15.3725 4.35048 15.2507 4.49834 15.1918 4.67416L14.4443 6.91663" stroke="black" stroke-width="1.5" stroke-linecap="round" stroke-linejoin="round"/>
<path d="M9.46508 17.0709L8.3377 19.3257C8.26259 19.4772 8.13832 19.5987 7.98521 19.6703C7.8321 19.742 7.65921 19.7596 7.49478 19.7203C5.19428 19.1579 3.21109 18.1773 1.76665 16.9218C1.65635 16.827 1.5758 16.7023 1.53468 16.5628C1.49357 16.4232 1.49365 16.2748 1.53491 16.1353L4.71995 5.51843C4.75211 5.41137 4.80772 5.31283 4.88275 5.22997C4.95778 5.14712 5.05034 5.08203 5.15369 5.03945C6.0535 4.67104 6.98415 4.38295 7.93473 4.17856C8.11584 4.13887 8.30523 4.16752 8.4665 4.259C8.62777 4.35048 8.74954 4.49834 8.80841 4.67416L9.55589 6.91663" stroke="black" stroke-width="1.5" stroke-linecap="round" stroke-linejoin="round"/>
</svg>
