<svg width="24" height="24" viewBox="0 0 24 24" fill="none" xmlns="http://www.w3.org/2000/svg">
<path d="M4.5 3.75L19.5 20.25" stroke="black" stroke-width="1.5" stroke-linecap="round" stroke-linejoin="round"/>
<path d="M8.57146 8.22852C8.35881 8.70749 8.24929 9.22584 8.25 9.7499" stroke="black" stroke-width="1.5" stroke-linecap="round" stroke-linejoin="round"/>
<path d="M8.1543 3.30976C9.29284 2.63036 10.5911 2.26485 11.9169 2.25044C13.2427 2.23604 14.5486 2.57326 15.7016 3.22776C16.8546 3.88226 17.8136 4.83066 18.4809 5.97637C19.1481 7.12208 19.4998 8.42416 19.5001 9.75001" stroke="black" stroke-width="1.5" stroke-linecap="round" stroke-linejoin="round"/>
<path d="M15.1818 20.2505C14.6412 20.9057 13.9115 21.378 13.0924 21.6029C12.2732 21.8279 11.4047 21.7944 10.6053 21.5072C9.80585 21.22 9.11461 20.693 8.62594 19.9981C8.13728 19.3033 7.87503 18.4746 7.87501 17.6252C7.87501 13.7355 4.50001 15.0002 4.50001 9.75018C4.49748 8.16212 5.00138 6.61462 5.93849 5.33252" stroke="black" stroke-width="1.5" stroke-linecap="round" stroke-linejoin="round"/>
<path d="M15.288 11.1571C15.5969 10.7539 15.7597 10.2578 15.7497 9.75C15.7493 9.15319 15.6065 8.56509 15.3333 8.03451C15.06 7.50393 14.6641 7.04617 14.1785 6.69923C13.6929 6.35229 13.1316 6.12617 12.5411 6.03965C11.9506 5.95312 11.3479 6.00869 10.7832 6.20172" stroke="black" stroke-width="1.5" stroke-linecap="round" stroke-linejoin="round"/>
<path d="M15.6463 16.0108C15.3628 16.1145 15.0586 16.1483 14.7593 16.1094C14.46 16.0704 14.1745 15.9599 13.9271 15.7871C13.6797 15.6143 13.4776 15.3843 13.338 15.1167C13.1984 14.8492 13.1254 14.5519 13.1252 14.2501C13.1218 13.9604 13.1722 13.6726 13.274 13.4014" stroke="black" stroke-width="1.5" stroke-linecap="round" stroke-linejoin="round"/>
</svg>
