<svg width="24" height="24" viewBox="0 0 24 24" fill="none" xmlns="http://www.w3.org/2000/svg">
<path d="M8.58301 9.33276L14.947 15.6967" stroke="black" stroke-width="1.5" stroke-linecap="round" stroke-linejoin="round"/>
<path d="M20.2497 20.2344H6.75622L3.27918 16.7573C3.1399 16.6181 3.02941 16.4527 2.95402 16.2707C2.87864 16.0887 2.83984 15.8937 2.83984 15.6967C2.83984 15.4997 2.87864 15.3047 2.95402 15.1227C3.02941 14.9407 3.1399 14.7753 3.27918 14.636L13.8858 4.02943C14.1671 3.74812 14.5486 3.59009 14.9464 3.59009C15.3443 3.59009 15.7258 3.74812 16.0071 4.02943L20.2497 8.27207C20.389 8.41136 20.4995 8.57672 20.5749 8.7587C20.6503 8.94069 20.6891 9.13575 20.6891 9.33273C20.6891 9.52971 20.6503 9.72477 20.5749 9.90675C20.4995 10.0887 20.389 10.2541 20.2497 10.3934L10.4088 20.2344" stroke="black" stroke-width="1.5" stroke-linecap="round" stroke-linejoin="round"/>
</svg>
