<svg width="24" height="24" viewBox="0 0 24 24" fill="none" xmlns="http://www.w3.org/2000/svg">
<path d="M15.1875 15.1875C16.9479 15.1875 18.375 13.7604 18.375 12C18.375 10.2396 16.9479 8.8125 15.1875 8.8125C13.4271 8.8125 12 10.2396 12 12C12 13.7604 13.4271 15.1875 15.1875 15.1875Z" stroke="black" stroke-width="1.5" stroke-linecap="round" stroke-linejoin="round"/>
<path d="M12 8.81242V2.4375H8.8125C7.96712 2.4375 7.15637 2.77332 6.5586 3.3711C5.96082 3.96887 5.625 4.77962 5.625 5.625C5.625 6.47038 5.96082 7.28113 6.5586 7.8789C7.15637 8.47667 7.96712 8.8125 8.8125 8.8125L12 8.81242Z" stroke="black" stroke-width="1.5" stroke-linecap="round" stroke-linejoin="round"/>
<path d="M12 15.1874V8.8125H8.8125C7.96712 8.8125 7.15637 9.14832 6.5586 9.7461C5.96082 10.3439 5.625 11.1546 5.625 12C5.625 12.8454 5.96082 13.6561 6.5586 14.2539C7.15637 14.8517 7.96712 15.1875 8.8125 15.1875L12 15.1874Z" stroke="black" stroke-width="1.5" stroke-linecap="round" stroke-linejoin="round"/>
<path d="M12 8.81242V2.4375H15.1875C16.0329 2.4375 16.8436 2.77332 17.4414 3.3711C18.0392 3.96887 18.375 4.77962 18.375 5.625C18.375 6.47038 18.0392 7.28113 17.4414 7.8789C16.8436 8.47667 16.0329 8.8125 15.1875 8.8125L12 8.81242Z" stroke="black" stroke-width="1.5" stroke-linecap="round" stroke-linejoin="round"/>
<path d="M12 15.1875V18.375C12 19.0055 11.8131 19.6217 11.4628 20.1459C11.1126 20.6701 10.6148 21.0787 10.0323 21.3199C9.4499 21.5612 8.80899 21.6243 8.19068 21.5013C7.57236 21.3784 7.0044 21.0748 6.55861 20.629C6.11283 20.1832 5.80925 19.6153 5.68625 18.9969C5.56326 18.3786 5.62638 17.7377 5.86763 17.1553C6.10888 16.5728 6.51743 16.075 7.04162 15.7248C7.5658 15.3745 8.18207 15.1876 8.8125 15.1876L12 15.1875Z" stroke="black" stroke-width="1.5" stroke-linecap="round" stroke-linejoin="round"/>
</svg>
