<svg width="24" height="24" viewBox="0 0 24 24" fill="none" xmlns="http://www.w3.org/2000/svg">
<path d="M4.75195 17.3365C5.57576 15.6787 6.00315 13.8521 6.00044 12.0009C5.99959 11.1013 6.20142 10.2131 6.59094 9.40216C6.98045 8.59125 7.54765 7.87852 8.25041 7.31689" stroke="black" stroke-width="1.5" stroke-linecap="round" stroke-linejoin="round"/>
<path d="M12.0007 12.001C12.0054 15.0505 11.2317 18.0509 9.75293 20.7179" stroke="black" stroke-width="1.5" stroke-linecap="round" stroke-linejoin="round"/>
<path d="M9.00098 12.001C9.00098 11.2053 9.31705 10.4423 9.87966 9.87966C10.4423 9.31705 11.2053 9.00098 12.001 9.00098C12.7966 9.00098 13.5597 9.31705 14.1223 9.87966C14.6849 10.4423 15.001 11.2053 15.001 12.001C15.0054 15.0932 14.3242 18.1479 13.0064 20.9453" stroke="black" stroke-width="1.5" stroke-linecap="round" stroke-linejoin="round"/>
<path d="M20.4903 17.251C20.8304 15.5217 21.0013 13.7634 21.0004 12.001C21.0004 9.61403 20.0522 7.32484 18.3644 5.63702C16.6765 3.94919 14.3874 3.00098 12.0004 3.00098C9.61346 3.00098 7.32427 3.94919 5.63645 5.63702C3.94862 7.32484 3.00041 9.61403 3.00041 12.001C3.00153 13.0228 2.82833 14.0374 2.48828 15.001" stroke="black" stroke-width="1.5" stroke-linecap="round" stroke-linejoin="round"/>
<path d="M8.70021 15.001C8.38002 16.578 7.80651 18.0928 7.00195 19.4864" stroke="black" stroke-width="1.5" stroke-linecap="round" stroke-linejoin="round"/>
<path d="M11.251 6.0474C12.0955 5.94178 12.9528 6.01688 13.766 6.26772C14.5793 6.51856 15.33 6.93942 15.9682 7.50238C16.6065 8.06535 17.1178 8.75756 17.4683 9.53313C17.8187 10.3087 18.0003 11.1499 18.001 12.001C18.0012 13.0038 17.9392 14.0057 17.8153 15.0009" stroke="black" stroke-width="1.5" stroke-linecap="round" stroke-linejoin="round"/>
<path d="M17.2445 18.001C17.1017 18.5559 16.9398 19.1027 16.7588 19.6416" stroke="black" stroke-width="1.5" stroke-linecap="round" stroke-linejoin="round"/>
</svg>
