<svg width="24" height="24" viewBox="0 0 24 24" fill="none" xmlns="http://www.w3.org/2000/svg">
<path d="M16.4997 12.001C16.5034 14.9334 15.9322 17.8381 14.8184 20.5507" stroke="black" stroke-width="1.5" stroke-linecap="round" stroke-linejoin="round"/>
<path d="M15.353 9.00069C14.7454 8.32148 13.9459 7.84276 13.0602 7.62787C12.1746 7.41298 11.2446 7.47205 10.3933 7.79727C9.54194 8.12249 8.80942 8.69852 8.29262 9.44915C7.77583 10.1998 7.49912 11.0896 7.49911 12.001C7.50265 14.288 6.92247 16.5382 5.81348 18.5384" stroke="black" stroke-width="1.5" stroke-linecap="round" stroke-linejoin="round"/>
<path d="M8.99902 3.51312C10.3567 3.0346 11.8093 2.8885 13.2351 3.08707C14.6609 3.28565 16.0183 3.8231 17.1936 4.6544C18.3689 5.48569 19.3278 6.58659 19.9899 7.86484C20.652 9.14309 20.9981 10.5614 20.9991 12.001C21.0003 14.0196 20.7759 16.0321 20.33 18.0009" stroke="black" stroke-width="1.5" stroke-linecap="round" stroke-linejoin="round"/>
<path d="M2.18359 15.7508C2.72306 14.5743 3.00146 13.295 2.99966 12.0008C2.99823 10.7343 3.26479 9.48179 3.78183 8.32562C4.29887 7.16945 5.05469 6.13577 5.99963 5.29248" stroke="black" stroke-width="1.5" stroke-linecap="round" stroke-linejoin="round"/>
<path d="M10.3665 19.501C10.1763 19.9153 9.97117 20.3208 9.75098 20.7177" stroke="black" stroke-width="1.5" stroke-linecap="round" stroke-linejoin="round"/>
<path d="M11.9987 12.001C11.9998 13.5189 11.8093 15.0308 11.4316 16.501" stroke="black" stroke-width="1.5" stroke-linecap="round" stroke-linejoin="round"/>
</svg>
