<svg width="24" height="24" viewBox="0 0 24 24" fill="none" xmlns="http://www.w3.org/2000/svg">
<path d="M3.75 8.56066V19.5C3.75 19.6989 3.82902 19.8897 3.96967 20.0303C4.11032 20.171 4.30109 20.25 4.5 20.25H19.5C19.6989 20.25 19.8897 20.171 20.0303 20.0303C20.171 19.8897 20.25 19.6989 20.25 19.5V4.5C20.25 4.30109 20.171 4.11032 20.0303 3.96967C19.8897 3.82902 19.6989 3.75 19.5 3.75H8.56066C8.46217 3.75 8.36464 3.7694 8.27365 3.80709C8.18265 3.84478 8.09997 3.90003 8.03033 3.96967L3.96967 8.03033C3.90003 8.09997 3.84478 8.18265 3.80709 8.27365C3.7694 8.36464 3.75 8.46217 3.75 8.56066V8.56066Z" stroke="black" stroke-width="1.5" stroke-linecap="round" stroke-linejoin="round"/>
<path d="M12.001 16.5007C13.4507 16.5007 14.626 15.3255 14.626 13.8757C14.626 12.426 13.4507 11.2507 12.001 11.2507C10.5512 11.2507 9.37598 12.426 9.37598 13.8757C9.37598 15.3255 10.5512 16.5007 12.001 16.5007Z" stroke="black" stroke-width="1.5" stroke-linecap="round" stroke-linejoin="round"/>
<path d="M9 7.50073H15V3.75073" stroke="black" stroke-width="1.5" stroke-linecap="round" stroke-linejoin="round"/>
</svg>
