<svg width="24" height="24" viewBox="0 0 24 24" fill="none" xmlns="http://www.w3.org/2000/svg">
<path d="M12 14.625C13.4497 14.625 14.625 13.4497 14.625 12C14.625 10.5503 13.4497 9.375 12 9.375C10.5503 9.375 9.375 10.5503 9.375 12C9.375 13.4497 10.5503 14.625 12 14.625Z" stroke="black" stroke-width="1.5" stroke-linecap="round" stroke-linejoin="round"/>
<path d="M10.7839 9.67335C10.0971 8.22923 9.375 6.43013 9.375 5.25C9.375 4.55381 9.65156 3.88613 10.1438 3.39384C10.6361 2.90156 11.3038 2.625 12 2.625C12.6962 2.625 13.3639 2.90156 13.8562 3.39384C14.3484 3.88613 14.625 4.55381 14.625 5.25C14.625 6.43013 13.9029 8.22923 13.2161 9.67335" stroke="black" stroke-width="1.5" stroke-linecap="round" stroke-linejoin="round"/>
<path d="M9.37732 11.89C7.78329 11.7627 5.86415 11.4885 4.84213 10.8984C4.23942 10.5502 3.79969 9.97691 3.61963 9.30453C3.43957 8.63216 3.53393 7.9158 3.88196 7.31299C4.23 6.71019 4.8032 6.27029 5.47552 6.09004C6.14784 5.90979 6.86423 6.00394 7.46713 6.35181C8.48916 6.94187 9.68616 8.46682 10.5934 9.78362" stroke="black" stroke-width="1.5" stroke-linecap="round" stroke-linejoin="round"/>
<path d="M10.5934 14.2167C9.68615 15.5335 8.48915 17.0585 7.46713 17.6485C6.86423 17.9964 6.14784 18.0905 5.47552 17.9103C4.8032 17.73 4.23 17.2901 3.88196 16.6873C3.53393 16.0845 3.43957 15.3682 3.61963 14.6958C3.79969 14.0234 4.23942 13.4501 4.84213 13.1019C5.86416 12.5118 7.7833 12.2377 9.37732 12.1104" stroke="black" stroke-width="1.5" stroke-linecap="round" stroke-linejoin="round"/>
<path d="M13.2161 14.3267C13.9029 15.7708 14.625 17.5699 14.625 18.75C14.625 19.4462 14.3484 20.1139 13.8562 20.6062C13.3639 21.0985 12.6962 21.375 12 21.375C11.3038 21.375 10.6361 21.0985 10.1438 20.6062C9.65156 20.1139 9.375 19.4462 9.375 18.75C9.375 17.5699 10.0971 15.7708 10.7839 14.3267" stroke="black" stroke-width="1.5" stroke-linecap="round" stroke-linejoin="round"/>
<path d="M14.6233 12.1104C16.2174 12.2377 18.1365 12.5118 19.1585 13.1019C19.7612 13.4501 20.201 14.0234 20.381 14.6958C20.5611 15.3682 20.4667 16.0845 20.1187 16.6873C19.7707 17.2901 19.1975 17.73 18.5251 17.9103C17.8528 18.0905 17.1364 17.9964 16.5335 17.6485C15.5115 17.0585 14.3145 15.5335 13.4072 14.2167" stroke="black" stroke-width="1.5" stroke-linecap="round" stroke-linejoin="round"/>
<path d="M13.4072 9.78362C14.3145 8.46681 15.5115 6.94187 16.5335 6.35181C17.1364 6.00394 17.8528 5.90979 18.5251 6.09004C19.1974 6.27029 19.7707 6.71019 20.1187 7.31299C20.4667 7.9158 20.5611 8.63216 20.381 9.30453C20.201 9.97691 19.7612 10.5502 19.1585 10.8984C18.1365 11.4885 16.2174 11.7627 14.6233 11.89" stroke="black" stroke-width="1.5" stroke-linecap="round" stroke-linejoin="round"/>
</svg>
