<svg width="24" height="24" viewBox="0 0 24 24" fill="none" xmlns="http://www.w3.org/2000/svg">
<path d="M17.3033 17.3033C13.4099 21.1967 8.00375 20.8863 5.40433 20.4461C4.94188 20.3682 4.51519 20.1481 4.18357 19.8164C3.85195 19.4848 3.63185 19.0581 3.55386 18.5957C3.11367 15.9963 2.80335 10.5901 6.6967 6.6967C10.5901 2.80335 15.9963 3.11367 18.5957 3.55386C19.0581 3.63185 19.4848 3.85195 19.8164 4.18357C20.1481 4.51519 20.3682 4.94188 20.4461 5.40433C20.8863 8.00375 21.1967 13.4099 17.3033 17.3033Z" stroke="black" stroke-width="1.5" stroke-linecap="round" stroke-linejoin="round"/>
<path d="M15 9L9 15" stroke="black" stroke-width="1.5" stroke-linecap="round" stroke-linejoin="round"/>
<path d="M11.6895 9.56787L14.4321 12.3105" stroke="black" stroke-width="1.5" stroke-linecap="round" stroke-linejoin="round"/>
<path d="M9.56836 11.6895L12.311 14.4321" stroke="black" stroke-width="1.5" stroke-linecap="round" stroke-linejoin="round"/>
<path d="M13.8965 3.396L20.6044 10.104" stroke="black" stroke-width="1.5" stroke-linecap="round" stroke-linejoin="round"/>
<path d="M3.39648 13.896L10.1045 20.604" stroke="black" stroke-width="1.5" stroke-linecap="round" stroke-linejoin="round"/>
</svg>
