<svg width="24" height="24" viewBox="0 0 24 24" fill="none" xmlns="http://www.w3.org/2000/svg">
<path d="M12 16.5C14.4853 16.5 16.5 14.4853 16.5 12C16.5 9.51472 14.4853 7.5 12 7.5C9.51472 7.5 7.5 9.51472 7.5 12C7.5 14.4853 9.51472 16.5 12 16.5Z" stroke="black" stroke-width="1.5" stroke-linecap="round" stroke-linejoin="round"/>
<path d="M17.2181 6.10177C17.4583 6.31443 17.6854 6.54148 17.898 6.78166L20.4595 7.14743C20.8749 7.87075 21.1951 8.64467 21.4123 9.45001L19.8604 11.5192C19.8604 11.5192 19.8799 12.1604 19.8604 12.4806L21.413 14.5505C21.1953 15.3557 20.8745 16.1294 20.4586 16.8524L17.898 17.2182C17.898 17.2182 17.4584 17.6854 17.2183 17.898L16.8525 20.4595C16.1292 20.8749 15.3552 21.1951 14.5499 21.4123L12.4808 19.8604C12.1606 19.8799 11.8395 19.8799 11.5193 19.8604L9.44944 21.413C8.64425 21.1953 7.87054 20.8745 7.1475 20.4586L6.7818 17.8981C6.54162 17.6855 6.31457 17.4584 6.10191 17.2183L3.54044 16.8525C3.12505 16.1292 2.80479 15.3552 2.58759 14.5499L4.13957 12.4807C4.13957 12.4807 4.12005 11.8395 4.13951 11.5193L2.58691 9.44944C2.80466 8.64425 3.12545 7.87054 3.54132 7.1475L6.10177 6.7818C6.31443 6.54161 6.54148 6.31457 6.78166 6.10191L7.14743 3.54044C7.87075 3.12505 8.64467 2.80479 9.45001 2.58759L11.5191 4.13951C11.8393 4.12005 12.1604 4.12005 12.4806 4.13951L14.5505 2.58691C15.3557 2.80466 16.1294 3.12545 16.8524 3.54132L17.2181 6.10177Z" stroke="black" stroke-width="1.5" stroke-linecap="round" stroke-linejoin="round"/>
</svg>
