<svg width="24" height="24" viewBox="0 0 24 24" fill="none" xmlns="http://www.w3.org/2000/svg">
<path d="M20.25 7.5H3.75C3.33579 7.5 3 7.83579 3 8.25V11.25C3 11.6642 3.33579 12 3.75 12H20.25C20.6642 12 21 11.6642 21 11.25V8.25C21 7.83579 20.6642 7.5 20.25 7.5Z" stroke="black" stroke-width="1.5" stroke-linecap="round" stroke-linejoin="round"/>
<path d="M19.5 12V18.75C19.5 18.9489 19.421 19.1397 19.2803 19.2803C19.1397 19.421 18.9489 19.5 18.75 19.5H5.25C5.05109 19.5 4.86032 19.421 4.71967 19.2803C4.57902 19.1397 4.5 18.9489 4.5 18.75V12" stroke="black" stroke-width="1.5" stroke-linecap="round" stroke-linejoin="round"/>
<path d="M12 7.5V19.5" stroke="black" stroke-width="1.5" stroke-linecap="round" stroke-linejoin="round"/>
<path d="M16.2426 6.43921C15.182 7.49987 12 7.49987 12 7.49987C12 7.49987 12 4.31789 13.0607 3.25723C13.4827 2.83567 14.0549 2.59895 14.6514 2.59912C15.2479 2.59929 15.8199 2.83633 16.2417 3.25813C16.6635 3.67993 16.9006 4.25197 16.9007 4.84848C16.9009 5.445 16.6642 6.01717 16.2426 6.43921V6.43921Z" stroke="black" stroke-width="1.5" stroke-linecap="round" stroke-linejoin="round"/>
<path d="M7.75771 6.43921C8.81837 7.49987 12.0004 7.49987 12.0004 7.49987C12.0004 7.49987 12.0004 4.31789 10.9397 3.25723C10.5177 2.83567 9.94548 2.59895 9.34897 2.59912C8.75245 2.59929 8.18042 2.83633 7.75862 3.25813C7.33682 3.67993 7.09978 4.25197 7.09961 4.84848C7.09944 5.445 7.33615 6.01717 7.75771 6.43921V6.43921Z" stroke="black" stroke-width="1.5" stroke-linecap="round" stroke-linejoin="round"/>
</svg>
