<svg width="24" height="24" viewBox="0 0 24 24" fill="none" xmlns="http://www.w3.org/2000/svg">
<path d="M7.78102 10.5H16.2185L18.3383 4.84733C18.3662 4.77292 18.417 4.70929 18.4834 4.66563C18.5498 4.62198 18.6284 4.60056 18.7078 4.60446C18.7872 4.60836 18.8633 4.63738 18.9251 4.68733C18.9869 4.73728 19.0313 4.80559 19.0517 4.88238L21.6139 14.4904C21.6537 14.6396 21.6464 14.7975 21.5931 14.9424C21.5398 15.0874 21.4431 15.2123 21.3161 15.3003L12.4267 21.4545C12.3012 21.5413 12.1523 21.5878 11.9998 21.5878C11.8472 21.5878 11.6983 21.5413 11.5729 21.4545L2.68344 15.3003C2.55646 15.2123 2.45972 15.0874 2.40642 14.9424C2.35313 14.7975 2.34588 14.6396 2.38568 14.4904L4.9478 4.88238C4.96828 4.80559 5.01263 4.73728 5.07444 4.68733C5.13626 4.63738 5.21235 4.60836 5.29174 4.60446C5.37112 4.60056 5.44969 4.62198 5.51611 4.66564C5.58252 4.70929 5.63335 4.77292 5.66126 4.84734L7.78102 10.5Z" stroke="black" stroke-width="1.5" stroke-linecap="round" stroke-linejoin="round"/>
</svg>
