<svg width="24" height="24" viewBox="0 0 24 24" fill="none" xmlns="http://www.w3.org/2000/svg">
<path d="M3.73242 21.0135C3.73489 21.1446 3.7716 21.2728 3.8389 21.3853C3.9062 21.4978 4.00176 21.5907 4.11608 21.6549C4.2304 21.7191 4.35952 21.7522 4.49062 21.7511C4.62171 21.7499 4.75022 21.7145 4.8634 21.6483L20.5981 12.6417C20.7142 12.5795 20.8113 12.487 20.879 12.374C20.9467 12.261 20.9824 12.1318 20.9824 12.0001C20.9824 11.8683 20.9467 11.7391 20.879 11.6261C20.8113 11.5131 20.7142 11.4206 20.5981 11.3584L4.8634 2.35179C4.75022 2.28562 4.62171 2.25021 4.49062 2.24905C4.35952 2.2479 4.2304 2.28105 4.11608 2.34522C4.00176 2.40938 3.9062 2.50233 3.8389 2.61484C3.7716 2.72734 3.73489 2.85549 3.73242 2.98657V21.0135Z" stroke="black" stroke-width="1.5" stroke-linecap="round" stroke-linejoin="round"/>
<path d="M3.95996 2.45947L16.4925 14.9921" stroke="black" stroke-width="1.5" stroke-linecap="round" stroke-linejoin="round"/>
<path d="M3.95996 21.5403L16.4925 9.00781" stroke="black" stroke-width="1.5" stroke-linecap="round" stroke-linejoin="round"/>
</svg>
