<svg width="24" height="24" viewBox="0 0 24 24" fill="none" xmlns="http://www.w3.org/2000/svg">
<path d="M12 9.75C12 10.3467 11.7629 10.919 11.341 11.341C10.919 11.7629 10.3467 12 9.75 12C9.15326 12 8.58097 11.7629 8.15901 11.341C7.73705 10.919 7.5 10.3467 7.5 9.75V6C7.5 5.40326 7.73705 4.83097 8.15901 4.40901C8.58097 3.98705 9.15326 3.75 9.75 3.75C10.3467 3.75 10.919 3.98705 11.341 4.40901C11.7629 4.83097 12 5.40326 12 6V9.75Z" stroke="black" stroke-width="1.5" stroke-linecap="round" stroke-linejoin="round"/>
<path d="M12 6C12 5.40326 12.2371 4.83097 12.659 4.40901C13.081 3.98705 13.6533 3.75 14.25 3.75C14.8467 3.75 15.419 3.98705 15.841 4.40901C16.2629 4.83097 16.5 5.40326 16.5 6V8.25" stroke="black" stroke-width="1.5" stroke-linecap="round" stroke-linejoin="round"/>
<path d="M12 16.5C12 15.5054 12.3951 14.5516 13.0983 13.8483C13.8016 13.1451 14.7554 12.75 15.75 12.75H14.25C13.6533 12.75 13.081 12.5129 12.659 12.091C12.2371 11.669 12 11.0967 12 10.5V9C12 8.80109 12.079 8.61032 12.2197 8.46967C12.3603 8.32902 12.5511 8.25 12.75 8.25H18.75C19.3467 8.25 19.919 8.48705 20.341 8.90901C20.7629 9.33097 21 9.90326 21 10.5V12C21 14.3869 20.0518 16.6761 18.364 18.364C16.6761 20.0518 14.3869 21 12 21C9.61305 21 7.32387 20.0518 5.63604 18.364C3.94821 16.6761 3 14.3869 3 12V8.25C3 7.65326 3.23705 7.08097 3.65901 6.65901C4.08097 6.23705 4.65326 6 5.25 6C5.84674 6 6.41903 6.23705 6.84099 6.65901C7.26295 7.08097 7.5 7.65326 7.5 8.25V9.75C7.5 10.3467 7.26295 10.919 6.84099 11.341C6.41903 11.7629 5.84674 12 5.25 12C4.65326 12 4.08097 11.7629 3.65901 11.341C3.23705 10.919 3 10.3467 3 9.75" stroke="black" stroke-width="1.5" stroke-linecap="round" stroke-linejoin="round"/>
</svg>
