<svg width="24" height="24" viewBox="0 0 24 24" fill="none" xmlns="http://www.w3.org/2000/svg">
<path d="M19.5 13.5H4.5C4.08579 13.5 3.75 13.8358 3.75 14.25V18.75C3.75 19.1642 4.08579 19.5 4.5 19.5H19.5C19.9142 19.5 20.25 19.1642 20.25 18.75V14.25C20.25 13.8358 19.9142 13.5 19.5 13.5Z" stroke="black" stroke-width="1.5" stroke-linecap="round" stroke-linejoin="round"/>
<path d="M19.5 4.5H4.5C4.08579 4.5 3.75 4.83579 3.75 5.25V9.75C3.75 10.1642 4.08579 10.5 4.5 10.5H19.5C19.9142 10.5 20.25 10.1642 20.25 9.75V5.25C20.25 4.83579 19.9142 4.5 19.5 4.5Z" stroke="black" stroke-width="1.5" stroke-linecap="round" stroke-linejoin="round"/>
<path d="M16.875 8.4375C17.3928 8.4375 17.8125 8.01777 17.8125 7.5C17.8125 6.98223 17.3928 6.5625 16.875 6.5625C16.3572 6.5625 15.9375 6.98223 15.9375 7.5C15.9375 8.01777 16.3572 8.4375 16.875 8.4375Z" fill="black"/>
<path d="M16.875 17.4375C17.3928 17.4375 17.8125 17.0178 17.8125 16.5C17.8125 15.9822 17.3928 15.5625 16.875 15.5625C16.3572 15.5625 15.9375 15.9822 15.9375 16.5C15.9375 17.0178 16.3572 17.4375 16.875 17.4375Z" fill="black"/>
</svg>
