<svg width="24" height="24" viewBox="0 0 24 24" fill="none" xmlns="http://www.w3.org/2000/svg">
<path d="M15.75 7.5H22.5" stroke="black" stroke-width="1.5" stroke-linecap="round" stroke-linejoin="round"/>
<path d="M15.75 16.5H22.5" stroke="black" stroke-width="1.5" stroke-linecap="round" stroke-linejoin="round"/>
<path d="M15.75 10.5H22.5" stroke="black" stroke-width="1.5" stroke-linecap="round" stroke-linejoin="round"/>
<path d="M15.75 13.5H22.5" stroke="black" stroke-width="1.5" stroke-linecap="round" stroke-linejoin="round"/>
<path d="M8.25001 18.75C7.35928 18.75 6.47736 18.5737 5.65508 18.2313C4.8328 17.8889 4.08642 17.3871 3.45897 16.7548C2.83152 16.1226 2.33541 15.3725 1.99923 14.5476C1.66304 13.7228 1.49344 12.8395 1.50019 11.9488C1.52779 8.227 4.61282 5.25 8.33474 5.25H12C12.1989 5.25 12.3897 5.32902 12.5303 5.46967C12.671 5.61032 12.75 5.80109 12.75 6V18C12.75 18.1989 12.671 18.3897 12.5303 18.5303C12.3897 18.671 12.1989 18.75 12 18.75H8.25001Z" stroke="black" stroke-width="1.5" stroke-linecap="round" stroke-linejoin="round"/>
</svg>
