<svg width="24" height="24" viewBox="0 0 24 24" fill="none" xmlns="http://www.w3.org/2000/svg">
<path d="M5.56055 3.75H18.4392C18.5876 3.75 18.7326 3.79399 18.8559 3.8764C18.9792 3.95881 19.0754 4.07594 19.1321 4.21299C19.1889 4.35003 19.2038 4.50083 19.1748 4.64632C19.1459 4.7918 19.0744 4.92544 18.9696 5.03033L11.9999 12L5.03022 5.03033C4.92533 4.92544 4.8539 4.7918 4.82496 4.64632C4.79602 4.50083 4.81087 4.35003 4.86764 4.21299C4.9244 4.07594 5.02053 3.95881 5.14387 3.8764C5.26721 3.79399 5.41221 3.75 5.56055 3.75Z" stroke="black" stroke-width="1.5" stroke-linecap="round" stroke-linejoin="round"/>
<path d="M5.56055 20.25H18.4392C18.5876 20.25 18.7326 20.206 18.8559 20.1236C18.9792 20.0412 19.0754 19.9241 19.1321 19.787C19.1889 19.65 19.2038 19.4992 19.1748 19.3537C19.1459 19.2082 19.0744 19.0746 18.9696 18.9697L11.9999 12L5.03022 18.9697C4.92533 19.0746 4.8539 19.2082 4.82496 19.3537C4.79602 19.4992 4.81087 19.65 4.86764 19.787C4.9244 19.9241 5.02053 20.0412 5.14387 20.1236C5.26721 20.206 5.41221 20.25 5.56055 20.25Z" stroke="black" stroke-width="1.5" stroke-linecap="round" stroke-linejoin="round"/>
<path d="M6.75 6.75H17.25" stroke="black" stroke-width="1.5" stroke-linecap="round" stroke-linejoin="round"/>
</svg>
