<svg width="24" height="24" viewBox="0 0 24 24" fill="none" xmlns="http://www.w3.org/2000/svg">
<path d="M11.4693 6.6968L13.3255 4.84065C13.7085 4.45731 14.1632 4.15319 14.6638 3.94565C15.1643 3.73811 15.7008 3.63123 16.2427 3.6311C16.7846 3.63098 17.3211 3.73761 17.8218 3.94492C18.3224 4.15222 18.7773 4.45613 19.1605 4.83929C19.5436 5.22244 19.8475 5.67734 20.0548 6.17798C20.2621 6.67862 20.3688 7.2152 20.3687 7.75706C20.3685 8.29893 20.2616 8.83546 20.0541 9.336C19.8466 9.83655 19.5424 10.2913 19.1591 10.6743L16.5075 13.3259C16.1244 13.709 15.6697 14.0128 15.1692 14.2201C14.6687 14.4274 14.1323 14.5341 13.5906 14.5341C13.0489 14.5341 12.5125 14.4274 12.0121 14.2201C11.5116 14.0128 11.0569 13.709 10.6738 13.3259" stroke="black" stroke-width="1.5" stroke-linecap="round" stroke-linejoin="round"/>
<path d="M12.5302 17.3034L10.674 19.1595C10.2911 19.5429 9.8363 19.847 9.33576 20.0545C8.83521 20.2621 8.29868 20.3689 7.75682 20.3691C7.21496 20.3692 6.67838 20.2626 6.17773 20.0553C5.67709 19.848 5.2222 19.544 4.83904 19.1609C4.45589 18.7777 4.15198 18.3228 3.94467 17.8222C3.73737 17.3216 3.63073 16.785 3.63086 16.2431C3.63099 15.7012 3.73787 15.1647 3.94541 14.6642C4.15295 14.1636 4.45707 13.7089 4.8404 13.3259L7.49205 10.6742C7.87509 10.2912 8.32983 9.98736 8.8303 9.78006C9.33077 9.57276 9.86717 9.46606 10.4089 9.46606C10.9506 9.46606 11.487 9.57276 11.9874 9.78006C12.4879 9.98736 12.9426 10.2912 13.3257 10.6742" stroke="black" stroke-width="1.5" stroke-linecap="round" stroke-linejoin="round"/>
</svg>
