<svg width="24" height="24" viewBox="0 0 24 24" fill="none" xmlns="http://www.w3.org/2000/svg">
<path d="M7.5 11.9993H16.5" stroke="black" stroke-width="1.5" stroke-linecap="round" stroke-linejoin="round"/>
<path d="M9.74902 16.4995H5.99902C4.80555 16.4995 3.66096 16.0254 2.81704 15.1815C1.97313 14.3376 1.49902 13.193 1.49902 11.9995C1.49902 10.806 1.97313 9.66144 2.81704 8.81753C3.66096 7.97362 4.80555 7.49951 5.99902 7.49951H9.74902" stroke="black" stroke-width="1.5" stroke-linecap="round" stroke-linejoin="round"/>
<path d="M14.25 16.4995H18C19.1935 16.4995 20.3381 16.0254 21.182 15.1815C22.0259 14.3376 22.5 13.193 22.5 11.9995C22.5 10.806 22.0259 9.66144 21.182 8.81753C20.3381 7.97362 19.1935 7.49951 18 7.49951H14.25" stroke="black" stroke-width="1.5" stroke-linecap="round" stroke-linejoin="round"/>
</svg>
