<svg width="24" height="24" viewBox="0 0 24 24" fill="none" xmlns="http://www.w3.org/2000/svg">
<path d="M4.5 10.5L19.5 10.5C19.9142 10.5 20.25 10.1642 20.25 9.75L20.25 6C20.25 5.58579 19.9142 5.25 19.5 5.25L4.5 5.25C4.08579 5.25 3.75 5.58579 3.75 6L3.75 9.75C3.75 10.1642 4.08579 10.5 4.5 10.5Z" stroke="black" stroke-width="1.5" stroke-linecap="round" stroke-linejoin="round"/>
<path d="M4.5 18.75L19.5 18.75C19.9142 18.75 20.25 18.4142 20.25 18L20.25 14.25C20.25 13.8358 19.9142 13.5 19.5 13.5L4.5 13.5C4.08579 13.5 3.75 13.8358 3.75 14.25L3.75 18C3.75 18.4142 4.08579 18.75 4.5 18.75Z" stroke="black" stroke-width="1.5" stroke-linecap="round" stroke-linejoin="round"/>
</svg>
