<svg width="24" height="24" viewBox="0 0 24 24" fill="none" xmlns="http://www.w3.org/2000/svg">
<path d="M9.75 12H20.2499" stroke="black" stroke-width="1.5" stroke-linecap="round" stroke-linejoin="round"/>
<path d="M9.75 6H20.2499" stroke="black" stroke-width="1.5" stroke-linecap="round" stroke-linejoin="round"/>
<path d="M9.75 18H20.25" stroke="black" stroke-width="1.5" stroke-linecap="round" stroke-linejoin="round"/>
<path d="M3.75 5.625L5.25 4.875V10.1244" stroke="black" stroke-width="1.5" stroke-linecap="round" stroke-linejoin="round"/>
<path d="M3.85314 14.3017C3.92441 14.133 4.03016 13.9812 4.16359 13.8559C4.29703 13.7305 4.4552 13.6345 4.62795 13.5739C4.8007 13.5134 4.98422 13.4896 5.1667 13.5042C5.34918 13.5187 5.5266 13.5713 5.68756 13.6585C5.84853 13.7457 5.98947 13.8656 6.10135 14.0105C6.21322 14.1554 6.29355 14.3221 6.33718 14.4999C6.38081 14.6776 6.38677 14.8626 6.35468 15.0428C6.32259 15.2231 6.25316 15.3946 6.15084 15.5464L3.75 18.7501H6.375" stroke="black" stroke-width="1.5" stroke-linecap="round" stroke-linejoin="round"/>
</svg>
