<svg width="24" height="24" viewBox="0 0 24 24" fill="none" xmlns="http://www.w3.org/2000/svg">
<path d="M11.9335 8.90901C12.3502 8.49238 12.9136 8.2558 13.5028 8.2501C14.0919 8.24441 14.6599 8.47005 15.0845 8.87854C15.9932 9.75343 15.9717 11.2349 15.0797 12.1268L8.79689 18.2198C8.72549 18.289 8.66858 18.3718 8.62946 18.4632C8.59035 18.5547 8.56981 18.653 8.56905 18.7524C8.56828 18.8519 8.58731 18.9505 8.62502 19.0425C8.66273 19.1346 8.71837 19.2182 8.7887 19.2885L11.475 21.9748C11.6148 22.1146 11.804 22.1935 12.0017 22.1945C12.1993 22.1955 12.3893 22.1184 12.5304 21.98L18.7613 15.8699C21.6855 12.9457 21.7704 8.18287 18.8679 5.23706C18.1734 4.53195 17.3462 3.97127 16.434 3.58734C15.5218 3.2034 14.5427 3.00381 13.553 3.00005C12.5633 2.9963 11.5826 3.18847 10.6675 3.56548C9.75246 3.94248 8.92105 4.49688 8.22123 5.1967L2.02407 11.4697C1.88483 11.6106 1.80702 11.8009 1.80762 11.9991C1.80822 12.1972 1.88719 12.387 2.02729 12.5271L4.71362 15.2135C4.78379 15.2836 4.86718 15.3392 4.95896 15.3769C5.05075 15.4146 5.1491 15.4337 5.24832 15.4331C5.34755 15.4325 5.44567 15.4123 5.53701 15.3735C5.62835 15.3347 5.71109 15.2782 5.78043 15.2072L11.9335 8.90901Z" stroke="black" stroke-width="1.5" stroke-linecap="round" stroke-linejoin="round"/>
<path d="M11.8848 15.2246L15.6149 18.9547" stroke="black" stroke-width="1.5" stroke-linecap="round" stroke-linejoin="round"/>
<path d="M5.05859 8.39795L8.78864 12.128" stroke="black" stroke-width="1.5" stroke-linecap="round" stroke-linejoin="round"/>
</svg>
