<svg width="24" height="24" viewBox="0 0 24 24" fill="none" xmlns="http://www.w3.org/2000/svg">
<path d="M21 11.625V5.25H3V18C3 18.1989 3.07902 18.3897 3.21967 18.5303C3.36032 18.671 3.55109 18.75 3.75 18.75H13.125" stroke="black" stroke-width="1.5" stroke-linecap="round" stroke-linejoin="round"/>
<path d="M21 5.25L12 13.5L3 5.25" stroke="black" stroke-width="1.5" stroke-linecap="round" stroke-linejoin="round"/>
<path d="M18.9409 20.253L21.1232 21.6909C21.4021 21.8747 21.7485 21.6013 21.6657 21.2627L21.0352 18.6832C21.0174 18.6113 21.0195 18.5357 21.0412 18.4651C21.063 18.3944 21.1034 18.3316 21.1579 18.2838L23.1149 16.5898C23.372 16.3672 23.2393 15.9234 22.909 15.9011L20.3533 15.7286C20.2845 15.7235 20.2184 15.6982 20.1629 15.6555C20.1074 15.6129 20.0647 15.5547 20.0397 15.4878L19.0865 12.9915C19.0606 12.9205 19.0146 12.8594 18.9545 12.8162C18.8943 12.7731 18.823 12.75 18.75 12.75C18.677 12.75 18.6057 12.7731 18.5455 12.8162C18.4854 12.8594 18.4394 12.9205 18.4135 12.9915L17.4603 15.4878C17.4353 15.5547 17.3926 15.6129 17.3371 15.6555C17.2816 15.6982 17.2155 15.7235 17.1467 15.7286L14.591 15.9011C14.2607 15.9234 14.128 16.3672 14.3851 16.5898L16.3421 18.2838C16.3966 18.3316 16.437 18.3944 16.4588 18.4651C16.4805 18.5357 16.4826 18.6113 16.4648 18.6832L15.8801 21.0754C15.7808 21.4818 16.1964 21.8098 16.5311 21.5892L18.5591 20.253C18.6162 20.2152 18.6824 20.1952 18.75 20.1952C18.8176 20.1952 18.8838 20.2152 18.9409 20.253V20.253Z" stroke="black" stroke-width="1.5" stroke-linecap="round" stroke-linejoin="round"/>
</svg>
