<svg width="24" height="24" viewBox="0 0 24 24" fill="none" xmlns="http://www.w3.org/2000/svg">
<path d="M12 18.75V21.75" stroke="black" stroke-width="1.5" stroke-linecap="round" stroke-linejoin="round"/>
<path d="M4.5 3.75L19.5 20.25" stroke="black" stroke-width="1.5" stroke-linecap="round" stroke-linejoin="round"/>
<path d="M14.5225 14.7748C13.833 15.4035 12.9331 15.7513 12 15.75H12C11.0054 15.75 10.0516 15.3549 9.34835 14.6517C8.64509 13.9484 8.25 12.9946 8.25 12V7.875" stroke="black" stroke-width="1.5" stroke-linecap="round" stroke-linejoin="round"/>
<path d="M16.5404 16.9946C15.62 17.8313 14.4863 18.3974 13.2645 18.6304C12.0428 18.8635 10.7803 18.7545 9.61657 18.3154C8.45283 17.8762 7.43303 17.1242 6.66973 16.1421C5.90643 15.16 5.42931 13.9861 5.29102 12.75" stroke="black" stroke-width="1.5" stroke-linecap="round" stroke-linejoin="round"/>
<path d="M18.7091 12.75C18.6295 13.4726 18.4328 14.1774 18.127 14.8369" stroke="black" stroke-width="1.5" stroke-linecap="round" stroke-linejoin="round"/>
<path d="M8.80859 4.02978C9.14445 3.48544 9.61403 3.03612 10.1726 2.72458C10.7313 2.41305 11.3603 2.24967 11.9999 2.25H11.9999C12.4924 2.25 12.98 2.347 13.435 2.53545C13.89 2.72391 14.3034 3.00013 14.6516 3.34835C14.9998 3.69657 15.276 4.10996 15.4645 4.56493C15.6529 5.0199 15.7499 5.50754 15.7499 5.99999V11.6652" stroke="black" stroke-width="1.5" stroke-linecap="round" stroke-linejoin="round"/>
</svg>
