<svg width="24" height="24" viewBox="0 0 24 24" fill="none" xmlns="http://www.w3.org/2000/svg">
<path d="M12 21C16.9706 21 21 16.9706 21 12C21 7.02944 16.9706 3 12 3C7.02944 3 3 7.02944 3 12C3 16.9706 7.02944 21 12 21Z" stroke="black" stroke-width="1.5" stroke-linecap="round" stroke-linejoin="round"/>
<path d="M9.75 7.87402H14.25L11.6256 11.6248C12.0573 11.6248 12.4823 11.7312 12.863 11.9347C13.2437 12.1382 13.5684 12.4325 13.8082 12.7914C14.048 13.1503 14.1956 13.5629 14.238 13.9925C14.2803 14.4221 14.216 14.8555 14.0508 15.2543C13.8856 15.6531 13.6246 16.0051 13.2909 16.2789C12.9572 16.5528 12.5611 16.7401 12.1377 16.8243C11.7143 16.9085 11.2767 16.887 10.8636 16.7617C10.4505 16.6364 10.0747 16.4112 9.76944 16.1059" stroke="black" stroke-width="1.5" stroke-linecap="round" stroke-linejoin="round"/>
</svg>
