<svg width="24" height="24" viewBox="0 0 24 24" fill="none" xmlns="http://www.w3.org/2000/svg">
<path d="M11.3347 3.41846L2.46672 19.2542C2.39211 19.3875 2.35994 19.5403 2.37452 19.6923C2.38909 19.8443 2.44971 19.9882 2.54827 20.1048C2.64683 20.2214 2.77864 20.3052 2.92608 20.3449C3.07351 20.3846 3.22956 20.3783 3.37335 20.327L11.7369 17.34C11.9 17.2818 12.0783 17.2818 12.2414 17.34L20.6049 20.327C20.7487 20.3783 20.9048 20.3846 21.0522 20.3449C21.1996 20.3052 21.3314 20.2214 21.43 20.1048C21.5286 19.9882 21.5892 19.8443 21.6037 19.6923C21.6183 19.5403 21.5862 19.3874 21.5116 19.2542L12.6435 3.41846C12.5784 3.30214 12.4834 3.20528 12.3684 3.13787C12.2534 3.07045 12.1224 3.03491 11.9891 3.03491C11.8558 3.03491 11.7249 3.07045 11.6099 3.13787C11.4949 3.20528 11.3999 3.30214 11.3347 3.41846V3.41846Z" stroke="black" stroke-width="1.5" stroke-linecap="round" stroke-linejoin="round"/>
<path d="M11.9893 17.25V11.25" stroke="black" stroke-width="1.5" stroke-linecap="round" stroke-linejoin="round"/>
</svg>
