<svg width="24" height="24" viewBox="0 0 24 24" fill="none" xmlns="http://www.w3.org/2000/svg">
<path d="M12.001 14.2505V23.2505" stroke="black" stroke-width="1.5" stroke-linecap="round" stroke-linejoin="round"/>
<path d="M12.001 14.2505C13.0365 14.2505 13.876 13.411 13.876 12.3755C13.876 11.34 13.0365 10.5005 12.001 10.5005C10.9654 10.5005 10.126 11.34 10.126 12.3755C10.126 13.411 10.9654 14.2505 12.001 14.2505Z" stroke="black" stroke-width="1.5" stroke-linecap="round" stroke-linejoin="round"/>
<path d="M6.75098 6.75024V3.00024C6.75098 2.80133 6.82999 2.61057 6.97065 2.46991C7.1113 2.32926 7.30206 2.25024 7.50098 2.25024H16.501C16.6999 2.25024 16.8907 2.32926 17.0313 2.46991C17.172 2.61057 17.251 2.80133 17.251 3.00024V6.75024" stroke="black" stroke-width="1.5" stroke-linecap="round" stroke-linejoin="round"/>
<path d="M6.75055 6.75024L4.18306 11.9469C4.12214 12.0702 4.09629 12.2079 4.10836 12.3449C4.12043 12.4819 4.16994 12.613 4.25148 12.7237L12.0006 23.2502L19.7496 12.7237C19.8311 12.6129 19.8806 12.4819 19.8927 12.3449C19.9048 12.2078 19.8789 12.0702 19.818 11.9468L17.2506 6.75024H6.75055Z" stroke="black" stroke-width="1.5" stroke-linecap="round" stroke-linejoin="round"/>
</svg>
