<svg width="24" height="24" viewBox="0 0 24 24" fill="none" xmlns="http://www.w3.org/2000/svg">
<path d="M11.25 8.25L8.25 21" stroke="black" stroke-width="1.5" stroke-linecap="round" stroke-linejoin="round"/>
<path d="M5.76947 14.6769C5.11704 13.7037 4.70167 12.5912 4.55668 11.4285C4.41168 10.2658 4.54109 9.08539 4.93453 7.98177C5.32796 6.87814 5.97448 5.88203 6.82226 5.07329C7.67005 4.26456 8.69551 3.66569 9.81645 3.32469C10.9374 2.98368 12.1226 2.91004 13.2772 3.10965C14.4317 3.30926 15.5234 3.77658 16.4648 4.47415C17.4062 5.17171 18.171 6.08012 18.698 7.12655C19.2251 8.17299 19.4996 9.32834 19.4997 10.5C19.4997 14.6421 16.4997 17.25 13.4997 17.25C10.4997 17.25 9.59672 15.275 9.59672 15.275" stroke="black" stroke-width="1.5" stroke-linecap="round" stroke-linejoin="round"/>
</svg>
