<svg width="24" height="24" viewBox="0 0 24 24" fill="none" xmlns="http://www.w3.org/2000/svg">
<path d="M8.25 15.75L4.5 19.5" stroke="black" stroke-width="1.5" stroke-linecap="round" stroke-linejoin="round"/>
<path d="M14.4699 2.78022L8.62519 8.62489C8.62519 8.62489 6.02419 7.32439 3.24405 9.56712C3.16196 9.6332 3.09468 9.71583 3.0466 9.80962C2.99852 9.9034 2.97071 10.0063 2.96498 10.1115C2.95925 10.2167 2.97572 10.322 3.01333 10.4205C3.05093 10.5189 3.10884 10.6084 3.18327 10.683L13.2986 20.7983C13.3743 20.8742 13.4655 20.933 13.5659 20.9707C13.6664 21.0083 13.7737 21.024 13.8807 21.0166C13.9877 21.0092 14.0919 20.9789 14.1862 20.9278C14.2805 20.8767 14.3627 20.8059 14.4273 20.7203C15.2142 19.6744 16.4501 17.5247 15.3752 15.3749L21.2199 9.53022C21.3605 9.38956 21.4395 9.1988 21.4395 8.99989C21.4395 8.80098 21.3605 8.61021 21.2199 8.46956L15.5305 2.78022C15.3899 2.63956 15.1991 2.56055 15.0002 2.56055C14.8013 2.56055 14.6105 2.63956 14.4699 2.78022V2.78022Z" stroke="black" stroke-width="1.5" stroke-linecap="round" stroke-linejoin="round"/>
</svg>
