<svg width="24" height="24" viewBox="0 0 24 24" fill="none" xmlns="http://www.w3.org/2000/svg">
<path d="M5.99954 20.25C5.90105 20.25 5.80352 20.2306 5.71253 20.1929C5.62153 20.1552 5.53885 20.1 5.46921 20.0303C5.39957 19.9607 5.34432 19.878 5.30663 19.787C5.26894 19.696 5.24954 19.5985 5.24954 19.5L5.24959 15.4974C4.84949 15.6869 4.40796 15.7721 3.96607 15.7451C3.52419 15.7182 3.0963 15.5799 2.72221 15.3431C2.34812 15.1064 2.03998 14.7789 1.82646 14.3911C1.61294 14.0032 1.50098 13.5677 1.50098 13.125C1.50098 12.6823 1.61294 12.2468 1.82646 11.859C2.03998 11.4712 2.34812 11.1436 2.72221 10.9069C3.0963 10.6702 3.52419 10.5319 3.96607 10.5049C4.40796 10.4779 4.84949 10.5632 5.24959 10.7527L5.24954 6.75003C5.24954 6.65154 5.26894 6.55401 5.30663 6.46301C5.34432 6.37202 5.39957 6.28934 5.46922 6.21969C5.53886 6.15005 5.62154 6.0948 5.71254 6.05711C5.80353 6.01942 5.90106 6.00002 5.99956 6.00002L10.3772 6.00007C10.1877 5.59997 10.1024 5.15844 10.1294 4.71656C10.1564 4.27467 10.2947 3.84678 10.5314 3.47269C10.7682 3.09861 11.0957 2.79047 11.4835 2.57695C11.8713 2.36343 12.3068 2.25146 12.7495 2.25146C13.1922 2.25146 13.6278 2.36343 14.0156 2.57695C14.4034 2.79047 14.7309 3.09861 14.9676 3.47269C15.2044 3.84678 15.3427 4.27467 15.3696 4.71656C15.3966 5.15844 15.3114 5.59997 15.1219 6.00007L19.4995 6.00002C19.6984 6.00002 19.8892 6.07904 20.0298 6.21969C20.1705 6.36034 20.2495 6.5511 20.2495 6.75001L20.2496 10.7527C19.8495 10.5632 19.4079 10.4779 18.966 10.5049C18.5241 10.5319 18.0963 10.6702 17.7222 10.9069C17.3481 11.1436 17.0399 11.4712 16.8264 11.859C16.6129 12.2468 16.5009 12.6823 16.5009 13.125C16.5009 13.5677 16.6129 14.0032 16.8264 14.3911C17.0399 14.7789 17.3481 15.1064 17.7222 15.3431C18.0963 15.5799 18.5241 15.7182 18.966 15.7451C19.4079 15.7721 19.8495 15.6869 20.2496 15.4974L20.2495 19.5C20.2495 19.6989 20.1705 19.8897 20.0298 20.0304C19.8892 20.171 19.6984 20.25 19.4995 20.25L5.99954 20.25Z" stroke="black" stroke-width="1.5" stroke-linecap="round" stroke-linejoin="round"/>
</svg>
