<svg width="24" height="24" viewBox="0 0 24 24" fill="none" xmlns="http://www.w3.org/2000/svg">
<path d="M14.25 21.75L12 19.4993L14.25 17.25" stroke="black" stroke-width="1.5" stroke-linecap="round" stroke-linejoin="round"/>
<path d="M18.2467 7.04932L17.4225 10.1233L14.3496 9.29932" stroke="black" stroke-width="1.5" stroke-linecap="round" stroke-linejoin="round"/>
<path d="M7.40207 13.1972L6.57782 10.1233L3.50488 10.9472" stroke="black" stroke-width="1.5" stroke-linecap="round" stroke-linejoin="round"/>
<path d="M12 19.4994H20.2478C20.5112 19.4994 20.77 19.43 20.9981 19.2982C21.2263 19.1664 21.4156 18.9769 21.5472 18.7486C21.6788 18.5204 21.748 18.2616 21.7478 17.9981C21.7476 17.7347 21.678 17.4759 21.546 17.2479L19.3006 13.3687" stroke="black" stroke-width="1.5" stroke-linecap="round" stroke-linejoin="round"/>
<path d="M6.57763 10.1233L2.45374 17.2479C2.32177 17.4759 2.25217 17.7347 2.25195 17.9981C2.25174 18.2616 2.32091 18.5204 2.4525 18.7487C2.5841 18.9769 2.77348 19.1664 3.0016 19.2982C3.22971 19.43 3.48851 19.4994 3.75196 19.4994H8.24972" stroke="black" stroke-width="1.5" stroke-linecap="round" stroke-linejoin="round"/>
<path d="M17.4217 10.1232L13.2978 2.99857C13.166 2.77093 12.9767 2.58193 12.7489 2.45055C12.521 2.31916 12.2626 2.25 11.9996 2.25C11.7366 2.25 11.4782 2.31916 11.2503 2.45055C11.0224 2.58193 10.8331 2.77093 10.7014 2.99857L8.45605 6.87769" stroke="black" stroke-width="1.5" stroke-linecap="round" stroke-linejoin="round"/>
</svg>
