<svg width="24" height="24" viewBox="0 0 24 24" fill="none" xmlns="http://www.w3.org/2000/svg">
<path d="M13.5 21H10.5" stroke="black" stroke-width="1.5" stroke-linecap="round" stroke-linejoin="round"/>
<path d="M11.5288 1.85266C9.74827 3.27898 3.79291 8.97851 9.00032 17.9999H15.0003C20.0995 8.9849 14.2312 3.28705 12.4693 1.85569C12.3365 1.74773 12.1708 1.68854 11.9996 1.68799C11.8285 1.68744 11.6623 1.74556 11.5288 1.85266V1.85266Z" stroke="black" stroke-width="1.5" stroke-linecap="round" stroke-linejoin="round"/>
<path d="M6.92541 10.4399L3.98633 13.9668C3.91292 14.0549 3.86069 14.1587 3.83365 14.2701C3.80661 14.3816 3.80548 14.4977 3.83036 14.6097L4.98938 19.8253C5.01701 19.9496 5.07585 20.0649 5.16034 20.1602C5.24484 20.2554 5.35221 20.3277 5.47233 20.37C5.59246 20.4123 5.72138 20.4233 5.84695 20.402C5.97252 20.3807 6.09059 20.3278 6.19004 20.2482L9.00042 17.9999" stroke="black" stroke-width="1.5" stroke-linecap="round" stroke-linejoin="round"/>
<path d="M17.0186 10.3723L20.0141 13.9669C20.0875 14.055 20.1397 14.1588 20.1668 14.2702C20.1938 14.3817 20.1949 14.4978 20.1701 14.6098L19.011 19.8254C18.9834 19.9497 18.9246 20.0649 18.8401 20.1602C18.7556 20.2555 18.6482 20.3278 18.5281 20.3701C18.408 20.4124 18.279 20.4234 18.1535 20.4021C18.0279 20.3808 17.9098 20.3279 17.8104 20.2483L15 18" stroke="black" stroke-width="1.5" stroke-linecap="round" stroke-linejoin="round"/>
<path d="M12 9.9375C12.5178 9.9375 12.9375 9.51777 12.9375 9C12.9375 8.48223 12.5178 8.0625 12 8.0625C11.4822 8.0625 11.0625 8.48223 11.0625 9C11.0625 9.51777 11.4822 9.9375 12 9.9375Z" fill="black"/>
</svg>
