<svg width="24" height="24" viewBox="0 0 24 24" fill="none" xmlns="http://www.w3.org/2000/svg">
<path d="M5.25 20.25H4.5C4.30109 20.25 4.11032 20.171 3.96967 20.0304C3.82902 19.8897 3.75 19.6989 3.75 19.5V18.75" stroke="black" stroke-width="1.5" stroke-linecap="round" stroke-linejoin="round"/>
<path d="M10.5 8.25H8.25" stroke="black" stroke-width="1.5" stroke-linecap="round" stroke-linejoin="round"/>
<path d="M10.5 20.25H9" stroke="black" stroke-width="1.5" stroke-linecap="round" stroke-linejoin="round"/>
<path d="M15.75 15.75V13.5" stroke="black" stroke-width="1.5" stroke-linecap="round" stroke-linejoin="round"/>
<path d="M3.75 15V13.5" stroke="black" stroke-width="1.5" stroke-linecap="round" stroke-linejoin="round"/>
<path d="M14.25 20.25H15C15.1989 20.25 15.3897 20.171 15.5303 20.0304C15.671 19.8897 15.75 19.6989 15.75 19.5V18.75" stroke="black" stroke-width="1.5" stroke-linecap="round" stroke-linejoin="round"/>
<path d="M14.25 8.25H15C15.1989 8.25 15.3897 8.32902 15.5303 8.46967C15.671 8.61032 15.75 8.80109 15.75 9V9.74997" stroke="black" stroke-width="1.5" stroke-linecap="round" stroke-linejoin="round"/>
<path d="M5.25 8.25H4.5C4.30109 8.25 4.11032 8.32902 3.96967 8.46967C3.82902 8.61032 3.75 8.80109 3.75 9V9.74997" stroke="black" stroke-width="1.5" stroke-linecap="round" stroke-linejoin="round"/>
<path d="M15.7501 15.7495H19.5C19.6989 15.7495 19.8897 15.6705 20.0303 15.5298C20.171 15.3892 20.25 15.1984 20.25 14.9995V4.49951C20.25 4.3006 20.171 4.10983 20.0303 3.96918C19.8897 3.82853 19.6989 3.74951 19.5 3.74951H9C8.80109 3.74951 8.61032 3.82853 8.46967 3.96918C8.32902 4.10983 8.25 4.3006 8.25 4.49951V8.25006" stroke="black" stroke-width="1.5" stroke-linecap="round" stroke-linejoin="round"/>
</svg>
