<svg width="24" height="24" viewBox="0 0 24 24" fill="none" xmlns="http://www.w3.org/2000/svg">
<path d="M15 8.24951H4.5C4.08579 8.24951 3.75 8.5853 3.75 8.99951V19.4995C3.75 19.9137 4.08579 20.2495 4.5 20.2495H15C15.4142 20.2495 15.75 19.9137 15.75 19.4995V8.99951C15.75 8.5853 15.4142 8.24951 15 8.24951Z" stroke="black" stroke-width="1.5" stroke-linecap="round" stroke-linejoin="round"/>
<path d="M15 3.75H13.5" stroke="black" stroke-width="1.5" stroke-linecap="round" stroke-linejoin="round"/>
<path d="M18.75 3.75H19.5C19.6989 3.75 19.8897 3.82902 20.0303 3.96967C20.171 4.11032 20.25 4.30109 20.25 4.5V5.24997" stroke="black" stroke-width="1.5" stroke-linecap="round" stroke-linejoin="round"/>
<path d="M20.25 10.5V9" stroke="black" stroke-width="1.5" stroke-linecap="round" stroke-linejoin="round"/>
<path d="M18.75 15.75H19.5C19.6989 15.75 19.8897 15.671 20.0303 15.5304C20.171 15.3897 20.25 15.1989 20.25 15V14.25" stroke="black" stroke-width="1.5" stroke-linecap="round" stroke-linejoin="round"/>
<path d="M9.75 3.75H9C8.80109 3.75 8.61032 3.82902 8.46967 3.96967C8.32902 4.11032 8.25 4.30109 8.25 4.5V5.24997" stroke="black" stroke-width="1.5" stroke-linecap="round" stroke-linejoin="round"/>
</svg>
