<svg width="24" height="24" viewBox="0 0 24 24" fill="none" xmlns="http://www.w3.org/2000/svg">
<path d="M5.625 22.3125C6.14277 22.3125 6.5625 21.8928 6.5625 21.375C6.5625 20.8572 6.14277 20.4375 5.625 20.4375C5.10723 20.4375 4.6875 20.8572 4.6875 21.375C4.6875 21.8928 5.10723 22.3125 5.625 22.3125Z" fill="black"/>
<path d="M8.25 19.6875C8.76777 19.6875 9.1875 19.2678 9.1875 18.75C9.1875 18.2322 8.76777 17.8125 8.25 17.8125C7.73223 17.8125 7.3125 18.2322 7.3125 18.75C7.3125 19.2678 7.73223 19.6875 8.25 19.6875Z" fill="black"/>
<path d="M2.625 19.3125C3.14277 19.3125 3.5625 18.8928 3.5625 18.375C3.5625 17.8572 3.14277 17.4375 2.625 17.4375C2.10723 17.4375 1.6875 17.8572 1.6875 18.375C1.6875 18.8928 2.10723 19.3125 2.625 19.3125Z" fill="black"/>
<path d="M5.25 16.6875C5.76777 16.6875 6.1875 16.2678 6.1875 15.75C6.1875 15.2322 5.76777 14.8125 5.25 14.8125C4.73223 14.8125 4.3125 15.2322 4.3125 15.75C4.3125 16.2678 4.73223 16.6875 5.25 16.6875Z" fill="black"/>
<path d="M23.2497 3.75H20.5603C20.4619 3.75 20.3643 3.7694 20.2733 3.80709C20.1823 3.84478 20.0997 3.90003 20.03 3.96967L17.2497 6.75L5.18725 8.76041C5.05132 8.78306 4.92426 8.84273 4.82002 8.93286C4.71578 9.02298 4.63838 9.14009 4.59633 9.27132C4.55427 9.40255 4.54918 9.54283 4.58162 9.67676C4.61406 9.81069 4.68278 9.93309 4.78022 10.0305L13.9692 19.2195C14.0666 19.3169 14.189 19.3856 14.3229 19.4181C14.4569 19.4505 14.5971 19.4454 14.7284 19.4034C14.8596 19.3613 14.9767 19.2839 15.0668 19.1797C15.157 19.0754 15.2166 18.9484 15.2393 18.8124L17.2497 6.75" stroke="black" stroke-width="1.5" stroke-linecap="round" stroke-linejoin="round"/>
</svg>
