<svg width="24" height="24" viewBox="0 0 24 24" fill="none" xmlns="http://www.w3.org/2000/svg">
<path d="M3 6.75H5.16229C6.11734 6.75 7.05859 6.97798 7.90778 7.41499C8.75698 7.852 9.48959 8.48542 10.0447 9.26257L13.9553 14.7374C14.5104 15.5146 15.243 16.148 16.0922 16.585C16.9414 17.022 17.8827 17.25 18.8377 17.25H21.75" stroke="black" stroke-width="1.5" stroke-linecap="round" stroke-linejoin="round"/>
<path d="M19.5 4.5L21.75 6.75L19.5 9" stroke="black" stroke-width="1.5" stroke-linecap="round" stroke-linejoin="round"/>
<path d="M19.5 15L21.75 17.25L19.5 19.5" stroke="black" stroke-width="1.5" stroke-linecap="round" stroke-linejoin="round"/>
<path d="M13.8438 9.41926L13.9557 9.26257C14.5108 8.48542 15.2434 7.85201 16.0926 7.41499C16.9418 6.97798 17.883 6.75 18.8381 6.75H21.7504" stroke="black" stroke-width="1.5" stroke-linecap="round" stroke-linejoin="round"/>
<path d="M3 17.2498H5.16229C6.11734 17.2498 7.05859 17.0218 7.90778 16.5848C8.75698 16.1478 9.48959 15.5144 10.0447 14.7373L10.1566 14.5806" stroke="black" stroke-width="1.5" stroke-linecap="round" stroke-linejoin="round"/>
</svg>
