<svg width="24" height="24" viewBox="0 0 24 24" fill="none" xmlns="http://www.w3.org/2000/svg">
<path d="M6.29739 11.3601L17.6091 4.44744C17.7228 4.37796 17.8529 4.34003 17.9861 4.33753C18.1194 4.33504 18.2508 4.36808 18.367 4.43326C18.4833 4.49843 18.58 4.59339 18.6473 4.70836C18.7147 4.82333 18.7502 4.95416 18.7502 5.0874V18.9128C18.7502 19.0461 18.7147 19.1769 18.6473 19.2919C18.58 19.4068 18.4833 19.5018 18.367 19.567C18.2508 19.6321 18.1194 19.6652 17.9861 19.6627C17.8529 19.6602 17.7228 19.6223 17.6091 19.5528L6.29739 12.6401C6.18776 12.5731 6.09718 12.479 6.03433 12.367C5.97148 12.2549 5.93848 12.1286 5.93848 12.0001C5.93848 11.8716 5.97148 11.7453 6.03433 11.6332C6.09718 11.5212 6.18776 11.4271 6.29739 11.3601Z" stroke="black" stroke-width="1.5" stroke-linecap="round" stroke-linejoin="round"/>
<path d="M5.25 3.75V20.25" stroke="black" stroke-width="1.5" stroke-linecap="round" stroke-linejoin="round"/>
</svg>
