<svg width="24" height="24" viewBox="0 0 24 24" fill="none" xmlns="http://www.w3.org/2000/svg">
<path d="M13.875 16.1245L3.75 16.1245" stroke="black" stroke-width="1.5" stroke-linecap="round" stroke-linejoin="round"/>
<path d="M20.25 16.1245L17.625 16.1245" stroke="black" stroke-width="1.5" stroke-linecap="round" stroke-linejoin="round"/>
<path d="M15.75 17.9995C16.7855 17.9995 17.625 17.16 17.625 16.1245C17.625 15.089 16.7855 14.2495 15.75 14.2495C14.7145 14.2495 13.875 15.089 13.875 16.1245C13.875 17.16 14.7145 17.9995 15.75 17.9995Z" stroke="black" stroke-width="1.5" stroke-linecap="round" stroke-linejoin="round"/>
<path d="M7.875 7.87459L3.75 7.87451" stroke="black" stroke-width="1.5" stroke-linecap="round" stroke-linejoin="round"/>
<path d="M20.25 7.87451L11.625 7.87459" stroke="black" stroke-width="1.5" stroke-linecap="round" stroke-linejoin="round"/>
<path d="M9.75 9.74951C10.7855 9.74951 11.625 8.91005 11.625 7.87451C11.625 6.83898 10.7855 5.99951 9.75 5.99951C8.71447 5.99951 7.875 6.83898 7.875 7.87451C7.875 8.91005 8.71447 9.74951 9.75 9.74951Z" stroke="black" stroke-width="1.5" stroke-linecap="round" stroke-linejoin="round"/>
</svg>
