<svg width="24" height="24" viewBox="0 0 24 24" fill="none" xmlns="http://www.w3.org/2000/svg">
<path d="M14.6458 20.6049C12.7274 21.1932 10.6673 21.1228 8.79347 20.4048C6.91967 19.6869 5.33991 18.3628 4.30568 16.6433C3.27146 14.9237 2.84222 12.9076 3.08631 10.9159C3.3304 8.92417 4.23378 7.07137 5.65263 5.65244C7.07149 4.23352 8.92425 3.33005 10.9159 3.08587C12.9076 2.84169 14.9238 3.27083 16.6434 4.30498C18.363 5.33912 19.6872 6.91882 20.4052 8.79258C21.1232 10.6663 21.1937 12.7264 20.6055 14.6449L14.6458 20.6049Z" stroke="black" stroke-width="1.5" stroke-linecap="round" stroke-linejoin="round"/>
<path d="M8.625 11.0625C9.14277 11.0625 9.5625 10.6428 9.5625 10.125C9.5625 9.60723 9.14277 9.1875 8.625 9.1875C8.10723 9.1875 7.6875 9.60723 7.6875 10.125C7.6875 10.6428 8.10723 11.0625 8.625 11.0625Z" fill="black"/>
<path d="M15.375 11.0625C15.8928 11.0625 16.3125 10.6428 16.3125 10.125C16.3125 9.60723 15.8928 9.1875 15.375 9.1875C14.8572 9.1875 14.4375 9.60723 14.4375 10.125C14.4375 10.6428 14.8572 11.0625 15.375 11.0625Z" fill="black"/>
<path d="M15.8978 14.2495C15.5027 14.9337 14.9344 15.5018 14.2502 15.8968C13.5659 16.2918 12.7898 16.4998 11.9997 16.4998C11.2096 16.4998 10.4335 16.2918 9.7492 15.8968C9.06494 15.5019 8.4967 14.9337 8.10156 14.2496" stroke="black" stroke-width="1.5" stroke-linecap="round" stroke-linejoin="round"/>
</svg>
