<svg width="24" height="24" viewBox="0 0 24 24" fill="none" xmlns="http://www.w3.org/2000/svg">
<path d="M12 21C16.9706 21 21 16.9706 21 12C21 7.02944 16.9706 3 12 3C7.02944 3 3 7.02944 3 12C3 16.9706 7.02944 21 12 21Z" stroke="black" stroke-width="1.5" stroke-linecap="round" stroke-linejoin="round"/>
<path d="M8.625 11.0625C9.14277 11.0625 9.5625 10.6428 9.5625 10.125C9.5625 9.60723 9.14277 9.1875 8.625 9.1875C8.10723 9.1875 7.6875 9.60723 7.6875 10.125C7.6875 10.6428 8.10723 11.0625 8.625 11.0625Z" fill="black"/>
<path d="M14.25 10.125H16.5" stroke="black" stroke-width="1.5" stroke-linecap="round" stroke-linejoin="round"/>
<path d="M15.8978 14.2495C15.5027 14.9337 14.9344 15.5018 14.2502 15.8968C13.5659 16.2918 12.7898 16.4998 11.9997 16.4998C11.2096 16.4998 10.4335 16.2918 9.7492 15.8968C9.06494 15.5019 8.4967 14.9337 8.10156 14.2496" stroke="black" stroke-width="1.5" stroke-linecap="round" stroke-linejoin="round"/>
</svg>
