<svg width="24" height="24" viewBox="0 0 24 24" fill="none" xmlns="http://www.w3.org/2000/svg">
<path d="M13.0058 16.4498L11.2042 21.3398C11.1512 21.4837 11.0553 21.6079 10.9294 21.6957C10.8036 21.7834 10.6539 21.8305 10.5004 21.8305C10.347 21.8305 10.1973 21.7834 10.0715 21.6957C9.94563 21.6079 9.84972 21.4837 9.79669 21.3398L7.99511 16.4498C7.95759 16.3479 7.89842 16.2555 7.82168 16.1787C7.74494 16.102 7.65247 16.0428 7.55063 16.0053L2.66064 14.2037C2.51669 14.1507 2.39246 14.0548 2.30471 13.9289C2.21697 13.8031 2.16992 13.6534 2.16992 13.5C2.16992 13.3465 2.21697 13.1968 2.30471 13.071C2.39246 12.9451 2.51669 12.8492 2.66064 12.7962L7.55063 10.9946C7.65247 10.9571 7.74494 10.8979 7.82168 10.8212C7.89842 10.7445 7.95759 10.652 7.99511 10.5501L9.79669 5.66015C9.84972 5.5162 9.94563 5.39197 10.0715 5.30423C10.1973 5.21648 10.347 5.16943 10.5004 5.16943C10.6539 5.16943 10.8036 5.21648 10.9294 5.30423C11.0553 5.39197 11.1512 5.5162 11.2042 5.66015L13.0058 10.5501C13.0433 10.652 13.1025 10.7445 13.1792 10.8212C13.2559 10.8979 13.3484 10.9571 13.4503 10.9946L18.3402 12.7962C18.4842 12.8492 18.6084 12.9451 18.6962 13.071C18.7839 13.1968 18.831 13.3465 18.831 13.5C18.831 13.6534 18.7839 13.8031 18.6962 13.9289C18.6084 14.0548 18.4842 14.1507 18.3402 14.2037L13.4503 16.0053C13.3484 16.0428 13.2559 16.102 13.1792 16.1787C13.1025 16.2555 13.0433 16.3479 13.0058 16.4498V16.4498Z" stroke="black" stroke-width="1.5" stroke-linecap="round" stroke-linejoin="round"/>
<path d="M16.5 1.5V6" stroke="black" stroke-width="1.5" stroke-linecap="round" stroke-linejoin="round"/>
<path d="M18.75 3.75H14.25" stroke="black" stroke-width="1.5" stroke-linecap="round" stroke-linejoin="round"/>
<path d="M21 6.75V9.75" stroke="black" stroke-width="1.5" stroke-linecap="round" stroke-linejoin="round"/>
<path d="M22.5 8.25H19.5" stroke="black" stroke-width="1.5" stroke-linecap="round" stroke-linejoin="round"/>
</svg>
