<svg width="24" height="24" viewBox="0 0 24 24" fill="none" xmlns="http://www.w3.org/2000/svg">
<path d="M20.5215 7.22705C21.1483 7.85385 21.6455 8.59796 21.9847 9.41691C22.3239 10.2359 22.4985 11.1136 22.4985 12C22.4985 12.8864 22.3239 13.7642 21.9847 14.5831C21.6455 15.4021 21.1483 16.1462 20.5215 16.773" stroke="black" stroke-width="1.5" stroke-linecap="round" stroke-linejoin="round"/>
<path d="M7.5 15.75H3C2.80109 15.75 2.61032 15.671 2.46967 15.5303C2.32902 15.3897 2.25 15.1989 2.25 15V9C2.25 8.80109 2.32902 8.61032 2.46967 8.46967C2.61032 8.32902 2.80109 8.25 3 8.25H7.5L14.25 3V21L7.5 15.75Z" stroke="black" stroke-width="1.5" stroke-linecap="round" stroke-linejoin="round"/>
<path d="M7.49902 8.25V15.75" stroke="black" stroke-width="1.5" stroke-linecap="round" stroke-linejoin="round"/>
<path d="M17.8701 9.87891C18.1487 10.1575 18.3697 10.4882 18.5204 10.8522C18.6712 11.2162 18.7488 11.6063 18.7488 12.0002C18.7488 12.3942 18.6712 12.7843 18.5204 13.1483C18.3697 13.5123 18.1487 13.843 17.8701 14.1215" stroke="black" stroke-width="1.5" stroke-linecap="round" stroke-linejoin="round"/>
</svg>
