<svg width="24" height="24" viewBox="0 0 24 24" fill="none" xmlns="http://www.w3.org/2000/svg">
<path d="M20.5205 7.22803C21.7864 8.4939 22.4975 10.2108 22.4975 12.001C22.4975 13.7912 21.7864 15.5081 20.5205 16.774" stroke="black" stroke-width="1.5" stroke-linecap="round" stroke-linejoin="round"/>
<path d="M7.49902 8.25098V15.751" stroke="black" stroke-width="1.5" stroke-linecap="round" stroke-linejoin="round"/>
<path d="M17.8691 9.87988C18.4317 10.4425 18.7478 11.2056 18.7478 12.0012C18.7478 12.7969 18.4317 13.5599 17.8691 14.1225" stroke="black" stroke-width="1.5" stroke-linecap="round" stroke-linejoin="round"/>
<path d="M4.5 3.75L19.5 20.25" stroke="black" stroke-width="1.5" stroke-linecap="round" stroke-linejoin="round"/>
<path d="M14.25 14.4748V21.0009L7.5 15.7509H3C2.80109 15.7509 2.61032 15.6719 2.46967 15.5312C2.32902 15.3906 2.25 15.1998 2.25 15.0009V9.00091C2.25 8.802 2.32902 8.61124 2.46967 8.47058C2.61032 8.32993 2.80109 8.25091 3 8.25091H7.5L8.13963 7.75342" stroke="black" stroke-width="1.5" stroke-linecap="round" stroke-linejoin="round"/>
<path d="M10.5146 5.9062L14.25 3.00098V10.0151" stroke="black" stroke-width="1.5" stroke-linecap="round" stroke-linejoin="round"/>
</svg>
