<svg width="24" height="24" viewBox="0 0 24 24" fill="none" xmlns="http://www.w3.org/2000/svg">
<path d="M12 2.25V17.7607" stroke="black" stroke-width="1.5" stroke-linecap="round" stroke-linejoin="round"/>
<path d="M20.6402 10.9299L21.4575 10.2497C22.0146 9.78596 21.7271 8.86134 21.0113 8.81489L19.9287 8.74463" stroke="black" stroke-width="1.5" stroke-linecap="round" stroke-linejoin="round"/>
<path d="M17.2623 15.8331L16.9516 14.611C16.9132 14.4613 16.9177 14.3038 16.9648 14.1566C17.0118 14.0094 17.0995 13.8785 17.2176 13.7789L18.1581 12.9961" stroke="black" stroke-width="1.5" stroke-linecap="round" stroke-linejoin="round"/>
<path d="M16.7053 8.53537L15.4738 8.45545C15.3247 8.44479 15.1816 8.39199 15.0613 8.30318C14.941 8.21438 14.8484 8.09322 14.7943 7.95383L14.3163 6.75001L12.7292 2.75323C12.673 2.60528 12.5732 2.4779 12.443 2.38802C12.3127 2.29814 12.1582 2.25 12 2.25C11.8418 2.25 11.6873 2.29814 11.557 2.38802C11.4268 2.4779 11.327 2.60528 11.2708 2.75323L9.20567 7.95383C9.15157 8.09322 9.05897 8.21437 8.93867 8.30318C8.81838 8.39199 8.67533 8.44479 8.52618 8.45545L2.98894 8.81481C2.27315 8.86127 1.9856 9.78588 2.54272 10.2496L6.78278 13.7787C6.90095 13.8783 6.9886 14.0092 7.03566 14.1564C7.08272 14.3036 7.08727 14.4611 7.0488 14.6108L5.78188 19.5945C5.56667 20.4412 6.46715 21.1246 7.19243 20.6651L11.5865 17.8812C11.71 17.8025 11.8535 17.7607 12 17.7607C12.1465 17.7607 12.29 17.8025 12.4135 17.8812L13.4932 18.5652" stroke="black" stroke-width="1.5" stroke-linecap="round" stroke-linejoin="round"/>
<path d="M16.2207 20.2934L17.1418 20.877C17.7462 21.26 18.4967 20.6904 18.3173 19.9849L18.0572 18.9619" stroke="black" stroke-width="1.5" stroke-linecap="round" stroke-linejoin="round"/>
</svg>
