<svg width="24" height="24" viewBox="0 0 24 24" fill="none" xmlns="http://www.w3.org/2000/svg">
<path d="M14.8801 15.3291L12.7046 21.3119C12.6519 21.4566 12.5561 21.5815 12.43 21.6699C12.3039 21.7582 12.1537 21.8056 11.9997 21.8056C11.8458 21.8056 11.6955 21.7582 11.5694 21.6699C11.4433 21.5815 11.3475 21.4566 11.2949 21.3119L9.11932 15.3291C9.08186 15.2261 9.02229 15.1326 8.9448 15.0551C8.86731 14.9776 8.77377 14.918 8.67078 14.8806L2.68803 12.705C2.54335 12.6524 2.41836 12.5566 2.33004 12.4305C2.24171 12.3044 2.19434 12.1541 2.19434 12.0002C2.19434 11.8462 2.24171 11.696 2.33004 11.5699C2.41836 11.4438 2.54335 11.348 2.68803 11.2953L8.67078 9.1198C8.77377 9.08235 8.86731 9.02278 8.9448 8.94529C9.02229 8.8678 9.08186 8.77426 9.11932 8.67127L11.2949 2.68852C11.3475 2.54383 11.4433 2.41885 11.5694 2.33052C11.6955 2.2422 11.8458 2.19482 11.9997 2.19482C12.1537 2.19482 12.3039 2.2422 12.43 2.33052C12.5561 2.41885 12.6519 2.54383 12.7046 2.68852L14.8801 8.67127C14.9175 8.77426 14.9771 8.8678 15.0546 8.94529C15.1321 9.02278 15.2256 9.08235 15.3286 9.1198L21.3114 11.2953C21.4561 11.348 21.5811 11.4438 21.6694 11.5699C21.7577 11.696 21.8051 11.8462 21.8051 12.0002C21.8051 12.1541 21.7577 12.3044 21.6694 12.4305C21.5811 12.5566 21.4561 12.6524 21.3114 12.705L15.3286 14.8806C15.2256 14.918 15.1321 14.9776 15.0546 15.0551C14.9771 15.1326 14.9175 15.2261 14.8801 15.3291Z" stroke="black" stroke-width="1.5" stroke-linecap="round" stroke-linejoin="round"/>
</svg>
