<svg width="24" height="24" viewBox="0 0 24 24" fill="none" xmlns="http://www.w3.org/2000/svg">
<path d="M7.5 14.9993H19.5C19.6989 14.9993 19.8897 14.9202 20.0303 14.7796C20.171 14.6389 20.25 14.4482 20.25 14.2493V4.49927C20.25 4.30036 20.171 4.10959 20.0303 3.96894C19.8897 3.82829 19.6989 3.74927 19.5 3.74927H9C8.80109 3.74927 8.61032 3.82829 8.46967 3.96894C8.32902 4.10959 8.25 4.30036 8.25 4.49927V5.24927" stroke="black" stroke-width="1.5" stroke-linecap="round" stroke-linejoin="round"/>
<path d="M9.75 12.75L7.5 15L9.75 17.25" stroke="black" stroke-width="1.5" stroke-linecap="round" stroke-linejoin="round"/>
<path d="M16.5 9H4.5C4.30109 9 4.11032 9.07902 3.96967 9.21967C3.82902 9.36032 3.75 9.55109 3.75 9.75V19.5C3.75 19.6989 3.82902 19.8897 3.96967 20.0303C4.11032 20.171 4.30109 20.25 4.5 20.25H15C15.1989 20.25 15.3897 20.171 15.5303 20.0303C15.671 19.8897 15.75 19.6989 15.75 19.5V18.75" stroke="black" stroke-width="1.5" stroke-linecap="round" stroke-linejoin="round"/>
<path d="M14.25 11.2493L16.5 8.99927L14.25 6.74927" stroke="black" stroke-width="1.5" stroke-linecap="round" stroke-linejoin="round"/>
</svg>
