<svg width="24" height="24" viewBox="0 0 24 24" fill="none" xmlns="http://www.w3.org/2000/svg">
<path d="M17.4736 18.415L21.4736 12.415C21.5558 12.2918 21.5996 12.1471 21.5996 11.999C21.5996 11.851 21.5558 11.7062 21.4736 11.583L17.4736 5.583C17.4051 5.48026 17.3123 5.39603 17.2035 5.33777C17.0946 5.27951 16.9731 5.24902 16.8496 5.24902H2.25098L6.47365 11.5838C6.55578 11.707 6.5996 11.8517 6.59959 11.9998C6.59958 12.1479 6.55574 12.2926 6.4736 12.4158L2.25098 18.749H16.8496C16.9731 18.749 17.0946 18.7185 17.2035 18.6603C17.3123 18.602 17.4051 18.5178 17.4736 18.415Z" stroke="black" stroke-width="1.5" stroke-linecap="round" stroke-linejoin="round"/>
</svg>
