<svg width="24" height="24" viewBox="0 0 24 24" fill="none" xmlns="http://www.w3.org/2000/svg">
<path d="M8.25012 12.6441L16.6799 20.0623C16.7774 20.1481 16.8956 20.2071 17.0228 20.2336C17.15 20.26 17.2819 20.2529 17.4055 20.213C17.5292 20.1732 17.6403 20.1019 17.7281 20.0061C17.8159 19.9103 17.8774 19.7934 17.9064 19.6668L21.4327 4.27935C21.4632 4.14631 21.4568 4.00747 21.4142 3.8778C21.3716 3.74812 21.2944 3.63253 21.191 3.54347C21.0876 3.45441 20.9618 3.39527 20.8272 3.37241C20.6927 3.34955 20.5544 3.36385 20.4274 3.41375L3.12517 10.211C2.97438 10.2703 2.84683 10.3768 2.76159 10.5145C2.67636 10.6523 2.63803 10.814 2.65235 10.9754C2.66666 11.1368 2.73285 11.2892 2.841 11.4098C2.94915 11.5304 3.09346 11.6128 3.25233 11.6445L8.25012 12.6441Z" stroke="black" stroke-width="1.5" stroke-linecap="round" stroke-linejoin="round"/>
<path d="M8.25 12.6442L21.0105 3.42822" stroke="black" stroke-width="1.5" stroke-linecap="round" stroke-linejoin="round"/>
<path d="M12.46 16.3494L9.53033 19.2791C9.42544 19.384 9.2918 19.4554 9.14632 19.4843C9.00083 19.5133 8.85003 19.4984 8.71299 19.4416C8.57594 19.3849 8.45881 19.2888 8.3764 19.1654C8.29399 19.0421 8.25 18.8971 8.25 18.7487V12.6445" stroke="black" stroke-width="1.5" stroke-linecap="round" stroke-linejoin="round"/>
</svg>
