<svg width="24" height="24" viewBox="0 0 24 24" fill="none" xmlns="http://www.w3.org/2000/svg">
<path d="M19.4999 9.375L8.81238 20.0625C8.49229 20.3826 8.11228 20.6365 7.69405 20.8097C7.27582 20.983 6.82757 21.0721 6.37488 21.0721C5.9222 21.0721 5.47394 20.983 5.05572 20.8097C4.63749 20.6365 4.25748 20.3826 3.93738 20.0625V20.0625C3.61728 19.7424 3.36337 19.3624 3.19013 18.9442C3.0169 18.5259 2.92773 18.0777 2.92773 17.625C2.92773 17.1723 3.0169 16.7241 3.19013 16.3058C3.36337 15.8876 3.61728 15.5076 3.93738 15.1875L16.1249 3L21.7499 8.625L19.4999 9.375Z" stroke="black" stroke-width="1.5" stroke-linecap="round" stroke-linejoin="round"/>
<path d="M6.375 12.7499C6.375 12.7499 8.25 11.2499 11.25 12.7499C14.25 14.2499 16.125 12.7499 16.125 12.7499" stroke="black" stroke-width="1.5" stroke-linecap="round" stroke-linejoin="round"/>
</svg>
