<svg width="24" height="24" viewBox="0 0 24 24" fill="none" xmlns="http://www.w3.org/2000/svg">
<path d="M3.75 5.25V16.5" stroke="black" stroke-width="1.5" stroke-linecap="round" stroke-linejoin="round"/>
<path d="M13.5 10.875H3.75" stroke="black" stroke-width="1.5" stroke-linecap="round" stroke-linejoin="round"/>
<path d="M13.5 5.25V16.5" stroke="black" stroke-width="1.5" stroke-linecap="round" stroke-linejoin="round"/>
<path d="M18 10.1243H22.5L19.8756 13.875C20.3073 13.875 20.7323 13.9815 21.113 14.185C21.4937 14.3885 21.8184 14.6827 22.0582 15.0416C22.298 15.4006 22.4456 15.8131 22.488 16.2427C22.5303 16.6723 22.466 17.1057 22.3008 17.5045C22.1356 17.9034 21.8746 18.2553 21.5409 18.5292C21.2072 18.803 20.8111 18.9903 20.3877 19.0746C19.9643 19.1588 19.5267 19.1373 19.1136 19.012C18.7005 18.8867 18.3247 18.6614 18.0194 18.3562" stroke="black" stroke-width="1.5" stroke-linecap="round" stroke-linejoin="round"/>
</svg>
