<svg width="24" height="24" viewBox="0 0 24 24" fill="none" xmlns="http://www.w3.org/2000/svg">
<path d="M3.75 5.25V16.5" stroke="black" stroke-width="1.5" stroke-linecap="round" stroke-linejoin="round"/>
<path d="M13.5 10.875H3.75" stroke="black" stroke-width="1.5" stroke-linecap="round" stroke-linejoin="round"/>
<path d="M13.5 5.25V16.5" stroke="black" stroke-width="1.5" stroke-linecap="round" stroke-linejoin="round"/>
<path d="M18.1768 11.1243C18.299 10.8352 18.4803 10.5749 18.709 10.36C18.9378 10.1452 19.2089 9.98058 19.5051 9.87675C19.8012 9.77291 20.1158 9.73217 20.4286 9.75713C20.7414 9.78209 21.0456 9.8722 21.3215 10.0217C21.5975 10.1712 21.8391 10.3767 22.0309 10.6251C22.2226 10.8735 22.3604 11.1593 22.4352 11.464C22.5099 11.7688 22.5202 12.0859 22.4652 12.3948C22.4101 12.7038 22.2911 12.9978 22.1157 13.2581V13.2581L18 18.7501V18.7495H22.5" stroke="black" stroke-width="1.5" stroke-linecap="round" stroke-linejoin="round"/>
</svg>
