<svg width="24" height="24" viewBox="0 0 24 24" fill="none" xmlns="http://www.w3.org/2000/svg">
<path d="M11.25 19.5C12.2855 19.5 13.125 18.6605 13.125 17.625C13.125 16.5895 12.2855 15.75 11.25 15.75C10.2145 15.75 9.375 16.5895 9.375 17.625C9.375 18.6605 10.2145 19.5 11.25 19.5Z" stroke="black" stroke-width="1.5" stroke-linecap="round" stroke-linejoin="round"/>
<path d="M11.25 15.75V4.5" stroke="black" stroke-width="1.5" stroke-linecap="round" stroke-linejoin="round"/>
<path d="M22.5269 7.49986C22.1753 7.85149 21.6984 8.04903 21.2011 8.04903C20.7038 8.04903 20.2269 7.85149 19.8753 7.49986C19.5237 7.14823 19.0467 6.95068 18.5495 6.95068C18.0522 6.95068 17.5753 7.14823 17.2236 7.49986" stroke="black" stroke-width="1.5" stroke-linecap="round" stroke-linejoin="round"/>
<path d="M22.5269 11.2499C22.1753 11.6015 21.6984 11.799 21.2011 11.799C20.7038 11.799 20.2269 11.6015 19.8753 11.2499C19.5237 10.8982 19.0467 10.7007 18.5495 10.7007C18.0522 10.7007 17.5753 10.8982 17.2236 11.2499" stroke="black" stroke-width="1.5" stroke-linecap="round" stroke-linejoin="round"/>
<path d="M8.25 13.7836V4.5C8.25 3.70435 8.56607 2.94129 9.12868 2.37868C9.69129 1.81607 10.4544 1.5 11.25 1.5C12.0456 1.5 12.8087 1.81607 13.3713 2.37868C13.9339 2.94129 14.25 3.70435 14.25 4.5V13.7836L14.2507 13.7827C15.0507 14.4075 15.6357 15.2664 15.9241 16.2396C16.2125 17.2128 16.1899 18.2517 15.8595 19.2115C15.5291 20.1713 14.9074 21.004 14.0811 21.5934C13.2548 22.1829 12.265 22.4997 11.25 22.4997C10.235 22.4997 9.24525 22.1829 8.41891 21.5934C7.59258 21.004 6.97086 20.1713 6.64047 19.2115C6.31008 18.2517 6.28752 17.2128 6.57592 16.2396C6.86432 15.2664 7.44931 14.4075 8.24926 13.7827L8.25 13.7836Z" stroke="black" stroke-width="1.5" stroke-linecap="round" stroke-linejoin="round"/>
</svg>
