<svg width="24" height="24" viewBox="0 0 24 24" fill="none" xmlns="http://www.w3.org/2000/svg">
<path d="M2.99902 4.5H7.49902V14.25H2.99902C2.80011 14.25 2.60935 14.171 2.46869 14.0303C2.32804 13.8897 2.24902 13.6989 2.24902 13.5V5.25C2.24902 5.05109 2.32804 4.86032 2.46869 4.71967C2.60935 4.57902 2.80011 4.5 2.99902 4.5V4.5Z" stroke="black" stroke-width="1.5" stroke-linecap="round" stroke-linejoin="round"/>
<path d="M7.49902 14.25L11.249 21.75C11.643 21.75 12.0331 21.6724 12.3971 21.5216C12.7611 21.3709 13.0918 21.1499 13.3703 20.8713C13.6489 20.5927 13.8699 20.262 14.0207 19.898C14.1714 19.5341 14.249 19.144 14.249 18.75V16.5H20.0499C20.2625 16.5 20.4728 16.4548 20.6667 16.3673C20.8605 16.2798 21.0336 16.1522 21.1744 15.9927C21.3151 15.8333 21.4204 15.6457 21.4831 15.4425C21.5458 15.2392 21.5646 15.025 21.5383 14.8139L20.4133 5.81395C20.3679 5.45117 20.1916 5.11744 19.9176 4.87548C19.6435 4.63353 19.2905 4.5 18.9249 4.5H7.49902" stroke="black" stroke-width="1.5" stroke-linecap="round" stroke-linejoin="round"/>
</svg>
