<svg width="24" height="24" viewBox="0 0 24 24" fill="none" xmlns="http://www.w3.org/2000/svg">
<path d="M12 21.75V8.25" stroke="black" stroke-width="1.5" stroke-linecap="round" stroke-linejoin="round"/>
<path d="M12 14.25L7.5 12" stroke="black" stroke-width="1.5" stroke-linecap="round" stroke-linejoin="round"/>
<path d="M12 12L16.5 9.75" stroke="black" stroke-width="1.5" stroke-linecap="round" stroke-linejoin="round"/>
<path d="M12.4195 16.99C13.1079 17.4495 13.8839 17.7615 14.6987 17.9066C15.5135 18.0517 16.3495 18.0266 17.1542 17.8329C17.9588 17.6393 18.7147 17.2812 19.3743 16.7813C20.0339 16.2813 20.5829 15.6503 20.9868 14.928C21.3908 14.2056 21.6408 13.4075 21.7214 12.5838C21.8019 11.76 21.7112 10.9286 21.4548 10.1416C21.1985 9.35471 20.7821 8.62933 20.2318 8.0111C19.6816 7.39288 19.0094 6.89519 18.2575 6.54932C18.0873 6.4709 17.9527 6.33153 17.8803 6.15872C17.394 5.0005 16.5765 4.01169 15.5304 3.31632C14.4842 2.62095 13.256 2.25 11.9999 2.25C10.7437 2.25 9.51552 2.62095 8.46939 3.31632C7.42325 4.01169 6.60576 5.0005 6.11947 6.15872C6.04704 6.33153 5.91246 6.4709 5.74229 6.54933C4.99025 6.89511 4.3179 7.39277 3.76752 8.011C3.21714 8.62922 2.80064 9.35464 2.54421 10.1416C2.28777 10.9286 2.19696 11.7602 2.27748 12.584C2.35799 13.4078 2.6081 14.206 3.01206 14.9284C3.41602 15.6509 3.96511 16.2819 4.62478 16.7819C5.28444 17.2819 6.04043 17.6399 6.84518 17.8335C7.64994 18.0272 8.48605 18.0522 9.30094 17.907C10.1158 17.7618 10.8919 17.4496 11.5802 16.99C11.7043 16.9067 11.8504 16.8622 11.9999 16.8622C12.1493 16.8622 12.2954 16.9067 12.4195 16.99Z" stroke="black" stroke-width="1.5" stroke-linecap="round" stroke-linejoin="round"/>
</svg>
