<svg width="24" height="24" viewBox="0 0 24 24" fill="none" xmlns="http://www.w3.org/2000/svg">
<path d="M16.5 18.75C16.5 19.3467 16.2629 19.919 15.841 20.341C15.419 20.7629 14.8467 21 14.25 21C13.6533 21 13.081 20.7629 12.659 20.341C12.2371 19.919 12 19.3467 12 18.75V12.75" stroke="black" stroke-width="1.5" stroke-linecap="round" stroke-linejoin="round"/>
<path d="M3.03169 12.75C2.92763 12.7498 2.82474 12.728 2.72954 12.686C2.63434 12.6439 2.5489 12.5826 2.47863 12.5059C2.40835 12.4291 2.35477 12.3386 2.32127 12.2401C2.28778 12.1416 2.27509 12.0372 2.28403 11.9335C2.48888 9.49753 3.60128 7.22737 5.40082 5.57281C7.20036 3.91825 9.55575 3 12.0003 3C14.4449 3 16.8003 3.91825 18.5998 5.57281C20.3994 7.22737 21.5118 9.49753 21.7166 11.9335C21.7255 12.0372 21.7129 12.1416 21.6794 12.2401C21.6459 12.3386 21.5923 12.4291 21.522 12.5059C21.4517 12.5826 21.3663 12.6439 21.2711 12.686C21.1759 12.728 21.073 12.7498 20.969 12.75H3.03169Z" stroke="black" stroke-width="1.5" stroke-linecap="round" stroke-linejoin="round"/>
</svg>
