<svg width="24" height="24" viewBox="0 0 24 24" fill="none" xmlns="http://www.w3.org/2000/svg">
<path d="M4.49902 3.75L19.499 20.25" stroke="black" stroke-width="1.5" stroke-linecap="round" stroke-linejoin="round"/>
<path d="M10.042 5.38789C10.6899 5.29607 11.3435 5.25008 11.9978 5.25028C15.6103 5.24235 19.0792 6.6638 21.6474 9.20434" stroke="black" stroke-width="1.5" stroke-linecap="round" stroke-linejoin="round"/>
<path d="M2.34863 9.20434C3.62215 7.94448 5.13077 6.94708 6.78878 6.2688" stroke="black" stroke-width="1.5" stroke-linecap="round" stroke-linejoin="round"/>
<path d="M14.2598 10.0273C15.8477 10.4243 17.3006 11.2387 18.4678 12.3863" stroke="black" stroke-width="1.5" stroke-linecap="round" stroke-linejoin="round"/>
<path d="M5.52832 12.3863C6.79225 11.1437 8.38893 10.2937 10.1255 9.93896" stroke="black" stroke-width="1.5" stroke-linecap="round" stroke-linejoin="round"/>
<path d="M8.70996 15.5683C9.55542 14.7612 10.6681 14.2931 11.8362 14.253C13.0044 14.213 14.1465 14.6038 15.0452 15.351" stroke="black" stroke-width="1.5" stroke-linecap="round" stroke-linejoin="round"/>
<path d="M12 19.6875C12.5178 19.6875 12.9375 19.2678 12.9375 18.75C12.9375 18.2322 12.5178 17.8125 12 17.8125C11.4822 17.8125 11.0625 18.2322 11.0625 18.75C11.0625 19.2678 11.4822 19.6875 12 19.6875Z" fill="black"/>
</svg>
