<svg width="24" height="24" viewBox="0 0 24 24" fill="none" xmlns="http://www.w3.org/2000/svg">
<path d="M8.71094 15.5683C9.59659 14.7223 10.7742 14.2502 11.999 14.2502C13.2237 14.2502 14.4014 14.7223 15.287 15.5683" stroke="black" stroke-width="1.5" stroke-linecap="round" stroke-linejoin="round"/>
<path d="M21 5.25L16.5 9.75" stroke="black" stroke-width="1.5" stroke-linecap="round" stroke-linejoin="round"/>
<path d="M21 9.75L16.5 5.25" stroke="black" stroke-width="1.5" stroke-linecap="round" stroke-linejoin="round"/>
<path d="M2.34961 9.20434C4.91779 6.6638 8.38669 5.24235 11.9991 5.25028C12.5007 5.25018 13.0019 5.27715 13.5006 5.33105" stroke="black" stroke-width="1.5" stroke-linecap="round" stroke-linejoin="round"/>
<path d="M5.5293 12.3863C7.25536 10.6909 9.5799 9.74385 11.9993 9.75028C12.5027 9.75008 13.0053 9.79048 13.5021 9.87108" stroke="black" stroke-width="1.5" stroke-linecap="round" stroke-linejoin="round"/>
<path d="M12 19.6875C12.5178 19.6875 12.9375 19.2678 12.9375 18.75C12.9375 18.2322 12.5178 17.8125 12 17.8125C11.4822 17.8125 11.0625 18.2322 11.0625 18.75C11.0625 19.2678 11.4822 19.6875 12 19.6875Z" fill="black"/>
</svg>
