<svg width="24" height="24" viewBox="0 0 24 24" fill="none" xmlns="http://www.w3.org/2000/svg">
<path d="M20.25 4.50049H3.75C3.33579 4.50049 3 4.83627 3 5.25049V18.7505C3 19.1647 3.33579 19.5005 3.75 19.5005H20.25C20.6642 19.5005 21 19.1647 21 18.7505V5.25049C21 4.83627 20.6642 4.50049 20.25 4.50049Z" stroke="white" stroke-width="1.5" stroke-linecap="round" stroke-linejoin="round"/>
<path d="M6.375 8.81299C6.89277 8.81299 7.3125 8.39326 7.3125 7.87549C7.3125 7.35772 6.89277 6.93799 6.375 6.93799C5.85723 6.93799 5.4375 7.35772 5.4375 7.87549C5.4375 8.39326 5.85723 8.81299 6.375 8.81299Z" fill="white"/>
<path d="M10.125 8.81299C10.6428 8.81299 11.0625 8.39326 11.0625 7.87549C11.0625 7.35772 10.6428 6.93799 10.125 6.93799C9.60723 6.93799 9.1875 7.35772 9.1875 7.87549C9.1875 8.39326 9.60723 8.81299 10.125 8.81299Z" fill="white"/>
</svg>
