<svg width="24" height="24" viewBox="0 0 24 24" fill="none" xmlns="http://www.w3.org/2000/svg">
<path d="M19.6899 19.6898C21.3009 18.0789 19.1639 13.3302 14.917 9.08321C10.67 4.83625 5.92128 2.69932 4.31037 4.31024C2.69946 5.92115 4.83639 10.6699 9.08334 14.9168C13.3303 19.1638 18.079 21.3007 19.6899 19.6898Z" stroke="white" stroke-width="1.5" stroke-linecap="round" stroke-linejoin="round"/>
<path d="M14.917 14.9168C19.1639 10.6698 21.3009 5.9211 19.6899 4.31019C18.079 2.69928 13.3303 4.83621 9.08334 9.08316C4.83639 13.3301 2.69946 18.0789 4.31037 19.6898C5.92128 21.3007 10.67 19.1637 14.917 14.9168Z" stroke="white" stroke-width="1.5" stroke-linecap="round" stroke-linejoin="round"/>
<path d="M12 12.9375C12.5178 12.9375 12.9375 12.5178 12.9375 12C12.9375 11.4822 12.5178 11.0625 12 11.0625C11.4822 11.0625 11.0625 11.4822 11.0625 12C11.0625 12.5178 11.4822 12.9375 12 12.9375Z" fill="white"/>
</svg>
