<svg width="24" height="24" viewBox="0 0 24 24" fill="none" xmlns="http://www.w3.org/2000/svg">
<path d="M12 21C16.9706 21 21 16.9706 21 12C21 7.02944 16.9706 3 12 3C7.02944 3 3 7.02944 3 12C3 16.9706 7.02944 21 12 21Z" stroke="white" stroke-width="1.5" stroke-linecap="round" stroke-linejoin="round"/>
<path d="M8.625 12.9375C9.14277 12.9375 9.5625 12.5178 9.5625 12C9.5625 11.4822 9.14277 11.0625 8.625 11.0625C8.10723 11.0625 7.6875 11.4822 7.6875 12C7.6875 12.5178 8.10723 12.9375 8.625 12.9375Z" fill="white"/>
<path d="M15.375 12.9375C15.8928 12.9375 16.3125 12.5178 16.3125 12C16.3125 11.4822 15.8928 11.0625 15.375 11.0625C14.8572 11.0625 14.4375 11.4822 14.4375 12C14.4375 12.5178 14.8572 12.9375 15.375 12.9375Z" fill="white"/>
<path d="M14.4875 15.7502C13.7499 16.2392 12.8846 16.5 11.9996 16.5C11.1147 16.5 10.2493 16.2393 9.51172 15.7504" stroke="white" stroke-width="1.5" stroke-linecap="round" stroke-linejoin="round"/>
<path d="M12 3C10.5 4.875 10.5 6.75 10.5 6.75C10.5 7.14782 10.658 7.52936 10.9393 7.81066C11.2206 8.09196 11.6022 8.25 12 8.25C12.3978 8.25 12.7794 8.09196 13.0607 7.81066C13.342 7.52936 13.5 7.14782 13.5 6.75" stroke="white" stroke-width="1.5" stroke-linecap="round" stroke-linejoin="round"/>
</svg>
