<svg width="24" height="24" viewBox="0 0 24 24" fill="none" xmlns="http://www.w3.org/2000/svg">
<path d="M4.5 3.75L19.5 20.25" stroke="white" stroke-width="1.5" stroke-linecap="round" stroke-linejoin="round"/>
<path d="M9 20.998H15" stroke="white" stroke-width="1.5" stroke-linecap="round" stroke-linejoin="round"/>
<path d="M8.67188 3.87962C9.70037 3.29173 10.8666 2.98759 12.0512 2.99832C15.7627 3.02591 18.7315 6.11095 18.7315 9.83287V10.4981C18.7315 13.0007 19.1217 14.7204 19.5766 15.8749" stroke="white" stroke-width="1.5" stroke-linecap="round" stroke-linejoin="round"/>
<path d="M17.4528 17.998H4.59222C4.46034 17.9977 4.33087 17.9626 4.21689 17.8962C4.1029 17.8299 4.00844 17.7347 3.94301 17.6201C3.87759 17.5056 3.84352 17.3759 3.84425 17.244C3.84498 17.1121 3.88048 16.9827 3.94716 16.869C4.56622 15.804 5.26904 13.8556 5.26904 10.498V9.74804C5.26669 8.37669 5.68322 7.03733 6.4629 5.90918" stroke="white" stroke-width="1.5" stroke-linecap="round" stroke-linejoin="round"/>
</svg>
