<svg width="24" height="24" viewBox="0 0 24 24" fill="none" xmlns="http://www.w3.org/2000/svg">
<path d="M12 15C13.6569 15 15 13.6569 15 12C15 10.3431 13.6569 9 12 9C10.3431 9 9 10.3431 9 12C9 13.6569 10.3431 15 12 15Z" stroke="white" stroke-width="1.5" stroke-linecap="round" stroke-linejoin="round"/>
<path d="M7.22746 16.773C6.59998 16.1466 6.10218 15.4026 5.76252 14.5836C5.42287 13.7646 5.24805 12.8867 5.24805 12C5.24805 11.1134 5.42287 10.2355 5.76252 9.41645C6.10218 8.59745 6.59998 7.85346 7.22746 7.22705" stroke="white" stroke-width="1.5" stroke-linecap="round" stroke-linejoin="round"/>
<path d="M16.7734 7.22705C17.4009 7.85346 17.8987 8.59745 18.2384 9.41645C18.578 10.2355 18.7529 11.1134 18.7529 12C18.7529 12.8867 18.578 13.7646 18.2384 14.5836C17.8987 15.4026 17.4009 16.1466 16.7734 16.773" stroke="white" stroke-width="1.5" stroke-linecap="round" stroke-linejoin="round"/>
<path d="M4.57519 19.4247C3.59911 18.4503 2.82474 17.2929 2.29639 16.0189C1.76805 14.7449 1.49609 13.3793 1.49609 12.0001C1.49609 10.6209 1.76805 9.25517 2.29639 7.98117C2.82474 6.70717 3.59911 5.54986 4.57519 4.57544" stroke="white" stroke-width="1.5" stroke-linecap="round" stroke-linejoin="round"/>
<path d="M19.4248 4.57544C20.4009 5.54986 21.1753 6.70717 21.7036 7.98117C22.2319 9.25517 22.5039 10.6208 22.5039 12.0001C22.5039 13.3793 22.2319 14.7449 21.7036 16.0189C21.1753 17.2929 20.4009 18.4503 19.4248 19.4247" stroke="white" stroke-width="1.5" stroke-linecap="round" stroke-linejoin="round"/>
</svg>
