<svg width="24" height="24" viewBox="0 0 24 24" fill="none" xmlns="http://www.w3.org/2000/svg">
<path d="M17.2505 7.5H3.75049C3.33627 7.5 3.00049 7.83579 3.00049 8.25V18.75C3.00049 19.1642 3.33627 19.5 3.75049 19.5H17.2505C17.6647 19.5 18.0005 19.1642 18.0005 18.75V8.25C18.0005 7.83579 17.6647 7.5 17.2505 7.5Z" stroke="white" stroke-width="1.5" stroke-linecap="round" stroke-linejoin="round"/>
<path d="M6.00098 7.5V5.25C6.00098 5.05109 6.07999 4.86032 6.22065 4.71967C6.3613 4.57902 6.55206 4.5 6.75098 4.5H20.251C20.4499 4.5 20.6407 4.57902 20.7813 4.71967C20.922 4.86032 21.001 5.05109 21.001 5.25V15.75C21.001 15.9489 20.922 16.1397 20.7813 16.2803C20.6407 16.421 20.4499 16.5 20.251 16.5H18.001" stroke="white" stroke-width="1.5" stroke-linecap="round" stroke-linejoin="round"/>
<path d="M3 10.5H18" stroke="white" stroke-width="1.5" stroke-linecap="round" stroke-linejoin="round"/>
</svg>
