<svg width="24" height="24" viewBox="0 0 24 24" fill="none" xmlns="http://www.w3.org/2000/svg">
<path d="M14.625 9.5625C15.1428 9.5625 15.5625 9.14277 15.5625 8.625C15.5625 8.10723 15.1428 7.6875 14.625 7.6875C14.1072 7.6875 13.6875 8.10723 13.6875 8.625C13.6875 9.14277 14.1072 9.5625 14.625 9.5625Z" fill="white"/>
<path d="M9.375 9.5625C9.89277 9.5625 10.3125 9.14277 10.3125 8.625C10.3125 8.10723 9.89277 7.6875 9.375 7.6875C8.85723 7.6875 8.4375 8.10723 8.4375 8.625C8.4375 9.14277 8.85723 9.5625 9.375 9.5625Z" fill="white"/>
<path d="M12 12V21" stroke="white" stroke-width="1.5" stroke-linecap="round" stroke-linejoin="round"/>
<path d="M22.875 12L1.125 12" stroke="white" stroke-width="1.5" stroke-linecap="round" stroke-linejoin="round"/>
<path d="M19.5 13.5C19.5 15.4891 18.7098 17.3968 17.3033 18.8033C15.8968 20.2098 13.9891 21 12 21C10.0109 21 8.10322 20.2098 6.6967 18.8033C5.29018 17.3968 4.5 15.4891 4.5 13.5V10.5C4.5 8.51088 5.29018 6.60322 6.6967 5.1967C8.10322 3.79018 10.0109 3 12 3C13.9891 3 15.8968 3.79018 17.3033 5.1967C18.7098 6.60322 19.5 8.51088 19.5 10.5V13.5Z" stroke="white" stroke-width="1.5" stroke-linecap="round" stroke-linejoin="round"/>
<path d="M21.7423 17.625L19.0479 16.0693" stroke="white" stroke-width="1.5" stroke-linecap="round" stroke-linejoin="round"/>
<path d="M21.7423 6.375L19.0479 7.93066" stroke="white" stroke-width="1.5" stroke-linecap="round" stroke-linejoin="round"/>
<path d="M2.25684 6.375L4.95133 7.93066" stroke="white" stroke-width="1.5" stroke-linecap="round" stroke-linejoin="round"/>
<path d="M2.25684 17.625L4.9513 16.0693" stroke="white" stroke-width="1.5" stroke-linecap="round" stroke-linejoin="round"/>
</svg>
