<svg width="24" height="24" viewBox="0 0 24 24" fill="none" xmlns="http://www.w3.org/2000/svg">
<path d="M3.13672 2.25L20.864 21.75" stroke="white" stroke-width="1.5" stroke-linecap="round" stroke-linejoin="round"/>
<path d="M8.81152 4.03246L8.99983 3.75H14.9998L16.4998 6H19.5004C19.8982 6 20.2797 6.15804 20.561 6.43934C20.8423 6.72064 21.0004 7.10218 21.0004 7.5V17.4402" stroke="white" stroke-width="1.5" stroke-linecap="round" stroke-linejoin="round"/>
<path d="M18.8182 19.5H4.5C4.10218 19.5 3.72064 19.342 3.43934 19.0607C3.15804 18.7794 3 18.3978 3 18V7.5C3 7.10218 3.15804 6.72064 3.43934 6.43934C3.72064 6.15804 4.10218 6 4.5 6H6.54545" stroke="white" stroke-width="1.5" stroke-linecap="round" stroke-linejoin="round"/>
<path d="M14.4506 14.6956C14.1312 15.0328 13.7457 15.3005 13.3181 15.4819C12.8905 15.6633 12.4301 15.7544 11.9656 15.7497C11.5012 15.745 11.0427 15.6444 10.6189 15.4543C10.1951 15.2643 9.81515 14.9888 9.50272 14.6451C9.19029 14.3014 8.95215 13.897 8.80322 13.457C8.65429 13.0171 8.59776 12.5512 8.63718 12.0884C8.67659 11.6256 8.81111 11.1759 9.0323 10.7675C9.25349 10.3591 9.55659 10.0007 9.92264 9.71484" stroke="white" stroke-width="1.5" stroke-linecap="round" stroke-linejoin="round"/>
</svg>
