<svg width="24" height="24" viewBox="0 0 24 24" fill="none" xmlns="http://www.w3.org/2000/svg">
<path d="M12.375 20.2493H4.46875C4.27813 20.2493 4.09531 20.1735 3.96052 20.0388C3.82573 19.904 3.75 19.7211 3.75 19.5305V11.6242C3.75 10.4916 3.97309 9.37004 4.40654 8.32361C4.83998 7.27718 5.4753 6.32637 6.2762 5.52547C7.0771 4.72456 8.02791 4.08925 9.07435 3.6558C10.1208 3.22236 11.2423 2.99927 12.375 2.99927H12.375C13.5077 2.99927 14.6292 3.22236 15.6756 3.65581C16.7221 4.08925 17.6729 4.72457 18.4738 5.52547C19.2747 6.32638 19.91 7.27719 20.3435 8.32362C20.7769 9.37006 21 10.4916 21 11.6243V11.6243C21 13.9118 20.0913 16.1056 18.4738 17.7231C16.8563 19.3406 14.6625 20.2493 12.375 20.2493Z" stroke="white" stroke-width="1.5" stroke-linecap="round" stroke-linejoin="round"/>
<path d="M12.375 12.9375C12.8928 12.9375 13.3125 12.5178 13.3125 12C13.3125 11.4822 12.8928 11.0625 12.375 11.0625C11.8572 11.0625 11.4375 11.4822 11.4375 12C11.4375 12.5178 11.8572 12.9375 12.375 12.9375Z" fill="white"/>
<path d="M16.875 12.9375C17.3928 12.9375 17.8125 12.5178 17.8125 12C17.8125 11.4822 17.3928 11.0625 16.875 11.0625C16.3572 11.0625 15.9375 11.4822 15.9375 12C15.9375 12.5178 16.3572 12.9375 16.875 12.9375Z" fill="white"/>
<path d="M7.875 12.9375C8.39277 12.9375 8.8125 12.5178 8.8125 12C8.8125 11.4822 8.39277 11.0625 7.875 11.0625C7.35723 11.0625 6.9375 11.4822 6.9375 12C6.9375 12.5178 7.35723 12.9375 7.875 12.9375Z" fill="white"/>
</svg>
