<svg width="24" height="24" viewBox="0 0 24 24" fill="none" xmlns="http://www.w3.org/2000/svg">
<path d="M8.24995 8.625C8.24995 7.36415 8.62384 6.13161 9.32434 5.08324C10.0248 4.03488 11.0205 3.21778 12.1853 2.73527C13.3502 2.25276 14.632 2.12652 15.8687 2.3725C17.1053 2.61848 18.2412 3.22564 19.1328 4.1172C20.0243 5.00876 20.6315 6.14467 20.8775 7.3813C21.1234 8.61793 20.9972 9.89973 20.5147 11.0646C20.0322 12.2295 19.2151 13.2251 18.1667 13.9256C17.1184 14.6261 15.8858 15 14.625 15H7.12495C6.52602 14.9995 5.93438 14.8686 5.39116 14.6163C4.84793 14.3641 4.36615 13.9966 3.9793 13.5393C3.59245 13.0821 3.30981 12.5461 3.15103 11.9686C2.99224 11.3911 2.96112 10.786 3.05982 10.1952C3.15852 9.60448 3.38468 9.04231 3.72258 8.5478C4.06048 8.05329 4.50201 7.63829 5.01649 7.33164C5.53097 7.025 6.10606 6.83407 6.70178 6.77213C7.2975 6.71018 7.89956 6.7787 8.46613 6.97293" stroke="white" stroke-width="1.5" stroke-linecap="round" stroke-linejoin="round"/>
<path d="M7.125 19.3125C7.64277 19.3125 8.0625 18.8928 8.0625 18.375C8.0625 17.8572 7.64277 17.4375 7.125 17.4375C6.60723 17.4375 6.1875 17.8572 6.1875 18.375C6.1875 18.8928 6.60723 19.3125 7.125 19.3125Z" fill="white"/>
<path d="M10.875 20.8125C11.3928 20.8125 11.8125 20.3928 11.8125 19.875C11.8125 19.3572 11.3928 18.9375 10.875 18.9375C10.3572 18.9375 9.9375 19.3572 9.9375 19.875C9.9375 20.3928 10.3572 20.8125 10.875 20.8125Z" fill="white"/>
<path d="M15.375 19.3125C15.8928 19.3125 16.3125 18.8928 16.3125 18.375C16.3125 17.8572 15.8928 17.4375 15.375 17.4375C14.8572 17.4375 14.4375 17.8572 14.4375 18.375C14.4375 18.8928 14.8572 19.3125 15.375 19.3125Z" fill="white"/>
<path d="M6.375 23.0625C6.89277 23.0625 7.3125 22.6428 7.3125 22.125C7.3125 21.6072 6.89277 21.1875 6.375 21.1875C5.85723 21.1875 5.4375 21.6072 5.4375 22.125C5.4375 22.6428 5.85723 23.0625 6.375 23.0625Z" fill="white"/>
<path d="M14.625 23.0625C15.1428 23.0625 15.5625 22.6428 15.5625 22.125C15.5625 21.6072 15.1428 21.1875 14.625 21.1875C14.1072 21.1875 13.6875 21.6072 13.6875 22.125C13.6875 22.6428 14.1072 23.0625 14.625 23.0625Z" fill="white"/>
</svg>
