<svg width="24" height="24" viewBox="0 0 24 24" fill="none" xmlns="http://www.w3.org/2000/svg">
<path d="M7.49978 12C7.49978 10.5166 7.93964 9.0666 8.76375 7.83323C9.58786 6.59986 10.7592 5.63856 12.1297 5.07091C13.5001 4.50325 15.0081 4.35472 16.463 4.64411C17.9178 4.9335 19.2542 5.64781 20.3031 6.6967C21.352 7.7456 22.0663 9.08197 22.3557 10.5368C22.6451 11.9917 22.4965 13.4997 21.9289 14.8701C21.3612 16.2406 20.3999 17.4119 19.1666 18.236C17.9332 19.0601 16.4831 19.5 14.9998 19.5H6.74978C6.00525 19.4993 5.26939 19.3402 4.59104 19.0333C3.91269 18.7265 3.30737 18.2788 2.81526 17.7201C2.32314 17.1614 1.95548 16.5045 1.73669 15.7928C1.5179 15.0812 1.45297 14.3311 1.54623 13.5924C1.63948 12.8538 1.88877 12.1434 2.27757 11.5084C2.66636 10.8735 3.18576 10.3285 3.80129 9.90964C4.41682 9.49078 5.11439 9.20762 5.84772 9.07897C6.58105 8.95033 7.33336 8.97912 8.0547 9.16346" stroke="white" stroke-width="1.5" stroke-linecap="round" stroke-linejoin="round"/>
<path d="M18 10.875L13.5 15.375L11.25 13.125" stroke="white" stroke-width="1.5" stroke-linecap="round" stroke-linejoin="round"/>
</svg>
