<svg width="24" height="24" viewBox="0 0 24 24" fill="none" xmlns="http://www.w3.org/2000/svg">
<path d="M20.9996 11.945C21.0086 13.1377 20.7796 14.3202 20.3261 15.4234C19.8726 16.5266 19.2036 17.5282 18.3584 18.3698C14.8947 21.8274 9.23596 21.8662 5.72751 18.4541C4.43984 17.2028 3.55594 15.5948 3.18945 13.837C2.82297 12.0793 2.99067 10.252 3.67097 8.59035C4.35128 6.92865 5.5131 5.50843 7.00703 4.51233C8.50096 3.51622 10.2587 2.98977 12.0542 3.00065C12.1667 3.00088 12.2777 3.02635 12.3789 3.07518C12.4802 3.124 12.5693 3.19495 12.6395 3.28277C12.7097 3.3706 12.7593 3.47307 12.7847 3.58262C12.81 3.69218 12.8104 3.80602 12.7859 3.91577C12.6875 4.35199 12.6879 4.8047 12.7871 5.24076C12.8862 5.67682 13.0816 6.08518 13.359 6.43597C13.6363 6.78676 13.9886 7.07109 14.39 7.26816C14.7915 7.46523 15.2319 7.57004 15.679 7.57492C15.8765 7.57656 16.0654 7.65572 16.205 7.79533C16.3446 7.93494 16.4237 8.12382 16.4254 8.32126C16.4303 8.76841 16.5351 9.20881 16.7321 9.61023C16.9292 10.0117 17.2135 10.3639 17.5643 10.6413C17.9151 10.9186 18.3234 11.114 18.7595 11.2132C19.1955 11.3124 19.6482 11.3128 20.0845 11.2144C20.1941 11.1898 20.3079 11.1902 20.4174 11.2155C20.5269 11.2407 20.6293 11.2902 20.7171 11.3603C20.805 11.4304 20.8759 11.5194 20.9248 11.6206C20.9737 11.7217 20.9993 11.8326 20.9996 11.945V11.945Z" stroke="white" stroke-width="1.5" stroke-linecap="round" stroke-linejoin="round"/>
<path d="M14.625 17.0625C15.1428 17.0625 15.5625 16.6428 15.5625 16.125C15.5625 15.6072 15.1428 15.1875 14.625 15.1875C14.1072 15.1875 13.6875 15.6072 13.6875 16.125C13.6875 16.6428 14.1072 17.0625 14.625 17.0625Z" fill="white"/>
<path d="M8.625 16.3125C9.14277 16.3125 9.5625 15.8928 9.5625 15.375C9.5625 14.8572 9.14277 14.4375 8.625 14.4375C8.10723 14.4375 7.6875 14.8572 7.6875 15.375C7.6875 15.8928 8.10723 16.3125 8.625 16.3125Z" fill="white"/>
<path d="M7.875 11.0625C8.39277 11.0625 8.8125 10.6428 8.8125 10.125C8.8125 9.60723 8.39277 9.1875 7.875 9.1875C7.35723 9.1875 6.9375 9.60723 6.9375 10.125C6.9375 10.6428 7.35723 11.0625 7.875 11.0625Z" fill="white"/>
<path d="M12.75 12.5625C13.2678 12.5625 13.6875 12.1428 13.6875 11.625C13.6875 11.1072 13.2678 10.6875 12.75 10.6875C12.2322 10.6875 11.8125 11.1072 11.8125 11.625C11.8125 12.1428 12.2322 12.5625 12.75 12.5625Z" fill="white"/>
</svg>
