<svg width="24" height="24" viewBox="0 0 24 24" fill="none" xmlns="http://www.w3.org/2000/svg">
<path d="M18 20.25V3.75C18 2.92157 17.3284 2.25 16.5 2.25L7.5 2.25C6.67157 2.25 6 2.92157 6 3.75L6 20.25C6 21.0784 6.67157 21.75 7.5 21.75H16.5C17.3284 21.75 18 21.0784 18 20.25Z" stroke="white" stroke-width="1.5" stroke-linecap="round" stroke-linejoin="round"/>
<path d="M12 6.5625C12.5178 6.5625 12.9375 6.14277 12.9375 5.625C12.9375 5.10723 12.5178 4.6875 12 4.6875C11.4822 4.6875 11.0625 5.10723 11.0625 5.625C11.0625 6.14277 11.4822 6.5625 12 6.5625Z" fill="white"/>
</svg>
