<svg width="24" height="24" viewBox="0 0 24 24" fill="none" xmlns="http://www.w3.org/2000/svg">
<path d="M9 14.4375C9.51777 14.4375 9.9375 14.0178 9.9375 13.5C9.9375 12.9822 9.51777 12.5625 9 12.5625C8.48223 12.5625 8.0625 12.9822 8.0625 13.5C8.0625 14.0178 8.48223 14.4375 9 14.4375Z" fill="white"/>
<path d="M15 14.4375C15.5178 14.4375 15.9375 14.0178 15.9375 13.5C15.9375 12.9822 15.5178 12.5625 15 12.5625C14.4822 12.5625 14.0625 12.9822 14.0625 13.5C14.0625 14.0178 14.4822 14.4375 15 14.4375Z" fill="white"/>
<path d="M6.97559 7.49992C8.60154 6.991 10.2967 6.73798 12.0004 6.74992C13.7041 6.73798 15.3993 6.99099 17.0252 7.49989" stroke="white" stroke-width="1.5" stroke-linecap="round" stroke-linejoin="round"/>
<path d="M17.0251 16.5C15.3992 17.0089 13.704 17.2619 12.0004 17.25C10.2967 17.2619 8.60152 17.0089 6.97559 16.5" stroke="white" stroke-width="1.5" stroke-linecap="round" stroke-linejoin="round"/>
<path d="M14.5352 17.0707L15.6625 19.3255C15.7376 19.4769 15.8619 19.5984 16.015 19.6701C16.1681 19.7418 16.341 19.7594 16.5054 19.7201C18.806 19.1576 20.7892 18.177 22.2336 16.9216C22.3439 16.8267 22.4245 16.702 22.4656 16.5625C22.5067 16.423 22.5066 16.2745 22.4653 16.135L19.2803 5.51819C19.2481 5.41113 19.1925 5.31259 19.1175 5.22973C19.0425 5.14688 18.9499 5.08179 18.8466 5.03921C17.9467 4.6708 17.0161 4.38271 16.0655 4.17831C15.8844 4.13862 15.695 4.16727 15.5337 4.25876C15.3725 4.35024 15.2507 4.4981 15.1918 4.67391L14.4443 6.91638" stroke="white" stroke-width="1.5" stroke-linecap="round" stroke-linejoin="round"/>
<path d="M9.46508 17.0707L8.3377 19.3255C8.26259 19.4769 8.13832 19.5984 7.98521 19.6701C7.8321 19.7418 7.65921 19.7594 7.49478 19.7201C5.19428 19.1576 3.21109 18.177 1.76665 16.9216C1.65635 16.8267 1.5758 16.702 1.53468 16.5625C1.49357 16.423 1.49365 16.2745 1.53491 16.135L4.71995 5.51818C4.75211 5.41113 4.80772 5.31258 4.88275 5.22973C4.95778 5.14687 5.05034 5.08179 5.15369 5.0392C6.0535 4.67079 6.98415 4.38271 7.93473 4.17831C8.11584 4.13862 8.30523 4.16727 8.4665 4.25876C8.62777 4.35024 8.74954 4.4981 8.80841 4.67391L9.55589 6.91638" stroke="white" stroke-width="1.5" stroke-linecap="round" stroke-linejoin="round"/>
</svg>
