<svg width="24" height="24" viewBox="0 0 24 24" fill="none" xmlns="http://www.w3.org/2000/svg">
<path d="M12 21C16.9706 21 21 16.9706 21 12C21 7.02944 16.9706 3 12 3C7.02944 3 3 7.02944 3 12C3 16.9706 7.02944 21 12 21Z" stroke="white" stroke-width="1.5" stroke-linecap="round" stroke-linejoin="round"/>
<path d="M12 8.4375C12.5178 8.4375 12.9375 8.01777 12.9375 7.5C12.9375 6.98223 12.5178 6.5625 12 6.5625C11.4822 6.5625 11.0625 6.98223 11.0625 7.5C11.0625 8.01777 11.4822 8.4375 12 8.4375Z" fill="white"/>
<path d="M12 12.9375C12.5178 12.9375 12.9375 12.5178 12.9375 12C12.9375 11.4822 12.5178 11.0625 12 11.0625C11.4822 11.0625 11.0625 11.4822 11.0625 12C11.0625 12.5178 11.4822 12.9375 12 12.9375Z" fill="white"/>
<path d="M12 17.4375C12.5178 17.4375 12.9375 17.0178 12.9375 16.5C12.9375 15.9822 12.5178 15.5625 12 15.5625C11.4822 15.5625 11.0625 15.9822 11.0625 16.5C11.0625 17.0178 11.4822 17.4375 12 17.4375Z" fill="white"/>
</svg>
