<svg width="24" height="24" viewBox="0 0 24 24" fill="none" xmlns="http://www.w3.org/2000/svg">
<path d="M5.625 6.5625C6.14277 6.5625 6.5625 6.14277 6.5625 5.625C6.5625 5.10723 6.14277 4.6875 5.625 4.6875C5.10723 4.6875 4.6875 5.10723 4.6875 5.625C4.6875 6.14277 5.10723 6.5625 5.625 6.5625Z" fill="white"/>
<path d="M12 6.5625C12.5178 6.5625 12.9375 6.14277 12.9375 5.625C12.9375 5.10723 12.5178 4.6875 12 4.6875C11.4822 4.6875 11.0625 5.10723 11.0625 5.625C11.0625 6.14277 11.4822 6.5625 12 6.5625Z" fill="white"/>
<path d="M18.375 6.5625C18.8928 6.5625 19.3125 6.14277 19.3125 5.625C19.3125 5.10723 18.8928 4.6875 18.375 4.6875C17.8572 4.6875 17.4375 5.10723 17.4375 5.625C17.4375 6.14277 17.8572 6.5625 18.375 6.5625Z" fill="white"/>
<path d="M5.625 12.9375C6.14277 12.9375 6.5625 12.5178 6.5625 12C6.5625 11.4822 6.14277 11.0625 5.625 11.0625C5.10723 11.0625 4.6875 11.4822 4.6875 12C4.6875 12.5178 5.10723 12.9375 5.625 12.9375Z" fill="white"/>
<path d="M12 12.9375C12.5178 12.9375 12.9375 12.5178 12.9375 12C12.9375 11.4822 12.5178 11.0625 12 11.0625C11.4822 11.0625 11.0625 11.4822 11.0625 12C11.0625 12.5178 11.4822 12.9375 12 12.9375Z" fill="white"/>
<path d="M18.375 12.9375C18.8928 12.9375 19.3125 12.5178 19.3125 12C19.3125 11.4822 18.8928 11.0625 18.375 11.0625C17.8572 11.0625 17.4375 11.4822 17.4375 12C17.4375 12.5178 17.8572 12.9375 18.375 12.9375Z" fill="white"/>
<path d="M5.625 19.3125C6.14277 19.3125 6.5625 18.8928 6.5625 18.375C6.5625 17.8572 6.14277 17.4375 5.625 17.4375C5.10723 17.4375 4.6875 17.8572 4.6875 18.375C4.6875 18.8928 5.10723 19.3125 5.625 19.3125Z" fill="white"/>
<path d="M12 19.3125C12.5178 19.3125 12.9375 18.8928 12.9375 18.375C12.9375 17.8572 12.5178 17.4375 12 17.4375C11.4822 17.4375 11.0625 17.8572 11.0625 18.375C11.0625 18.8928 11.4822 19.3125 12 19.3125Z" fill="white"/>
<path d="M18.375 19.3125C18.8928 19.3125 19.3125 18.8928 19.3125 18.375C19.3125 17.8572 18.8928 17.4375 18.375 17.4375C17.8572 17.4375 17.4375 17.8572 17.4375 18.375C17.4375 18.8928 17.8572 19.3125 18.375 19.3125Z" fill="white"/>
</svg>
