<svg width="24" height="24" viewBox="0 0 24 24" fill="none" xmlns="http://www.w3.org/2000/svg">
<path d="M5.625 9.75C6.24632 9.75 6.75 9.24632 6.75 8.625C6.75 8.00368 6.24632 7.5 5.625 7.5C5.00368 7.5 4.5 8.00368 4.5 8.625C4.5 9.24632 5.00368 9.75 5.625 9.75Z" fill="white"/>
<path d="M12 9.75C12.6213 9.75 13.125 9.24632 13.125 8.625C13.125 8.00368 12.6213 7.5 12 7.5C11.3787 7.5 10.875 8.00368 10.875 8.625C10.875 9.24632 11.3787 9.75 12 9.75Z" fill="white"/>
<path d="M18.375 9.75C18.9963 9.75 19.5 9.24632 19.5 8.625C19.5 8.00368 18.9963 7.5 18.375 7.5C17.7537 7.5 17.25 8.00368 17.25 8.625C17.25 9.24632 17.7537 9.75 18.375 9.75Z" fill="white"/>
<path d="M5.625 16.5C6.24632 16.5 6.75 15.9963 6.75 15.375C6.75 14.7537 6.24632 14.25 5.625 14.25C5.00368 14.25 4.5 14.7537 4.5 15.375C4.5 15.9963 5.00368 16.5 5.625 16.5Z" fill="white"/>
<path d="M12 16.5C12.6213 16.5 13.125 15.9963 13.125 15.375C13.125 14.7537 12.6213 14.25 12 14.25C11.3787 14.25 10.875 14.7537 10.875 15.375C10.875 15.9963 11.3787 16.5 12 16.5Z" fill="white"/>
<path d="M18.375 16.5C18.9963 16.5 19.5 15.9963 19.5 15.375C19.5 14.7537 18.9963 14.25 18.375 14.25C17.7537 14.25 17.25 14.7537 17.25 15.375C17.25 15.9963 17.7537 16.5 18.375 16.5Z" fill="white"/>
</svg>
