<svg width="24" height="24" viewBox="0 0 24 24" fill="none" xmlns="http://www.w3.org/2000/svg">
<path d="M20.25 12.75C20.25 17.5786 13.2713 19.2351 12.1509 19.4699C12.0514 19.4909 11.9486 19.4909 11.8491 19.4699C10.7287 19.2351 3.75 17.5786 3.75 12.75V7.27537C3.75 7.12142 3.79738 6.97119 3.8857 6.8451C3.97402 6.719 4.09901 6.62314 4.24369 6.57052L11.7437 3.84325C11.9093 3.78304 12.0907 3.78304 12.2563 3.84325L19.7563 6.57052C19.901 6.62314 20.026 6.719 20.1143 6.8451C20.2026 6.97119 20.25 7.12142 20.25 7.27537V12.75Z" stroke="white" stroke-width="1.5" stroke-linecap="round" stroke-linejoin="round"/>
<path d="M8.25 10.5H15.75" stroke="white" stroke-width="1.5" stroke-linecap="round" stroke-linejoin="round"/>
<path d="M8.25 13.5H15.75" stroke="white" stroke-width="1.5" stroke-linecap="round" stroke-linejoin="round"/>
<path d="M20.0068 14.25H20.9997C21.5964 14.25 22.1687 14.0129 22.5907 13.591C23.0126 13.169 23.2497 12.5967 23.2497 12V9.75C23.2497 9.15326 23.0126 8.58097 22.5907 8.15901C22.1687 7.73705 21.5964 7.5 20.9997 7.5H20.2497" stroke="white" stroke-width="1.5" stroke-linecap="round" stroke-linejoin="round"/>
<path d="M3.99293 14.25H3C2.40326 14.25 1.83097 14.0129 1.40901 13.591C0.987053 13.169 0.75 12.5967 0.75 12V9.75C0.75 9.15326 0.987053 8.58097 1.40901 8.15901C1.83097 7.73705 2.40326 7.5 3 7.5H3.75" stroke="white" stroke-width="1.5" stroke-linecap="round" stroke-linejoin="round"/>
</svg>
