<svg width="24" height="24" viewBox="0 0 24 24" fill="none" xmlns="http://www.w3.org/2000/svg">
<path d="M4.75195 17.3365C5.57576 15.6787 6.00315 13.8521 6.00044 12.0009C5.99959 11.1013 6.20142 10.2131 6.59094 9.40216C6.98045 8.59125 7.54765 7.87852 8.25041 7.31689" stroke="white" stroke-width="1.5" stroke-linecap="round" stroke-linejoin="round"/>
<path d="M12.0007 12.0007C12.0054 15.0503 11.2317 18.0506 9.75293 20.7176" stroke="white" stroke-width="1.5" stroke-linecap="round" stroke-linejoin="round"/>
<path d="M9.00098 12.0007C9.00098 11.2051 9.31705 10.442 9.87966 9.87941C10.4423 9.3168 11.2053 9.00073 12.001 9.00073C12.7966 9.00073 13.5597 9.3168 14.1223 9.87941C14.6849 10.442 15.001 11.2051 15.001 12.0007C15.0054 15.093 14.3242 18.1477 13.0064 20.9451" stroke="white" stroke-width="1.5" stroke-linecap="round" stroke-linejoin="round"/>
<path d="M20.4903 17.2507C20.8304 15.5215 21.0013 13.7631 21.0004 12.0007C21.0004 9.61378 20.0522 7.3246 18.3644 5.63677C16.6765 3.94894 14.3874 3.00073 12.0004 3.00073C9.61346 3.00073 7.32427 3.94894 5.63645 5.63677C3.94862 7.3246 3.00041 9.61378 3.00041 12.0007C3.00153 13.0226 2.82833 14.0371 2.48828 15.0008" stroke="white" stroke-width="1.5" stroke-linecap="round" stroke-linejoin="round"/>
<path d="M8.70021 15.0007C8.38002 16.5778 7.80651 18.0925 7.00195 19.4862" stroke="white" stroke-width="1.5" stroke-linecap="round" stroke-linejoin="round"/>
<path d="M11.251 6.04716C12.0955 5.94153 12.9528 6.01663 13.766 6.26748C14.5793 6.51832 15.33 6.93917 15.9682 7.50214C16.6065 8.0651 17.1178 8.75732 17.4683 9.53289C17.8187 10.3085 18.0003 11.1497 18.001 12.0007C18.0012 13.0036 17.9392 14.0055 17.8153 15.0007" stroke="white" stroke-width="1.5" stroke-linecap="round" stroke-linejoin="round"/>
<path d="M17.2445 18.0007C17.1017 18.5556 16.9398 19.1025 16.7588 19.6414" stroke="white" stroke-width="1.5" stroke-linecap="round" stroke-linejoin="round"/>
</svg>
