<svg width="24" height="24" viewBox="0 0 24 24" fill="none" xmlns="http://www.w3.org/2000/svg">
<path d="M16.4997 12.0007C16.5034 14.9331 15.9322 17.8378 14.8184 20.5505" stroke="white" stroke-width="1.5" stroke-linecap="round" stroke-linejoin="round"/>
<path d="M15.353 9.00045C14.7454 8.32124 13.9459 7.84251 13.0602 7.62762C12.1746 7.41273 11.2446 7.47181 10.3933 7.79702C9.54194 8.12224 8.80942 8.69828 8.29262 9.44891C7.77583 10.1995 7.49912 11.0894 7.49911 12.0007C7.50265 14.2878 6.92247 16.5379 5.81348 18.5381" stroke="white" stroke-width="1.5" stroke-linecap="round" stroke-linejoin="round"/>
<path d="M8.99902 3.51287C10.3567 3.03435 11.8093 2.88826 13.2351 3.08683C14.6609 3.2854 16.0183 3.82286 17.1936 4.65415C18.3689 5.48544 19.3278 6.58635 19.9899 7.8646C20.652 9.14284 20.9981 10.5612 20.9991 12.0007C21.0003 14.0194 20.7759 16.0319 20.33 18.0007" stroke="white" stroke-width="1.5" stroke-linecap="round" stroke-linejoin="round"/>
<path d="M2.18359 15.7508C2.72306 14.5743 3.00146 13.295 2.99966 12.0008C2.99823 10.7343 3.26479 9.48179 3.78183 8.32562C4.29887 7.16945 5.05469 6.13577 5.99963 5.29248" stroke="white" stroke-width="1.5" stroke-linecap="round" stroke-linejoin="round"/>
<path d="M10.366 19.5007C10.1758 19.915 9.97068 20.3206 9.75049 20.7175" stroke="white" stroke-width="1.5" stroke-linecap="round" stroke-linejoin="round"/>
<path d="M11.9982 12.0007C11.9994 13.5186 11.8088 15.0306 11.4312 16.5008" stroke="white" stroke-width="1.5" stroke-linecap="round" stroke-linejoin="round"/>
</svg>
