<svg width="24" height="24" viewBox="0 0 24 24" fill="none" xmlns="http://www.w3.org/2000/svg">
<path d="M20.25 8.56066V19.5C20.25 19.6989 20.171 19.8897 20.0303 20.0303C19.8897 20.171 19.6989 20.25 19.5 20.25H4.5C4.30109 20.25 4.11032 20.171 3.96967 20.0303C3.82902 19.8897 3.75 19.6989 3.75 19.5V4.5C3.75 4.30109 3.82902 4.11032 3.96967 3.96967C4.11032 3.82902 4.30109 3.75 4.5 3.75H15.4393C15.5378 3.75 15.6354 3.7694 15.7264 3.80709C15.8173 3.84478 15.9 3.90003 15.9697 3.96967L20.0303 8.03033C20.1 8.09997 20.1552 8.18265 20.1929 8.27365C20.2306 8.36464 20.25 8.46217 20.25 8.56066Z" stroke="white" stroke-width="1.5" stroke-linecap="round" stroke-linejoin="round"/>
<path d="M7.5 20.2507V14.2507C7.5 14.0518 7.57902 13.8611 7.71967 13.7204C7.86032 13.5797 8.05109 13.5007 8.25 13.5007H15.75C15.9489 13.5007 16.1397 13.5797 16.2803 13.7204C16.421 13.8611 16.5 14.0518 16.5 14.2507V20.2507" stroke="white" stroke-width="1.5" stroke-linecap="round" stroke-linejoin="round"/>
<path d="M14.25 6.75073H9" stroke="white" stroke-width="1.5" stroke-linecap="round" stroke-linejoin="round"/>
</svg>
