<svg width="24" height="24" viewBox="0 0 24 24" fill="none" xmlns="http://www.w3.org/2000/svg">
<path d="M12 14.625C13.4497 14.625 14.625 13.4497 14.625 12C14.625 10.5503 13.4497 9.375 12 9.375C10.5503 9.375 9.375 10.5503 9.375 12C9.375 13.4497 10.5503 14.625 12 14.625Z" stroke="white" stroke-width="1.5" stroke-linecap="round" stroke-linejoin="round"/>
<path d="M10.7839 9.67335C10.0971 8.22923 9.375 6.43013 9.375 5.25C9.375 4.55381 9.65156 3.88613 10.1438 3.39384C10.6361 2.90156 11.3038 2.625 12 2.625C12.6962 2.625 13.3639 2.90156 13.8562 3.39384C14.3484 3.88613 14.625 4.55381 14.625 5.25C14.625 6.43013 13.9029 8.22923 13.2161 9.67335" stroke="white" stroke-width="1.5" stroke-linecap="round" stroke-linejoin="round"/>
<path d="M9.37683 11.89C7.78281 11.7627 5.86367 11.4885 4.84165 10.8984C4.23894 10.5502 3.7992 9.97691 3.61914 9.30453C3.43908 8.63216 3.53344 7.9158 3.88148 7.31299C4.22951 6.71019 4.80271 6.27029 5.47503 6.09004C6.14735 5.90979 6.86374 6.00394 7.46665 6.35181C8.48867 6.94187 9.68567 8.46682 10.5929 9.78362" stroke="white" stroke-width="1.5" stroke-linecap="round" stroke-linejoin="round"/>
<path d="M10.5929 14.2167C9.68567 15.5335 8.48867 17.0585 7.46665 17.6485C6.86374 17.9964 6.14735 18.0905 5.47503 17.9103C4.80271 17.73 4.22951 17.2901 3.88148 16.6873C3.53344 16.0845 3.43908 15.3682 3.61914 14.6958C3.7992 14.0234 4.23894 13.4501 4.84165 13.1019C5.86367 12.5118 7.78281 12.2377 9.37683 12.1104" stroke="white" stroke-width="1.5" stroke-linecap="round" stroke-linejoin="round"/>
<path d="M13.2161 14.3267C13.9029 15.7708 14.625 17.5699 14.625 18.75C14.625 19.4462 14.3484 20.1139 13.8562 20.6062C13.3639 21.0985 12.6962 21.375 12 21.375C11.3038 21.375 10.6361 21.0985 10.1438 20.6062C9.65156 20.1139 9.375 19.4462 9.375 18.75C9.375 17.5699 10.0971 15.7708 10.7839 14.3267" stroke="white" stroke-width="1.5" stroke-linecap="round" stroke-linejoin="round"/>
<path d="M14.6228 12.1104C16.2169 12.2377 18.136 12.5118 19.158 13.1019C19.7607 13.4501 20.2005 14.0234 20.3805 14.6958C20.5606 15.3682 20.4662 16.0845 20.1182 16.6873C19.7702 17.2901 19.197 17.73 18.5246 17.9103C17.8523 18.0905 17.1359 17.9964 16.533 17.6485C15.511 17.0585 14.314 15.5335 13.4067 14.2167" stroke="white" stroke-width="1.5" stroke-linecap="round" stroke-linejoin="round"/>
<path d="M13.4067 9.78362C14.314 8.46681 15.511 6.94187 16.533 6.35181C17.1359 6.00394 17.8523 5.90979 18.5246 6.09004C19.197 6.27029 19.7702 6.71019 20.1182 7.31299C20.4662 7.9158 20.5606 8.63216 20.3805 9.30453C20.2005 9.97691 19.7607 10.5502 19.158 10.8984C18.136 11.4885 16.2169 11.7627 14.6228 11.89" stroke="white" stroke-width="1.5" stroke-linecap="round" stroke-linejoin="round"/>
</svg>
