<svg width="24" height="24" viewBox="0 0 24 24" fill="none" xmlns="http://www.w3.org/2000/svg">
<path d="M12 18.7499C13.5 18.7499 15.9802 18.733 18.8334 17.0857C21.6866 15.4384 22.6099 13.3749 22.9053 12.3184C22.9318 12.2229 22.9391 12.1231 22.9266 12.0247C22.9141 11.9264 22.8821 11.8316 22.8326 11.7457C22.783 11.6599 22.7168 11.5848 22.6379 11.5248C22.559 11.4648 22.469 11.4212 22.373 11.3964C21.6809 11.219 20.4858 11.0586 18.9484 11.4234" stroke="white" stroke-width="1.5" stroke-linecap="round" stroke-linejoin="round"/>
<path d="M5.05132 11.4233C3.51394 11.0587 2.31892 11.219 1.62691 11.3964C1.53094 11.4212 1.44088 11.4648 1.36197 11.5248C1.28307 11.5848 1.2169 11.6599 1.16734 11.7457C1.11779 11.8316 1.08583 11.9264 1.07333 12.0247C1.06084 12.1231 1.06806 12.2229 1.09458 12.3184C1.39002 13.3749 2.31331 15.4384 5.16648 17.0857C8.01966 18.733 10.4999 18.7499 11.9999 18.7499" stroke="white" stroke-width="1.5" stroke-linecap="round" stroke-linejoin="round"/>
<path d="M12 18.75C12 18.75 15.75 16.7046 15.75 11.25C15.75 6.9765 13.4481 4.79561 12.4513 4.05155C12.321 3.95406 12.1627 3.90137 12 3.90137C11.8373 3.90137 11.679 3.95406 11.5487 4.05155C10.5519 4.79561 8.25 6.9765 8.25 11.25C8.25 16.7046 12 18.75 12 18.75Z" stroke="white" stroke-width="1.5" stroke-linecap="round" stroke-linejoin="round"/>
<path d="M12 18.75C13.1241 18.5109 16.1559 16.8017 17.9731 13.6543C19.7902 10.5069 19.3426 7.99373 18.9877 6.9007C18.9305 6.72433 18.81 6.5754 18.6495 6.4827C18.4889 6.39001 18.2997 6.36013 18.1184 6.39884C17.0435 6.64253 16.0382 7.12776 15.1788 7.81775" stroke="white" stroke-width="1.5" stroke-linecap="round" stroke-linejoin="round"/>
<path d="M8.82116 7.81772C7.9617 7.12775 6.95641 6.64253 5.88154 6.39884C5.70023 6.36013 5.51102 6.39001 5.35046 6.4827C5.18991 6.5754 5.06943 6.72433 5.0123 6.9007C4.65731 7.99373 4.20974 10.5069 6.02688 13.6543C7.84402 16.8017 10.8759 18.5109 12 18.75" stroke="white" stroke-width="1.5" stroke-linecap="round" stroke-linejoin="round"/>
</svg>
