<svg width="24" height="24" viewBox="0 0 24 24" fill="none" xmlns="http://www.w3.org/2000/svg">
<path d="M7.875 22.5C8.47174 22.5 9.04403 22.2629 9.46599 21.841C9.88795 21.419 10.125 20.8467 10.125 20.25V15.75" stroke="white" stroke-width="1.5" stroke-linecap="round" stroke-linejoin="round"/>
<path d="M16.125 22.5C15.5283 22.5 14.956 22.2629 14.534 21.841C14.1121 21.419 13.875 20.8467 13.875 20.25V15.75" stroke="white" stroke-width="1.5" stroke-linecap="round" stroke-linejoin="round"/>
<path d="M14.25 15.75H15.75C16.3467 15.75 16.919 15.9871 17.341 16.409C17.7629 16.831 18 17.4033 18 18V18.75C18 19.3467 18.2371 19.919 18.659 20.341C19.081 20.7629 19.6533 21 20.25 21" stroke="white" stroke-width="1.5" stroke-linecap="round" stroke-linejoin="round"/>
<path d="M9.75 15.75H8.25C7.65326 15.75 7.08097 15.9871 6.65901 16.409C6.23705 16.831 6 17.4033 6 18V18.75C6 19.3467 5.76295 19.919 5.34099 20.341C4.91903 20.7629 4.34674 21 3.75 21" stroke="white" stroke-width="1.5" stroke-linecap="round" stroke-linejoin="round"/>
<path d="M10.4836 5.99994C10.043 5.30985 9.43561 4.74194 8.7175 4.34869C7.99938 3.95544 7.19374 3.74953 6.375 3.75C6.01065 4.37968 5.79213 5.08305 5.73553 5.80834C5.67894 6.53363 5.7857 7.26238 6.04796 7.94096C5.53481 8.69632 5.25712 9.58685 5.25 10.5V11.25C5.25 12.4435 5.72411 13.5881 6.56802 14.432C7.41193 15.2759 8.55653 15.75 9.75 15.75H14.25C15.4435 15.75 16.5881 15.2759 17.432 14.432C18.2759 13.5881 18.75 12.4435 18.75 11.25V10.5C18.7429 9.58685 18.4652 8.69632 17.952 7.94096C18.2143 7.26239 18.3211 6.53363 18.2645 5.80834C18.2079 5.08305 17.9894 4.37968 17.625 3.75C16.8063 3.74953 16.0006 3.95544 15.2825 4.3487C14.5644 4.74196 13.9569 5.30988 13.5164 5.99998L10.4836 5.99994Z" stroke="white" stroke-width="1.5" stroke-linecap="round" stroke-linejoin="round"/>
</svg>
