<svg width="24" height="24" viewBox="0 0 24 24" fill="none" xmlns="http://www.w3.org/2000/svg">
<path d="M12 15.7495C15.7279 15.7495 18.75 12.7274 18.75 8.99951C18.75 5.27159 15.7279 2.24951 12 2.24951C8.27208 2.24951 5.25 5.27159 5.25 8.99951C5.25 12.7274 8.27208 15.7495 12 15.7495Z" stroke="white" stroke-width="1.5" stroke-linecap="round" stroke-linejoin="round"/>
<path d="M18.8943 15.8938C17.0658 17.7223 14.5859 18.7495 12 18.7495C9.41414 18.7495 6.93419 17.7223 5.10571 15.8938C3.27723 14.0653 2.25 11.5854 2.25 8.99952C2.25 6.41366 3.27723 3.9337 5.10571 2.10522" stroke="white" stroke-width="1.5" stroke-linecap="round" stroke-linejoin="round"/>
<path d="M9 21.7495H15" stroke="white" stroke-width="1.5" stroke-linecap="round" stroke-linejoin="round"/>
<path d="M12 18.7495V21.7495" stroke="white" stroke-width="1.5" stroke-linecap="round" stroke-linejoin="round"/>
</svg>
