<svg width="24" height="24" viewBox="0 0 24 24" fill="none" xmlns="http://www.w3.org/2000/svg">
<path d="M7.5 9.75H16.5C17.2956 9.75 18.0587 10.0661 18.6213 10.6287C19.1839 11.1913 19.5 11.9544 19.5 12.75V20.25C19.5 20.4489 19.421 20.6397 19.2803 20.7803C19.1397 20.921 18.9489 21 18.75 21H5.25C5.05109 21 4.86032 20.921 4.71967 20.7803C4.57902 20.6397 4.5 20.4489 4.5 20.25V12.75C4.5 11.9544 4.81607 11.1913 5.37868 10.6287C5.94129 10.0661 6.70435 9.75 7.5 9.75V9.75Z" stroke="white" stroke-width="1.5" stroke-linecap="round" stroke-linejoin="round"/>
<path d="M7.5 9.75V8.25C7.5 7.65326 7.73705 7.08097 8.15901 6.65901C8.58097 6.23705 9.15326 6 9.75 6H14.25C14.8467 6 15.419 6.23705 15.841 6.65901C16.2629 7.08097 16.5 7.65326 16.5 8.25V9.75" stroke="white" stroke-width="1.5" stroke-linecap="round" stroke-linejoin="round"/>
<path d="M17.25 3.75C17.25 3.35218 17.092 2.97064 16.8107 2.68934C16.5294 2.40804 16.1478 2.25 15.75 2.25H9.75" stroke="white" stroke-width="1.5" stroke-linecap="round" stroke-linejoin="round"/>
<path d="M12 2.25V6" stroke="white" stroke-width="1.5" stroke-linecap="round" stroke-linejoin="round"/>
</svg>
