<svg width="24" height="24" viewBox="0 0 24 24" fill="none" xmlns="http://www.w3.org/2000/svg">
<path d="M20.0045 10.2769L12.504 3.45799C12.3659 3.33248 12.186 3.26293 11.9995 3.26294C11.8129 3.26295 11.633 3.3325 11.4949 3.45803L3.99545 10.2769C3.91814 10.3472 3.85637 10.4329 3.8141 10.5284C3.77183 10.624 3.75 10.7273 3.75 10.8318V19.5001C3.75 19.699 3.82902 19.8898 3.96967 20.0304C4.11032 20.1711 4.30109 20.2501 4.5 20.2501H19.5C19.6989 20.2501 19.8897 20.1711 20.0303 20.0304C20.171 19.8898 20.25 19.699 20.25 19.5001V10.8319C20.25 10.7274 20.2282 10.624 20.1859 10.5284C20.1436 10.4329 20.0818 10.3472 20.0045 10.2769Z" stroke="white" stroke-width="1.5" stroke-linecap="round" stroke-linejoin="round"/>
</svg>
