<svg width="24" height="24" viewBox="0 0 24 24" fill="none" xmlns="http://www.w3.org/2000/svg">
<path d="M13.7335 8.48341L18.75 13.4999C18.75 13.4999 12 22.4999 2.25 20.2499L18.5492 3.54908C18.7233 3.37489 18.93 3.23669 19.1575 3.1424C19.385 3.0481 19.6288 2.99955 19.8751 2.99951C20.1214 2.99948 20.3653 3.04796 20.5928 3.14218C20.8203 3.23641 21.0271 3.37454 21.2012 3.54869C21.3754 3.72283 21.5135 3.92957 21.6077 4.15711C21.7019 4.38464 21.7504 4.62851 21.7504 4.87479C21.7504 5.12107 21.7018 5.36492 21.6075 5.59243C21.5132 5.81994 21.375 6.02664 21.2008 6.20073L16.479 11.23" stroke="white" stroke-width="1.5" stroke-linecap="round" stroke-linejoin="round"/>
</svg>
