<svg width="24" height="24" viewBox="0 0 24 24" fill="none" xmlns="http://www.w3.org/2000/svg">
<path d="M16.125 14.8125C16.6428 14.8125 17.0625 14.3928 17.0625 13.875C17.0625 13.3572 16.6428 12.9375 16.125 12.9375C15.6072 12.9375 15.1875 13.3572 15.1875 13.875C15.1875 14.3928 15.6072 14.8125 16.125 14.8125Z" fill="white"/>
<path d="M19.2721 15.3148C18.9322 16.6786 18.2159 17.9195 17.2049 18.896C16.1939 19.8724 14.9289 20.5452 13.5541 20.8375C12.1793 21.1299 10.75 21.0301 9.42919 20.5495C8.10836 20.0689 6.94915 19.2268 6.0837 18.1193C5.21825 17.0118 4.68139 15.6834 4.53434 14.2856C4.38728 12.8877 4.63594 11.4767 5.25196 10.2133C5.86799 8.94998 6.82659 7.88512 8.01849 7.14017C9.21039 6.39522 10.5876 6.00015 11.9932 6" stroke="white" stroke-width="1.5" stroke-linecap="round" stroke-linejoin="round"/>
<path d="M6.30456 8.61249C5.63398 8.54625 5.01454 8.22467 4.57451 7.71434C4.13447 7.20401 3.90753 6.544 3.94068 5.87097C3.97383 5.19794 4.26452 4.56343 4.75257 4.0988C5.24062 3.63418 5.88866 3.37503 6.56251 3.375L17.4375 8.625C18.1337 8.625 18.8014 8.34844 19.2937 7.85616C19.7859 7.36387 20.0625 6.69619 20.0625 6C20.0625 5.30381 19.7859 4.63613 19.2937 4.14384C18.8014 3.65156 18.1337 3.375 17.4375 3.375" stroke="white" stroke-width="1.5" stroke-linecap="round" stroke-linejoin="round"/>
<path d="M4.55566 14.467L11.9939 10.5V21" stroke="white" stroke-width="1.5" stroke-linecap="round" stroke-linejoin="round"/>
<path d="M8.99316 12.1001V20.376" stroke="white" stroke-width="1.5" stroke-linecap="round" stroke-linejoin="round"/>
</svg>
