<svg width="24" height="24" viewBox="0 0 24 24" fill="none" xmlns="http://www.w3.org/2000/svg">
<path d="M20.7763 14.002C20.9311 13.3199 21.006 12.6222 20.9997 11.9228C20.9581 6.97002 16.8602 2.95057 11.9075 3.00046C9.79214 3.02257 7.75217 3.78898 6.14557 5.1652C4.53897 6.54141 3.46839 8.4395 3.12171 10.5263C2.77504 12.6132 3.17441 14.7555 4.24975 16.5772C5.32509 18.399 7.00769 19.7838 9.00226 20.4887C9.34162 20.6082 9.7047 20.6446 10.061 20.5949C10.4174 20.5451 10.7566 20.4106 11.0502 20.2027C11.3439 19.9947 11.5834 19.7194 11.7486 19.3998C11.9139 19.0802 12.0001 18.7256 12 18.3658V18C12 17.4033 12.2371 16.831 12.659 16.409C13.081 15.987 13.6533 15.75 14.25 15.75H18.5821C19.0918 15.7503 19.5865 15.5776 19.9851 15.26C20.3838 14.9424 20.6627 14.4989 20.7763 14.002V14.002Z" stroke="white" stroke-width="1.5" stroke-linecap="round" stroke-linejoin="round"/>
<path d="M12 8.0625C12.5178 8.0625 12.9375 7.64277 12.9375 7.125C12.9375 6.60723 12.5178 6.1875 12 6.1875C11.4822 6.1875 11.0625 6.60723 11.0625 7.125C11.0625 7.64277 11.4822 8.0625 12 8.0625Z" fill="white"/>
<path d="M7.77816 10.4999C8.29584 10.4999 8.71551 10.0803 8.71551 9.56259C8.71551 9.04491 8.29584 8.62524 7.77816 8.62524C7.26048 8.62524 6.84082 9.04491 6.84082 9.56259C6.84082 10.0803 7.26048 10.4999 7.77816 10.4999Z" fill="white"/>
<path d="M7.77816 15.3749C8.29584 15.3749 8.71551 14.9553 8.71551 14.4376C8.71551 13.9199 8.29584 13.5002 7.77816 13.5002C7.26048 13.5002 6.84082 13.9199 6.84082 14.4376C6.84082 14.9553 7.26048 15.3749 7.77816 15.3749Z" fill="white"/>
<path d="M16.2215 10.4999C16.7392 10.4999 17.1589 10.0803 17.1589 9.56259C17.1589 9.04491 16.7392 8.62524 16.2215 8.62524C15.7038 8.62524 15.2842 9.04491 15.2842 9.56259C15.2842 10.0803 15.7038 10.4999 16.2215 10.4999Z" fill="white"/>
</svg>
