<svg width="24" height="24" viewBox="0 0 24 24" fill="none" xmlns="http://www.w3.org/2000/svg">
<path d="M7.31295 13.5H17.8129C18.2108 13.5 18.5923 13.3419 18.8736 13.0606C19.1549 12.7793 19.3129 12.3978 19.3129 12C19.3129 11.6022 19.1549 11.2206 18.8736 10.9393C18.5923 10.658 18.2108 10.5 17.8129 10.5H4.31295C2.69684 10.5 1.38672 11.8431 1.38672 13.5C1.38672 15.1569 2.69683 16.5 4.31295 16.5H17.9999C19.1934 16.5 20.338 16.0259 21.1819 15.182C22.0258 14.3381 22.4999 13.1935 22.4999 12C22.4999 10.8065 22.0258 9.66193 21.1819 8.81802C20.338 7.97411 19.1934 7.5 17.9999 7.5H7.4999" stroke="white" stroke-width="1.5" stroke-linecap="round" stroke-linejoin="round"/>
</svg>
