<svg width="24" height="24" viewBox="0 0 24 24" fill="none" xmlns="http://www.w3.org/2000/svg">
<path d="M2.19768 7.09616C2.0947 6.93343 2.05803 6.73741 2.09523 6.54846C2.13242 6.35952 2.24065 6.19202 2.39763 6.08047C5.19875 4.0771 8.55632 3 12.0001 3C15.4439 3 18.8015 4.0771 21.6026 6.08047C21.7596 6.19202 21.8678 6.35952 21.905 6.54846C21.9422 6.73741 21.9056 6.93343 21.8026 7.09616L12.6329 21.5057C12.5651 21.6121 12.4716 21.6998 12.361 21.7605C12.2504 21.8212 12.1263 21.853 12.0001 21.853C11.874 21.853 11.7498 21.8212 11.6392 21.7605C11.5286 21.6998 11.4351 21.6121 11.3674 21.5057L2.19768 7.09616Z" stroke="white" stroke-width="1.5" stroke-linecap="round" stroke-linejoin="round"/>
<path d="M3.44531 9.05629C5.85838 7.07993 8.88129 6 12.0004 6C15.1195 6 18.1424 7.07993 20.5555 9.05629" stroke="white" stroke-width="1.5" stroke-linecap="round" stroke-linejoin="round"/>
<path d="M15.4052 17.15C15.0122 17.0379 14.6508 16.8355 14.3497 16.5591C14.0487 16.2827 13.8163 15.9398 13.6712 15.5578C13.526 15.1757 13.4721 14.7651 13.5136 14.3585C13.5551 13.9519 13.691 13.5607 13.9104 13.2159C14.1298 12.8711 14.4267 12.5823 14.7774 12.3724C15.1282 12.1626 15.523 12.0376 15.9306 12.0072C16.3381 11.9769 16.7472 12.0422 17.1251 12.1978C17.503 12.3534 17.8393 12.5951 18.1073 12.9037" stroke="white" stroke-width="1.5" stroke-linecap="round" stroke-linejoin="round"/>
<path d="M5.42773 12.1729C5.60099 11.7276 5.89248 11.338 6.2708 11.0462C6.64912 10.7543 7.09991 10.5712 7.5746 10.5167C8.04928 10.4621 8.52986 10.5381 8.96453 10.7366C9.3992 10.935 9.77148 11.2482 10.0412 11.6426C10.311 12.037 10.468 12.4975 10.4954 12.9745C10.5227 13.4516 10.4194 13.927 10.1965 14.3496C9.97355 14.7723 9.63952 15.126 9.23037 15.3728C8.82123 15.6196 8.3525 15.7501 7.87469 15.7501C7.81754 15.7501 7.76084 15.7483 7.70458 15.7447" stroke="white" stroke-width="1.5" stroke-linecap="round" stroke-linejoin="round"/>
</svg>
