<svg width="24" height="24" viewBox="0 0 24 24" fill="none" xmlns="http://www.w3.org/2000/svg">
<path d="M8.25 15.75L4.5 19.5" stroke="white" stroke-width="1.5" stroke-linecap="round" stroke-linejoin="round"/>
<path d="M4.5 3.75L19.5 20.25" stroke="white" stroke-width="1.5" stroke-linecap="round" stroke-linejoin="round"/>
<path d="M8.7859 8.46429L8.62519 8.625C8.62519 8.625 6.02419 7.3245 3.24405 9.56723C3.16196 9.63332 3.09468 9.71594 3.0466 9.80973C2.99852 9.90352 2.97071 10.0064 2.96498 10.1116C2.95925 10.2168 2.97572 10.3221 3.01333 10.4206C3.05093 10.519 3.10884 10.6085 3.18327 10.6831L13.2986 20.7984C13.3743 20.8743 13.4655 20.9331 13.5659 20.9708C13.6664 21.0084 13.7737 21.0241 13.8807 21.0167C13.9877 21.0093 14.0919 20.9791 14.1862 20.9279C14.2805 20.8768 14.3627 20.806 14.4273 20.7204C15.1401 19.773 16.2213 17.9199 15.6197 15.9814" stroke="white" stroke-width="1.5" stroke-linecap="round" stroke-linejoin="round"/>
<path d="M17.3378 13.4119L21.2194 9.53022C21.3601 9.38956 21.4391 9.1988 21.4391 8.99989C21.4391 8.80098 21.3601 8.61021 21.2194 8.46956L15.5301 2.78022C15.3894 2.63956 15.1987 2.56055 14.9998 2.56055C14.8008 2.56055 14.6101 2.63956 14.4694 2.78022L10.9092 6.34047" stroke="white" stroke-width="1.5" stroke-linecap="round" stroke-linejoin="round"/>
</svg>
