<svg width="24" height="24" viewBox="0 0 24 24" fill="none" xmlns="http://www.w3.org/2000/svg">
<path d="M14.25 18.7502C13.0074 18.7502 12 17.7055 12 16.4169C12 15.1282 13.0074 14.0835 14.25 14.0835C14.5333 14.0833 14.8139 14.1384 15.076 14.2458L15.0759 14.2458C15.2186 13.5508 15.5554 12.9106 16.0473 12.3994C16.5392 11.8882 17.166 11.527 17.855 11.3578C18.5439 11.1886 19.2667 11.2182 19.9395 11.4433C20.6123 11.6684 21.2074 12.0796 21.6559 12.6294C22.1043 13.1791 22.3875 13.8448 22.4728 14.5491C22.5581 15.2534 22.4418 15.9674 22.1376 16.6083C21.8333 17.2491 21.3535 17.7906 20.7539 18.1697C20.1543 18.5488 19.4594 18.7501 18.75 18.7502H14.25Z" stroke="white" stroke-width="1.5" stroke-linecap="round" stroke-linejoin="round"/>
<path d="M1.5 16.5V15C1.5 13.2307 2.02151 11.5006 2.99933 10.0261C3.97715 8.55153 5.36791 7.39789 6.99776 6.70939C8.62761 6.02088 10.4242 5.82805 12.1631 6.155C13.9019 6.48194 15.5058 7.31416 16.7743 8.54762" stroke="white" stroke-width="1.5" stroke-linecap="round" stroke-linejoin="round"/>
<path d="M4.5 16.5V15C4.50009 13.8911 4.80749 12.8038 5.38807 11.859C5.96865 10.9142 6.79971 10.1487 7.78897 9.6476C8.77824 9.14648 9.88702 8.92931 10.9922 9.02019C12.0975 9.11106 13.1559 9.50644 14.05 10.1624" stroke="white" stroke-width="1.5" stroke-linecap="round" stroke-linejoin="round"/>
<path d="M7.5 16.5V15C7.5004 14.547 7.6033 14.0999 7.801 13.6923C7.9987 13.2847 8.28608 12.9271 8.6416 12.6463C8.99712 12.3655 9.41156 12.1688 9.85389 12.0709C10.2962 11.973 10.755 11.9765 11.1958 12.0811" stroke="white" stroke-width="1.5" stroke-linecap="round" stroke-linejoin="round"/>
</svg>
