<svg width="24" height="24" viewBox="0 0 24 24" fill="none" xmlns="http://www.w3.org/2000/svg">
<path d="M18.75 5.25H5.25C4.00736 5.25 3 6.25736 3 7.5V18C3 19.2426 4.00736 20.25 5.25 20.25H18.75C19.9926 20.25 21 19.2426 21 18V7.5C21 6.25736 19.9926 5.25 18.75 5.25Z" stroke="white" stroke-width="1.5" stroke-linecap="round" stroke-linejoin="round"/>
<path d="M8.625 13.5H15.375C16.4105 13.5 17.25 14.3395 17.25 15.375V15.375C17.25 16.4105 16.4105 17.25 15.375 17.25H8.625C7.58946 17.25 6.75 16.4105 6.75 15.375V15.375C6.75 14.3395 7.58946 13.5 8.625 13.5Z" stroke="white" stroke-width="1.5" stroke-linecap="round" stroke-linejoin="round"/>
<path d="M13.875 13.5V17.25" stroke="white" stroke-width="1.5" stroke-linecap="round" stroke-linejoin="round"/>
<path d="M10.125 13.5V17.25" stroke="white" stroke-width="1.5" stroke-linecap="round" stroke-linejoin="round"/>
<path d="M12 5.25V1.5" stroke="white" stroke-width="1.5" stroke-linecap="round" stroke-linejoin="round"/>
<path d="M7.875 11.25C8.49632 11.25 9 10.7463 9 10.125C9 9.50368 8.49632 9 7.875 9C7.25368 9 6.75 9.50368 6.75 10.125C6.75 10.7463 7.25368 11.25 7.875 11.25Z" fill="white"/>
<path d="M16.125 11.25C16.7463 11.25 17.25 10.7463 17.25 10.125C17.25 9.50368 16.7463 9 16.125 9C15.5037 9 15 9.50368 15 10.125C15 10.7463 15.5037 11.25 16.125 11.25Z" fill="white"/>
</svg>
