<svg width="24" height="24" viewBox="0 0 24 24" fill="none" xmlns="http://www.w3.org/2000/svg">
<path d="M8.81795 17.3032C7.75729 20.4852 3.51465 20.4852 3.51465 20.4852C3.51465 20.4852 3.51465 16.2425 6.69663 15.1819" stroke="white" stroke-width="1.5" stroke-linecap="round" stroke-linejoin="round"/>
<path d="M18.3644 9.87864L12.0005 16.2426L7.75781 12L14.1218 5.636C16.5315 3.22623 18.9413 3.24974 19.969 3.40307C20.1272 3.42666 20.2737 3.50045 20.3868 3.61358C20.5 3.7267 20.5738 3.87318 20.5973 4.03141C20.7507 5.05911 20.7742 7.46887 18.3644 9.87864Z" stroke="white" stroke-width="1.5" stroke-linecap="round" stroke-linejoin="round"/>
<path d="M17.3033 10.9395V16.9928C17.3033 17.0912 17.2839 17.1888 17.2462 17.2798C17.2085 17.3708 17.1533 17.4534 17.0836 17.5231L14.0516 20.5551C13.9556 20.6511 13.8354 20.7193 13.7037 20.7523C13.572 20.7853 13.4338 20.782 13.3039 20.7426C13.174 20.7033 13.0572 20.6294 12.9659 20.5289C12.8747 20.4284 12.8124 20.305 12.7858 20.1719L12 16.2428" stroke="white" stroke-width="1.5" stroke-linecap="round" stroke-linejoin="round"/>
<path d="M13.0609 6.69678H7.00763C6.90914 6.69678 6.81161 6.71618 6.72061 6.75387C6.62962 6.79156 6.54694 6.8468 6.4773 6.91645L3.44526 9.94849C3.34927 10.0445 3.28113 10.1647 3.24811 10.2964C3.21509 10.4281 3.21843 10.5662 3.25777 10.6962C3.29711 10.8261 3.37097 10.9429 3.47148 11.0341C3.57199 11.1254 3.69539 11.1876 3.8285 11.2143L7.75763 12.0001" stroke="white" stroke-width="1.5" stroke-linecap="round" stroke-linejoin="round"/>
</svg>
