<svg width="24" height="24" viewBox="0 0 24 24" fill="none" xmlns="http://www.w3.org/2000/svg">
<path d="M20.1818 14.25H3.81818C3.36631 14.25 3 14.5858 3 15V18.75C3 19.1642 3.36631 19.5 3.81818 19.5H20.1818C20.6337 19.5 21 19.1642 21 18.75V15C21 14.5858 20.6337 14.25 20.1818 14.25Z" stroke="white" stroke-width="1.5" stroke-linecap="round" stroke-linejoin="round"/>
<path d="M20.1818 4.5H3.81818C3.36631 4.5 3 4.83579 3 5.25V9C3 9.41421 3.36631 9.75 3.81818 9.75H20.1818C20.6337 9.75 21 9.41421 21 9V5.25C21 4.83579 20.6337 4.5 20.1818 4.5Z" stroke="white" stroke-width="1.5" stroke-linecap="round" stroke-linejoin="round"/>
</svg>
