<svg width="24" height="24" viewBox="0 0 24 24" fill="none" xmlns="http://www.w3.org/2000/svg">
<path d="M4.49902 13.5C6.09032 13.5 7.61645 14.1321 8.74166 15.2574C9.86688 16.3826 10.499 17.9087 10.499 19.5" stroke="white" stroke-width="1.5" stroke-linecap="round" stroke-linejoin="round"/>
<path d="M4.49902 9C7.2838 9 9.95451 10.1062 11.9236 12.0754C13.8928 14.0445 14.999 16.7152 14.999 19.5" stroke="white" stroke-width="1.5" stroke-linecap="round" stroke-linejoin="round"/>
<path d="M4.49902 4.5C6.46885 4.5 8.41939 4.88799 10.2393 5.64181C12.0592 6.39563 13.7127 7.50052 15.1056 8.8934C16.4985 10.2863 17.6034 11.9399 18.3572 13.7597C19.111 15.5796 19.499 17.5302 19.499 19.5" stroke="white" stroke-width="1.5" stroke-linecap="round" stroke-linejoin="round"/>
<path d="M4.875 20.0625C5.39277 20.0625 5.8125 19.6428 5.8125 19.125C5.8125 18.6072 5.39277 18.1875 4.875 18.1875C4.35723 18.1875 3.9375 18.6072 3.9375 19.125C3.9375 19.6428 4.35723 20.0625 4.875 20.0625Z" fill="white"/>
</svg>
