<svg width="24" height="24" viewBox="0 0 24 24" fill="none" xmlns="http://www.w3.org/2000/svg">
<path d="M17.7028 11.3601L6.39109 4.44744C6.2774 4.37796 6.14725 4.34003 6.01403 4.33753C5.88082 4.33504 5.74934 4.36808 5.63313 4.43326C5.51692 4.49843 5.42017 4.59339 5.35283 4.70836C5.28549 4.82333 5.25 4.95416 5.25 5.0874V18.9128C5.25 19.0461 5.28549 19.1769 5.35283 19.2919C5.42017 19.4068 5.51692 19.5018 5.63313 19.567C5.74934 19.6321 5.88082 19.6652 6.01403 19.6627C6.14725 19.6602 6.2774 19.6223 6.39109 19.5528L17.7028 12.6401C17.8124 12.5731 17.903 12.479 17.9658 12.367C18.0287 12.2549 18.0617 12.1286 18.0617 12.0001C18.0617 11.8716 18.0287 11.7453 17.9658 11.6332C17.903 11.5212 17.8124 11.4271 17.7028 11.3601V11.3601Z" stroke="white" stroke-width="1.5" stroke-linecap="round" stroke-linejoin="round"/>
<path d="M18.75 3.75V20.25" stroke="white" stroke-width="1.5" stroke-linecap="round" stroke-linejoin="round"/>
</svg>
