<svg width="24" height="24" viewBox="0 0 24 24" fill="none" xmlns="http://www.w3.org/2000/svg">
<path d="M12 21C16.9706 21 21 16.9706 21 12C21 7.02944 16.9706 3 12 3C7.02944 3 3 7.02944 3 12C3 16.9706 7.02944 21 12 21Z" stroke="white" stroke-width="1.5" stroke-linecap="round" stroke-linejoin="round"/>
<path d="M16.7934 10.1559C15.3082 9.39541 13.6633 8.99921 11.9948 9C10.3262 9.00079 8.68175 9.39855 7.19727 10.1604" stroke="white" stroke-width="1.5" stroke-linecap="round" stroke-linejoin="round"/>
<path d="M15.403 12.817C14.3476 12.2792 13.1798 11.9992 11.9954 12C10.8109 12.0008 9.6435 12.2823 8.58887 12.8214" stroke="white" stroke-width="1.5" stroke-linecap="round" stroke-linejoin="round"/>
<path d="M14.0132 15.4755C13.3868 15.1621 12.6958 14.9992 11.9953 15C11.2949 15.0008 10.6042 15.1651 9.97852 15.48" stroke="white" stroke-width="1.5" stroke-linecap="round" stroke-linejoin="round"/>
</svg>
