<svg width="24" height="24" viewBox="0 0 24 24" fill="none" xmlns="http://www.w3.org/2000/svg">
<path d="M14.8806 15.3291L12.705 21.3119C12.6524 21.4566 12.5566 21.5815 12.4305 21.6699C12.3044 21.7582 12.1541 21.8056 12.0002 21.8056C11.8462 21.8056 11.696 21.7582 11.5699 21.6699C11.4438 21.5815 11.348 21.4566 11.2953 21.3119L9.1198 15.3291C9.08235 15.2261 9.02278 15.1326 8.94529 15.0551C8.8678 14.9776 8.77426 14.918 8.67127 14.8806L2.68852 12.705C2.54383 12.6524 2.41885 12.5566 2.33052 12.4305C2.2422 12.3044 2.19482 12.1541 2.19482 12.0002C2.19482 11.8462 2.2422 11.696 2.33052 11.5699C2.41885 11.4438 2.54383 11.348 2.68852 11.2953L8.67127 9.1198C8.77426 9.08235 8.8678 9.02278 8.94529 8.94529C9.02278 8.8678 9.08235 8.77426 9.1198 8.67127L11.2953 2.68852C11.348 2.54383 11.4438 2.41885 11.5699 2.33052C11.696 2.2422 11.8462 2.19482 12.0002 2.19482C12.1541 2.19482 12.3044 2.2422 12.4305 2.33052C12.5566 2.41885 12.6524 2.54383 12.705 2.68852L14.8806 8.67127C14.918 8.77426 14.9776 8.8678 15.0551 8.94529C15.1326 9.02278 15.2261 9.08235 15.3291 9.1198L21.3119 11.2953C21.4566 11.348 21.5815 11.4438 21.6699 11.5699C21.7582 11.696 21.8056 11.8462 21.8056 12.0002C21.8056 12.1541 21.7582 12.3044 21.6699 12.4305C21.5815 12.5566 21.4566 12.6524 21.3119 12.705L15.3291 14.8806C15.2261 14.918 15.1326 14.9776 15.0551 15.0551C14.9776 15.1326 14.918 15.2261 14.8806 15.3291Z" stroke="white" stroke-width="1.5" stroke-linecap="round" stroke-linejoin="round"/>
</svg>
