<svg width="24" height="24" viewBox="0 0 24 24" fill="none" xmlns="http://www.w3.org/2000/svg">
<path d="M3.43818 16.2234L5.70574 3.36342C5.74028 3.16753 5.85122 2.99338 6.01416 2.87929C6.1771 2.7652 6.37869 2.72051 6.57458 2.75505L11.7448 3.6667C11.9407 3.70124 12.1149 3.81219 12.229 3.97513C12.343 4.13807 12.3877 4.33965 12.3532 4.53554L10.0741 17.4611C9.9206 18.3314 9.43193 19.1068 8.71301 19.6207C7.9941 20.1346 7.1023 20.3461 6.22919 20.2096C4.35956 19.9167 3.10957 18.0871 3.43818 16.2234Z" stroke="white" stroke-width="1.5" stroke-linecap="round" stroke-linejoin="round"/>
<path d="M11.0888 11.7041L17.9291 9.21442C18.116 9.14639 18.3223 9.1554 18.5026 9.23946C18.6829 9.32352 18.8224 9.47576 18.8904 9.66267L20.686 14.5961C20.7197 14.6886 20.7348 14.7869 20.7305 14.8853C20.7262 14.9837 20.7026 15.0803 20.661 15.1695C20.6194 15.2588 20.5606 15.339 20.4879 15.4055C20.4153 15.4721 20.3303 15.5237 20.2378 15.5573L7.9043 20.0464" stroke="white" stroke-width="1.5" stroke-linecap="round" stroke-linejoin="round"/>
<path d="M20.625 15.2375V19.5001C20.625 19.699 20.546 19.8898 20.4053 20.0304C20.2647 20.1711 20.0739 20.2501 19.875 20.2501H6.75" stroke="white" stroke-width="1.5" stroke-linecap="round" stroke-linejoin="round"/>
<path d="M6.75 17.8125C7.26777 17.8125 7.6875 17.3928 7.6875 16.875C7.6875 16.3572 7.26777 15.9375 6.75 15.9375C6.23223 15.9375 5.8125 16.3572 5.8125 16.875C5.8125 17.3928 6.23223 17.8125 6.75 17.8125Z" fill="white"/>
</svg>
