<svg width="24" height="24" viewBox="0 0 24 24" fill="none" xmlns="http://www.w3.org/2000/svg">
<path d="M7.14355 12.3938L14.2686 3.76884L20.2497 3.75L20.2309 9.73116L11.6059 16.8562" stroke="white" stroke-width="1.5" stroke-linecap="round" stroke-linejoin="round"/>
<path d="M9.375 14.625L15 9" stroke="white" stroke-width="1.5" stroke-linecap="round" stroke-linejoin="round"/>
<path d="M7.70088 18.5114L4.8939 21.3184C4.82425 21.388 4.74157 21.4432 4.65058 21.4809C4.55958 21.5186 4.46206 21.538 4.36357 21.538C4.26507 21.538 4.16755 21.5186 4.07655 21.4809C3.98556 21.4432 3.90288 21.388 3.83324 21.3184L2.68158 20.1667C2.61194 20.0971 2.5567 20.0144 2.519 19.9234C2.48131 19.8324 2.46191 19.7349 2.46191 19.6364C2.46191 19.5379 2.48131 19.4404 2.519 19.3494C2.5567 19.2584 2.61194 19.1757 2.68158 19.106L5.48856 16.2991C5.55821 16.2294 5.61345 16.1467 5.65114 16.0557C5.68884 15.9647 5.70823 15.8672 5.70823 15.7687C5.70823 15.6702 5.68884 15.5727 5.65114 15.4817C5.61345 15.3907 5.55821 15.308 5.48856 15.2384L3.53038 13.2802C3.38973 13.1396 3.31071 12.9488 3.31071 12.7499C3.31071 12.551 3.38973 12.3602 3.53038 12.2196L4.71972 11.0302C4.86038 10.8896 5.05114 10.8105 5.25005 10.8105C5.44896 10.8105 5.63973 10.8896 5.78038 11.0302L12.9697 18.2196C13.1104 18.3602 13.1894 18.551 13.1894 18.7499C13.1894 18.9488 13.1104 19.1396 12.9697 19.2802L11.7804 20.4696C11.6397 20.6102 11.449 20.6892 11.2501 20.6892C11.0511 20.6892 10.8604 20.6102 10.7197 20.4696L8.76154 18.5114C8.62088 18.3707 8.43012 18.2917 8.23121 18.2917C8.0323 18.2917 7.84153 18.3707 7.70088 18.5114V18.5114Z" stroke="white" stroke-width="1.5" stroke-linecap="round" stroke-linejoin="round"/>
</svg>
