<svg width="24" height="24" viewBox="0 0 24 24" fill="none" xmlns="http://www.w3.org/2000/svg">
<path d="M19.875 9.375C20.9105 9.375 21.75 8.53553 21.75 7.5C21.75 6.46447 20.9105 5.625 19.875 5.625C18.8395 5.625 18 6.46447 18 7.5C18 8.53553 18.8395 9.375 19.875 9.375Z" stroke="white" stroke-width="1.5" stroke-linecap="round" stroke-linejoin="round"/>
<path d="M8.25 13.7836V4.5C8.25 3.70435 8.56607 2.94129 9.12868 2.37868C9.69129 1.81607 10.4544 1.5 11.25 1.5C12.0456 1.5 12.8087 1.81607 13.3713 2.37868C13.9339 2.94129 14.25 3.70435 14.25 4.5V13.7836L14.2507 13.7827C15.0507 14.4075 15.6357 15.2664 15.9241 16.2396C16.2125 17.2128 16.1899 18.2517 15.8595 19.2115C15.5291 20.1713 14.9074 21.004 14.0811 21.5934C13.2548 22.1829 12.265 22.4997 11.25 22.4997C10.235 22.4997 9.24525 22.1829 8.41891 21.5934C7.59258 21.004 6.97086 20.1713 6.64047 19.2115C6.31008 18.2517 6.28752 17.2128 6.57592 16.2396C6.86432 15.2664 7.44931 14.4075 8.24926 13.7827L8.25 13.7836Z" stroke="white" stroke-width="1.5" stroke-linecap="round" stroke-linejoin="round"/>
<path d="M11.25 19.5C12.2855 19.5 13.125 18.6605 13.125 17.625C13.125 16.5895 12.2855 15.75 11.25 15.75C10.2145 15.75 9.375 16.5895 9.375 17.625C9.375 18.6605 10.2145 19.5 11.25 19.5Z" stroke="white" stroke-width="1.5" stroke-linecap="round" stroke-linejoin="round"/>
<path d="M11.25 15.75V8.25" stroke="white" stroke-width="1.5" stroke-linecap="round" stroke-linejoin="round"/>
</svg>
