<svg width="24" height="24" viewBox="0 0 24 24" fill="none" xmlns="http://www.w3.org/2000/svg">
<path d="M15.75 9.9359C17.2789 11.037 19.1159 11.628 21 11.625V7.875C19.6076 7.875 18.2723 7.32188 17.2877 6.33731C16.3031 5.35274 15.75 4.01739 15.75 2.625H12V14.625C11.9999 15.0947 11.8737 15.5558 11.6347 15.9602C11.3956 16.3645 11.0525 16.6974 10.641 16.9239C10.2295 17.1504 9.76473 17.2624 9.29521 17.2481C8.8257 17.2338 8.36861 17.0938 7.97164 16.8427C7.57468 16.5916 7.25237 16.2385 7.03834 15.8204C6.82431 15.4022 6.72641 14.9343 6.75484 14.4654C6.78327 13.9966 6.93699 13.5439 7.19998 13.1547C7.46296 12.7655 7.82557 12.454 8.24997 12.2526L8.25003 8.34895C7.0562 8.56287 5.94817 9.11287 5.05595 9.93441C4.16374 10.7559 3.52437 11.8149 3.21288 12.9871C2.90139 14.1592 2.9307 15.3959 3.29738 16.552C3.66405 17.7081 4.35288 18.7356 5.28302 19.5139C6.21315 20.2923 7.346 20.7892 8.54862 20.9463C9.75124 21.1034 10.9737 20.9142 12.0726 20.401C13.1715 19.8877 14.1011 19.0716 14.7525 18.0486C15.4039 17.0255 15.7499 15.8378 15.75 14.625L15.75 9.9359Z" stroke="white" stroke-width="1.5" stroke-linecap="round" stroke-linejoin="round"/>
</svg>
