<svg width="24" height="24" viewBox="0 0 24 24" fill="none" xmlns="http://www.w3.org/2000/svg">
<path d="M16.5 18.75C16.5 19.3467 16.2629 19.919 15.841 20.341C15.419 20.7629 14.8467 21 14.25 21C13.6533 21 13.081 20.7629 12.659 20.341C12.2371 19.919 12 19.3467 12 18.75V12.75" stroke="white" stroke-width="1.5" stroke-linecap="round" stroke-linejoin="round"/>
<path d="M3.0312 12.75C2.92714 12.7498 2.82425 12.728 2.72905 12.686C2.63386 12.6439 2.54842 12.5826 2.47814 12.5059C2.40787 12.4291 2.35428 12.3386 2.32079 12.2401C2.28729 12.1416 2.27461 12.0372 2.28354 11.9335C2.48839 9.49753 3.60079 7.22737 5.40033 5.57281C7.19987 3.91825 9.55526 3 11.9998 3C14.4444 3 16.7998 3.91825 18.5993 5.57281C20.3989 7.22737 21.5113 9.49753 21.7161 11.9335C21.7251 12.0372 21.7124 12.1416 21.6789 12.2401C21.6454 12.3386 21.5918 12.4291 21.5215 12.5059C21.4513 12.5826 21.3658 12.6439 21.2706 12.686C21.1754 12.728 21.0725 12.7498 20.9685 12.75H3.0312Z" stroke="white" stroke-width="1.5" stroke-linecap="round" stroke-linejoin="round"/>
</svg>
