<svg width="24" height="24" viewBox="0 0 24 24" fill="none" xmlns="http://www.w3.org/2000/svg">
<path d="M12 15C14.0711 15 15.75 13.3211 15.75 11.25C15.75 9.17893 14.0711 7.5 12 7.5C9.92893 7.5 8.25 9.17893 8.25 11.25C8.25 13.3211 9.92893 15 12 15Z" stroke="white" stroke-width="1.5" stroke-linecap="round" stroke-linejoin="round"/>
<path d="M5.98096 18.6913C6.5459 17.5806 7.40719 16.6478 8.46948 15.9963C9.53177 15.3448 10.7536 15 11.9998 15C13.2459 15 14.4678 15.3448 15.5301 15.9963C16.5924 16.6478 17.4537 17.5806 18.0186 18.6913" stroke="white" stroke-width="1.5" stroke-linecap="round" stroke-linejoin="round"/>
<path d="M16.5 5.25H21" stroke="white" stroke-width="1.5" stroke-linecap="round" stroke-linejoin="round"/>
<path d="M20.4881 9.00002C21.143 10.8567 21.1704 12.877 20.566 14.7508C19.9617 16.6245 18.759 18.2481 17.1426 19.3721C15.5262 20.4962 13.5856 21.0586 11.6187 20.9731C9.65172 20.8875 7.76723 20.1587 6.25458 18.8985C4.74193 17.6384 3.68473 15.9165 3.24534 13.9974C2.80594 12.0782 3.00863 10.0679 3.82229 8.27512C4.63594 6.48232 6.01558 5.00616 7.74935 4.07331C9.48312 3.14046 11.4752 2.80249 13.4196 3.1113" stroke="white" stroke-width="1.5" stroke-linecap="round" stroke-linejoin="round"/>
</svg>
