<svg width="24" height="24" viewBox="0 0 24 24" fill="none" xmlns="http://www.w3.org/2000/svg">
<path d="M10.125 15C13.2316 15 15.75 12.4816 15.75 9.375C15.75 6.2684 13.2316 3.75 10.125 3.75C7.0184 3.75 4.5 6.2684 4.5 9.375C4.5 12.4816 7.0184 15 10.125 15Z" stroke="white" stroke-width="1.5" stroke-linecap="round" stroke-linejoin="round"/>
<path d="M2.08203 18.7498C3.06766 17.5755 4.29846 16.6313 5.68797 15.9835C7.07747 15.3357 8.59198 15 10.1251 15C11.6582 15 13.1727 15.3357 14.5622 15.9835C15.9517 16.6314 17.1825 17.5756 18.1681 18.7499" stroke="white" stroke-width="1.5" stroke-linecap="round" stroke-linejoin="round"/>
<path d="M20.625 14.25C21.4534 14.25 22.125 13.5784 22.125 12.75C22.125 11.9216 21.4534 11.25 20.625 11.25C19.7966 11.25 19.125 11.9216 19.125 12.75C19.125 13.5784 19.7966 14.25 20.625 14.25Z" stroke="white" stroke-width="1.5" stroke-linecap="round" stroke-linejoin="round"/>
<path d="M20.625 11.25V10.125" stroke="white" stroke-width="1.5" stroke-linecap="round" stroke-linejoin="round"/>
<path d="M19.3258 12L18.3516 11.4375" stroke="white" stroke-width="1.5" stroke-linecap="round" stroke-linejoin="round"/>
<path d="M19.3258 13.5L18.3516 14.0625" stroke="white" stroke-width="1.5" stroke-linecap="round" stroke-linejoin="round"/>
<path d="M20.625 14.25V15.375" stroke="white" stroke-width="1.5" stroke-linecap="round" stroke-linejoin="round"/>
<path d="M21.9238 13.5L22.8981 14.0625" stroke="white" stroke-width="1.5" stroke-linecap="round" stroke-linejoin="round"/>
<path d="M21.9238 12L22.8981 11.4375" stroke="white" stroke-width="1.5" stroke-linecap="round" stroke-linejoin="round"/>
</svg>
