<svg width="24" height="24" viewBox="0 0 24 24" fill="none" xmlns="http://www.w3.org/2000/svg">
<path d="M8.98926 5.625C10.0248 5.625 10.8643 4.78553 10.8643 3.75C10.8643 2.71447 10.0248 1.875 8.98926 1.875C7.95372 1.875 7.11426 2.71447 7.11426 3.75C7.11426 4.78553 7.95372 5.625 8.98926 5.625Z" stroke="white" stroke-width="1.5" stroke-linecap="round" stroke-linejoin="round"/>
<path d="M8.98926 5.625V12.375H17.2393L20.2393 18.375L22.4893 17.625" stroke="white" stroke-width="1.5" stroke-linecap="round" stroke-linejoin="round"/>
<path d="M15.7277 15.375C15.6546 16.5435 15.2412 17.665 14.5385 18.6014C13.8358 19.5378 12.8746 20.2482 11.7731 20.645C10.6717 21.0418 9.47825 21.1078 8.33981 20.8347C7.20137 20.5616 6.16769 19.9614 5.36614 19.1081C4.56458 18.2548 4.03016 17.1857 3.82874 16.0324C3.62731 14.8792 3.76767 13.6921 4.23253 12.6177C4.69739 11.5432 5.46643 10.6282 6.4449 9.98535C7.42337 9.34254 8.56852 9.00002 9.73925 9H14.9893" stroke="white" stroke-width="1.5" stroke-linecap="round" stroke-linejoin="round"/>
</svg>
