<svg width="24" height="24" viewBox="0 0 24 24" fill="none" xmlns="http://www.w3.org/2000/svg">
<path d="M4.49902 3.75L19.499 20.25" stroke="white" stroke-width="1.5" stroke-linecap="round" stroke-linejoin="round"/>
<path d="M10.0425 5.38789C10.6904 5.29607 11.344 5.25008 11.9983 5.25028C15.6108 5.24235 19.0797 6.6638 21.6479 9.20434" stroke="white" stroke-width="1.5" stroke-linecap="round" stroke-linejoin="round"/>
<path d="M2.34863 9.20434C3.62215 7.94448 5.13077 6.94708 6.78878 6.2688" stroke="white" stroke-width="1.5" stroke-linecap="round" stroke-linejoin="round"/>
<path d="M14.2603 10.0273C15.8482 10.4243 17.3011 11.2387 18.4683 12.3863" stroke="white" stroke-width="1.5" stroke-linecap="round" stroke-linejoin="round"/>
<path d="M5.52832 12.3863C6.79225 11.1437 8.38893 10.2937 10.1255 9.93896" stroke="white" stroke-width="1.5" stroke-linecap="round" stroke-linejoin="round"/>
<path d="M8.70996 15.5683C9.55542 14.7612 10.6681 14.2931 11.8362 14.253C13.0044 14.213 14.1465 14.6038 15.0452 15.351" stroke="white" stroke-width="1.5" stroke-linecap="round" stroke-linejoin="round"/>
<path d="M12 19.6875C12.5178 19.6875 12.9375 19.2678 12.9375 18.75C12.9375 18.2322 12.5178 17.8125 12 17.8125C11.4822 17.8125 11.0625 18.2322 11.0625 18.75C11.0625 19.2678 11.4822 19.6875 12 19.6875Z" fill="white"/>
</svg>
