<svg width="24" height="24" viewBox="0 0 24 24" fill="none" xmlns="http://www.w3.org/2000/svg">
<path d="M12 16.5V21.75" stroke="white" stroke-width="1.5" stroke-linecap="round" stroke-linejoin="round"/>
<path d="M8.25 21.75H15.75" stroke="white" stroke-width="1.5" stroke-linecap="round" stroke-linejoin="round"/>
<path d="M7.50024 2.25H16.5002L18.9432 10.5261C19.0962 11.043 19.0584 11.5977 18.8365 12.0891C18.2419 13.4039 17.2807 14.5192 16.0681 15.3016C14.8556 16.0839 13.4433 16.5 12.0003 16.5C10.5573 16.5 9.14489 16.0839 7.93237 15.3016C6.71986 14.5193 5.75866 13.4039 5.16395 12.0892C4.94213 11.5978 4.90428 11.043 5.05731 10.5261L7.50024 2.25Z" stroke="white" stroke-width="1.5" stroke-linecap="round" stroke-linejoin="round"/>
<path d="M5.38965 9.40095C6.38325 8.87287 8.69437 8.09694 12.0005 9.74999C15.5213 11.5104 17.9137 10.5161 18.7882 10" stroke="white" stroke-width="1.5" stroke-linecap="round" stroke-linejoin="round"/>
</svg>
