<svg width="24" height="24" viewBox="0 0 24 24" fill="none" xmlns="http://www.w3.org/2000/svg">
<path d="M6.75 20.25H20.25" stroke="#5018CA" stroke-width="1.5" stroke-linecap="round" stroke-linejoin="round"/>
<path d="M2.50781 7.5H4.12479L5.99979 9.75H8.99979L7.82885 6.23717C7.79127 6.12443 7.78101 6.00437 7.79894 5.88689C7.81686 5.76941 7.86244 5.65787 7.93193 5.56147C8.00141 5.46506 8.09282 5.38655 8.1986 5.33239C8.30438 5.27824 8.42152 5.25 8.54036 5.25H10.1248L14.2498 9.75H19.4998C20.2954 9.75 21.0585 10.0661 21.6211 10.6287C22.1837 11.1913 22.4998 11.9544 22.4998 12.75V15H5.98188C5.3367 15 4.70871 14.792 4.19109 14.4069C3.67347 14.0218 3.2938 13.48 3.10841 12.862L1.78944 8.46551C1.75585 8.35352 1.7489 8.23523 1.76915 8.12008C1.78941 8.00493 1.8363 7.8961 1.90609 7.8023C1.97589 7.7085 2.06664 7.63231 2.17112 7.57982C2.27559 7.52734 2.39089 7.5 2.50781 7.5Z" stroke="#5018CA" stroke-width="1.5" stroke-linecap="round" stroke-linejoin="round"/>
</svg>
