<svg width="24" height="24" viewBox="0 0 24 24" fill="none" xmlns="http://www.w3.org/2000/svg">
<path d="M19.5 3.75H4.5C4.08579 3.75 3.75 4.08579 3.75 4.5V19.5C3.75 19.9142 4.08579 20.25 4.5 20.25H19.5C19.9142 20.25 20.25 19.9142 20.25 19.5V4.5C20.25 4.08579 19.9142 3.75 19.5 3.75Z" stroke="#5018CA" stroke-width="1.5" stroke-linecap="round" stroke-linejoin="round"/>
<path d="M8.81836 11.0681L12.0003 14.2501L15.1823 11.0681" stroke="#5018CA" stroke-width="1.5" stroke-linecap="round" stroke-linejoin="round"/>
<path d="M12 6.75V14.25" stroke="#5018CA" stroke-width="1.5" stroke-linecap="round" stroke-linejoin="round"/>
<path d="M3.74902 15H7.18836C7.28685 15 7.38438 15.0194 7.47538 15.0571C7.56637 15.0948 7.64905 15.15 7.71869 15.2197L9.52935 17.0303C9.599 17.1 9.68168 17.1552 9.77267 17.1929C9.86366 17.2306 9.96119 17.25 10.0597 17.25H13.9384C14.0369 17.25 14.1344 17.2306 14.2254 17.1929C14.3164 17.1552 14.3991 17.1 14.4687 17.0303L16.2794 15.2197C16.349 15.15 16.4317 15.0948 16.5227 15.0571C16.6137 15.0194 16.7112 15 16.8097 15H20.249" stroke="#5018CA" stroke-width="1.5" stroke-linecap="round" stroke-linejoin="round"/>
</svg>
