<svg width="24" height="24" viewBox="0 0 24 24" fill="none" xmlns="http://www.w3.org/2000/svg">
<path d="M12 8.625V12.375" stroke="#5018CA" stroke-width="1.5" stroke-linecap="round" stroke-linejoin="round"/>
<path d="M9 0.75H15" stroke="#5018CA" stroke-width="1.5" stroke-linecap="round" stroke-linejoin="round"/>
<path d="M17.25 3.75H6.75C5.92157 3.75 5.25 4.42157 5.25 5.25V19.5C5.25 20.3284 5.92157 21 6.75 21H17.25C18.0784 21 18.75 20.3284 18.75 19.5V5.25C18.75 4.42157 18.0784 3.75 17.25 3.75Z" stroke="#5018CA" stroke-width="1.5" stroke-linecap="round" stroke-linejoin="round"/>
<path d="M12 16.6875C12.5178 16.6875 12.9375 16.2678 12.9375 15.75C12.9375 15.2322 12.5178 14.8125 12 14.8125C11.4822 14.8125 11.0625 15.2322 11.0625 15.75C11.0625 16.2678 11.4822 16.6875 12 16.6875Z" fill="#5018CA"/>
</svg>
