<svg width="24" height="24" viewBox="0 0 24 24" fill="none" xmlns="http://www.w3.org/2000/svg">
<path d="M4.5 3.75L19.5 20.25" stroke="#5018CA" stroke-width="1.5" stroke-linecap="round" stroke-linejoin="round"/>
<path d="M9 18V18.75C9 19.5456 9.31607 20.3087 9.87868 20.8713C10.4413 21.4339 11.2044 21.75 12 21.75C12.7956 21.75 13.5587 21.4339 14.1213 20.8713C14.6839 20.3087 15 19.5456 15 18.75V18" stroke="#5018CA" stroke-width="1.5" stroke-linecap="round" stroke-linejoin="round"/>
<path d="M17.4546 18.0001H4.59222C4.46034 17.9998 4.33087 17.9647 4.21689 17.8983C4.1029 17.832 4.00844 17.7367 3.94301 17.6222C3.87759 17.5077 3.84352 17.3779 3.84425 17.2461C3.84498 17.1142 3.88048 16.9848 3.94716 16.871C4.56622 15.8061 5.26904 13.8577 5.26904 10.5001V9.75012C5.26669 8.37831 5.6835 7.03852 6.46366 5.91016" stroke="#5018CA" stroke-width="1.5" stroke-linecap="round" stroke-linejoin="round"/>
<path d="M8.67334 3.88091C9.70155 3.29345 10.8673 2.98955 12.0515 3.00027C15.763 3.02787 18.7318 6.1129 18.7318 9.83482V10.5001C18.7318 13.0002 19.1212 14.719 19.5756 15.8735" stroke="#5018CA" stroke-width="1.5" stroke-linecap="round" stroke-linejoin="round"/>
</svg>
