<svg width="24" height="24" viewBox="0 0 24 24" fill="none" xmlns="http://www.w3.org/2000/svg">
<path d="M5.26904 10.4999C5.26657 9.61436 5.43885 8.73703 5.77603 7.91817C6.1132 7.09931 6.60864 6.35503 7.23394 5.72798C7.85925 5.10092 8.60214 4.60341 9.42006 4.26395C10.238 3.92449 11.1148 3.74976 12.0004 3.74976C12.8859 3.74976 13.7628 3.92449 14.5807 4.26395C15.3986 4.60341 16.1415 5.10092 16.7668 5.72798C17.3921 6.35503 17.8876 7.09931 18.2247 7.91817C18.5619 8.73703 18.7342 9.61436 18.7317 10.4999V10.4999C18.7317 13.8576 19.4342 15.8061 20.0529 16.871C20.1196 16.9848 20.1551 17.1141 20.1558 17.246C20.1565 17.3779 20.1224 17.5076 20.0569 17.6221C19.9915 17.7366 19.8971 17.8318 19.7831 17.8981C19.6691 17.9645 19.5397 17.9996 19.4078 17.9999H4.59222C4.46034 17.9996 4.33087 17.9645 4.21689 17.8981C4.1029 17.8318 4.00844 17.7365 3.94301 17.622C3.87759 17.5075 3.84352 17.3778 3.84425 17.2459C3.84498 17.114 3.88048 16.9846 3.94716 16.8708C4.56622 15.8059 5.26904 13.8575 5.26904 10.4999H5.26904Z" stroke="#5018CA" stroke-width="1.5" stroke-linecap="round" stroke-linejoin="round"/>
<path d="M9 18V18.75C9 19.5456 9.31607 20.3087 9.87868 20.8713C10.4413 21.4339 11.2044 21.75 12 21.75C12.7956 21.75 13.5587 21.4339 14.1213 20.8713C14.6839 20.3087 15 19.5456 15 18.75V18" stroke="#5018CA" stroke-width="1.5" stroke-linecap="round" stroke-linejoin="round"/>
<path d="M17.1968 2.24902C18.7229 3.21245 19.9531 4.57885 20.7516 6.19736" stroke="#5018CA" stroke-width="1.5" stroke-linecap="round" stroke-linejoin="round"/>
<path d="M3.24854 6.19736C4.04705 4.57885 5.27728 3.21245 6.80339 2.24902" stroke="#5018CA" stroke-width="1.5" stroke-linecap="round" stroke-linejoin="round"/>
</svg>
