<svg width="24" height="24" viewBox="0 0 24 24" fill="none" xmlns="http://www.w3.org/2000/svg">
<path d="M15.375 7.3125C15.8928 7.3125 16.3125 6.89277 16.3125 6.375C16.3125 5.85723 15.8928 5.4375 15.375 5.4375C14.8572 5.4375 14.4375 5.85723 14.4375 6.375C14.4375 6.89277 14.8572 7.3125 15.375 7.3125Z" fill="#5018CA"/>
<path d="M11.25 12.75L7.5 17.25" stroke="#5018CA" stroke-width="1.5" stroke-linecap="round" stroke-linejoin="round"/>
<path d="M19.5 9.00001V11.25C19.5 13.637 18.5518 15.9261 16.864 17.614C15.1761 19.3018 12.8869 20.25 10.5 20.25H0.75L9.75 9.00001V7.12501C9.75017 5.93934 10.1824 4.79436 10.9658 3.90434C11.7491 3.01431 12.83 2.44024 14.006 2.28955C15.1821 2.13886 16.3727 2.42188 17.3552 3.08564C18.3377 3.7494 19.0446 4.74842 19.3437 5.89574L21.75 7.50001L19.5 9.00001Z" stroke="#5018CA" stroke-width="1.5" stroke-linecap="round" stroke-linejoin="round"/>
</svg>
