<svg width="24" height="24" viewBox="0 0 24 24" fill="none" xmlns="http://www.w3.org/2000/svg">
<path d="M11.25 3L17.25 7.5L11.25 12V3Z" stroke="#5018CA" stroke-width="1.5" stroke-linecap="round" stroke-linejoin="round"/>
<path d="M11.25 12L17.25 16.5L11.25 21V12Z" stroke="#5018CA" stroke-width="1.5" stroke-linecap="round" stroke-linejoin="round"/>
<path d="M5.25 7.5L11.25 12" stroke="#5018CA" stroke-width="1.5" stroke-linecap="round" stroke-linejoin="round"/>
<path d="M5.25 16.5L11.25 12" stroke="#5018CA" stroke-width="1.5" stroke-linecap="round" stroke-linejoin="round"/>
<path d="M4.875 12.9375C5.39277 12.9375 5.8125 12.5178 5.8125 12C5.8125 11.4822 5.39277 11.0625 4.875 11.0625C4.35723 11.0625 3.9375 11.4822 3.9375 12C3.9375 12.5178 4.35723 12.9375 4.875 12.9375Z" fill="#5018CA"/>
<path d="M18.375 12.9375C18.8928 12.9375 19.3125 12.5178 19.3125 12C19.3125 11.4822 18.8928 11.0625 18.375 11.0625C17.8572 11.0625 17.4375 11.4822 17.4375 12C17.4375 12.5178 17.8572 12.9375 18.375 12.9375Z" fill="#5018CA"/>
</svg>
