<svg width="24" height="24" viewBox="0 0 24 24" fill="none" xmlns="http://www.w3.org/2000/svg">
<path d="M12 18V21" stroke="#5018CA" stroke-width="1.5" stroke-linecap="round" stroke-linejoin="round"/>
<path d="M7.875 14.0625C8.39277 14.0625 8.8125 13.6428 8.8125 13.125C8.8125 12.6072 8.39277 12.1875 7.875 12.1875C7.35723 12.1875 6.9375 12.6072 6.9375 13.125C6.9375 13.6428 7.35723 14.0625 7.875 14.0625Z" fill="#5018CA"/>
<path d="M16.125 14.0625C16.6428 14.0625 17.0625 13.6428 17.0625 13.125C17.0625 12.6072 16.6428 12.1875 16.125 12.1875C15.6072 12.1875 15.1875 12.6072 15.1875 13.125C15.1875 13.6428 15.6072 14.0625 16.125 14.0625Z" fill="#5018CA"/>
<path d="M12 4.5V8.25" stroke="#5018CA" stroke-width="1.5" stroke-linecap="round" stroke-linejoin="round"/>
<path d="M13.5 16.5L12 18L10.5 16.5" stroke="#5018CA" stroke-width="1.5" stroke-linecap="round" stroke-linejoin="round"/>
<path d="M9 4.96973V8.25015" stroke="#5018CA" stroke-width="1.5" stroke-linecap="round" stroke-linejoin="round"/>
<path d="M15 4.96973V8.25015" stroke="#5018CA" stroke-width="1.5" stroke-linecap="round" stroke-linejoin="round"/>
<path d="M3 12.7499V4.81055C3 4.66221 3.04399 4.51721 3.1264 4.39387C3.20881 4.27053 3.32594 4.1744 3.46299 4.11764C3.60003 4.06087 3.75083 4.04602 3.89632 4.07496C4.0418 4.1039 4.17544 4.17533 4.28033 4.28022L6.33734 6.33723L6.33731 6.33719C7.98392 5.14297 9.96592 4.49989 12 4.49989C14.0341 4.49989 16.0161 5.14297 17.6627 6.33719L17.6627 6.33723L19.7197 4.28021C19.8246 4.17533 19.9582 4.1039 20.1037 4.07496C20.2492 4.04602 20.4 4.06087 20.537 4.11764C20.6741 4.1744 20.7912 4.27053 20.8736 4.39387C20.956 4.51721 21 4.66221 21 4.81055V12.7499C21 17.3062 16.9706 20.9999 12 20.9999C7.02944 20.9999 3 17.3062 3 12.7499Z" stroke="#5018CA" stroke-width="1.5" stroke-linecap="round" stroke-linejoin="round"/>
</svg>
