<svg width="24" height="24" viewBox="0 0 24 24" fill="none" xmlns="http://www.w3.org/2000/svg">
<path d="M9.00001 16.4993H2.8125C2.66332 16.4993 2.52024 16.44 2.41475 16.3345C2.30926 16.229 2.25 16.086 2.25 15.9368V9.74925C2.25 7.95904 2.96116 6.24216 4.22703 4.97629C5.49289 3.71042 7.20978 2.99927 8.99999 2.99927H9C10.7902 2.99927 12.5071 3.71043 13.773 4.9763C15.0388 6.24217 15.75 7.95906 15.75 9.74927V9.74928C15.75 11.5395 15.0388 13.2564 13.773 14.5222C12.5071 15.7881 10.7902 16.4993 9.00001 16.4993V16.4993Z" stroke="#5018CA" stroke-width="1.5" stroke-linecap="round" stroke-linejoin="round"/>
<path d="M8.63379 16.4997C9.09958 17.8157 9.96181 18.955 11.1018 19.7609C12.2418 20.5667 13.6035 20.9994 14.9996 20.9994H21.1871C21.3363 20.9994 21.4794 20.9401 21.5849 20.8346C21.6903 20.7291 21.7496 20.5861 21.7496 20.4369V14.2494C21.7496 12.523 21.0881 10.8622 19.9012 9.60859C18.7143 8.35493 17.0922 7.60367 15.3684 7.50928" stroke="#5018CA" stroke-width="1.5" stroke-linecap="round" stroke-linejoin="round"/>
</svg>
