<svg width="24" height="24" viewBox="0 0 24 24" fill="none" xmlns="http://www.w3.org/2000/svg">
<path d="M3.19421 13.1951C2.35557 11.7814 2.06187 10.1101 2.36826 8.49515C2.67466 6.88018 3.56007 5.4326 4.85823 4.42425C6.15639 3.4159 7.77801 2.91613 9.41858 3.0188C11.0591 3.12146 12.6058 3.81949 13.7681 4.98181C14.9305 6.14414 15.6285 7.6908 15.7312 9.33136C15.8338 10.9719 15.3341 12.5936 14.3257 13.8917C13.3174 15.1899 11.8698 16.0753 10.2549 16.3817C8.63989 16.6881 6.96862 16.3944 5.55486 15.5558L5.55488 15.5557L3.22356 16.2218C3.1271 16.2494 3.02504 16.2506 2.92793 16.2255C2.83082 16.2003 2.74221 16.1496 2.67128 16.0787C2.60035 16.0078 2.54967 15.9192 2.52451 15.822C2.49935 15.7249 2.50061 15.6229 2.52817 15.5264L3.19426 13.1951L3.19421 13.1951Z" stroke="#5018CA" stroke-width="1.5" stroke-linecap="round" stroke-linejoin="round"/>
<path d="M8.63086 16.49C8.96268 17.432 9.49929 18.2887 10.202 18.9984C10.9048 19.708 11.7561 20.253 12.6948 20.5941C13.6335 20.9351 14.6362 21.0638 15.6306 20.9707C16.625 20.8776 17.5864 20.5652 18.4455 20.0559L18.4455 20.0558L20.7768 20.7219C20.8732 20.7495 20.9753 20.7508 21.0724 20.7256C21.1695 20.7004 21.2581 20.6498 21.3291 20.5788C21.4 20.5079 21.4507 20.4193 21.4758 20.3222C21.501 20.2251 21.4997 20.123 21.4722 20.0265L20.8061 17.6952L20.8061 17.6953C21.398 16.6972 21.7226 15.5634 21.7486 14.4033C21.7747 13.2432 21.5013 12.0959 20.9549 11.0723C20.4085 10.0486 19.6075 9.183 18.6291 8.55903C17.6508 7.93506 16.5281 7.57377 15.3695 7.51001" stroke="#5018CA" stroke-width="1.5" stroke-linecap="round" stroke-linejoin="round"/>
</svg>
