<svg width="24" height="24" viewBox="0 0 24 24" fill="none" xmlns="http://www.w3.org/2000/svg">
<path d="M20.25 4.5H3.75C3.33579 4.5 3 4.83579 3 5.25V18.75C3 19.1642 3.33579 19.5 3.75 19.5H20.25C20.6642 19.5 21 19.1642 21 18.75V5.25C21 4.83579 20.6642 4.5 20.25 4.5Z" stroke="#5018CA" stroke-width="1.5" stroke-linecap="round" stroke-linejoin="round"/>
<path d="M10.875 13.8371C10.5101 14.2096 10.0425 14.4649 9.53181 14.5706C9.02116 14.6762 8.49062 14.6274 8.00785 14.4303C7.52507 14.2332 7.11193 13.8968 6.82112 13.4639C6.53031 13.0311 6.375 12.5215 6.375 12C6.375 11.4785 6.53031 10.9689 6.82113 10.5361C7.11194 10.1032 7.52508 9.76681 8.00786 9.56972C8.49064 9.37263 9.02118 9.32379 9.53182 9.42944C10.0425 9.53509 10.5101 9.79043 10.875 10.1629" stroke="#5018CA" stroke-width="1.5" stroke-linecap="round" stroke-linejoin="round"/>
<path d="M17.625 13.8371C17.2601 14.2096 16.7925 14.4649 16.2818 14.5706C15.7712 14.6762 15.2406 14.6274 14.7578 14.4303C14.2751 14.2332 13.8619 13.8968 13.5711 13.4639C13.2803 13.0311 13.125 12.5215 13.125 12C13.125 11.4785 13.2803 10.9689 13.5711 10.5361C13.8619 10.1032 14.2751 9.76681 14.7579 9.56972C15.2406 9.37263 15.7712 9.32379 16.2818 9.42944C16.7925 9.53509 17.2601 9.79043 17.625 10.1629" stroke="#5018CA" stroke-width="1.5" stroke-linecap="round" stroke-linejoin="round"/>
</svg>
