<svg width="24" height="24" viewBox="0 0 24 24" fill="none" xmlns="http://www.w3.org/2000/svg">
<path d="M10.5486 16.7955C10.0292 17.4031 9.35726 17.8612 8.602 18.1229C7.84673 18.3845 7.03539 18.4401 6.25148 18.284C5.46757 18.128 4.73941 17.7658 4.14194 17.2349C3.54447 16.7039 3.09927 16.0234 2.85217 15.2632C2.60507 14.5031 2.56499 13.6908 2.73606 12.9101C2.90712 12.1293 3.28316 11.4082 3.82546 10.821C4.36775 10.2338 5.05673 9.80177 5.82146 9.56928C6.5862 9.33679 7.39908 9.31229 8.17643 9.49829L8.17636 9.49856C7.75349 8.81705 7.52045 8.0349 7.50136 7.23308C7.48227 6.43126 7.67783 5.6389 8.06779 4.93804C8.45776 4.23717 9.02795 3.65327 9.71935 3.24677C10.4108 2.84027 11.1982 2.62594 12.0003 2.62598C12.8023 2.62601 13.5898 2.84041 14.2812 3.24697C14.9725 3.65354 15.5427 4.23749 15.9326 4.93839C16.3225 5.63929 16.518 6.43166 16.4988 7.23348C16.4796 8.0353 16.2465 8.81743 15.8236 9.4989L15.8229 9.49849C16.6009 9.3114 17.4147 9.3351 18.1805 9.56716C18.9462 9.79922 19.6363 10.2312 20.1795 10.8187C20.7228 11.4062 21.0996 12.1279 21.2711 12.9094C21.4427 13.691 21.4027 14.5041 21.1555 15.2651C20.9082 16.0261 20.4625 16.7074 19.8643 17.2389C19.2661 17.7703 18.537 18.1326 17.7522 18.2885C16.9674 18.4445 16.1552 18.3883 15.3993 18.1259C14.6434 17.8635 13.9711 17.4043 13.4517 16.7957L15.0001 21.7498H9.00009L10.5486 16.7955Z" stroke="#5018CA" stroke-width="1.5" stroke-linecap="round" stroke-linejoin="round"/>
</svg>
