<svg width="24" height="24" viewBox="0 0 24 24" fill="none" xmlns="http://www.w3.org/2000/svg">
<path d="M7.49957 11.25H14.2496C15.2441 11.25 16.198 11.6451 16.9012 12.3483C17.6045 13.0516 17.9996 14.0054 17.9996 15C17.9996 15.9945 17.6045 16.9484 16.9012 17.6516C16.198 18.3549 15.2441 18.75 14.2496 18.75L7.49902 18.7495V4.49951L13.1246 4.49997C14.0197 4.49997 14.8781 4.85555 15.5111 5.48848C16.144 6.12142 16.4996 6.97986 16.4996 7.87497C16.4996 8.77007 16.144 9.62852 15.5111 10.2615C14.8781 10.8944 14.0197 11.25 13.1246 11.25" stroke="#5018CA" stroke-width="1.5" stroke-linecap="round" stroke-linejoin="round"/>
<path d="M5.99902 4.49951H7.49902" stroke="#5018CA" stroke-width="1.5" stroke-linecap="round" stroke-linejoin="round"/>
<path d="M5.99902 18.7495H7.49902" stroke="#5018CA" stroke-width="1.5" stroke-linecap="round" stroke-linejoin="round"/>
<path d="M9.75 4.5V2.25" stroke="#5018CA" stroke-width="1.5" stroke-linecap="round" stroke-linejoin="round"/>
<path d="M12.75 4.5V2.25" stroke="#5018CA" stroke-width="1.5" stroke-linecap="round" stroke-linejoin="round"/>
<path d="M9.75 21V18.75" stroke="#5018CA" stroke-width="1.5" stroke-linecap="round" stroke-linejoin="round"/>
<path d="M12.75 21V18.75" stroke="#5018CA" stroke-width="1.5" stroke-linecap="round" stroke-linejoin="round"/>
</svg>
