<svg width="24" height="24" viewBox="0 0 24 24" fill="none" xmlns="http://www.w3.org/2000/svg">
<path d="M18 3.75H6C4.75736 3.75 3.75 4.75736 3.75 6V18C3.75 19.2426 4.75736 20.25 6 20.25H18C19.2426 20.25 20.25 19.2426 20.25 18V6C20.25 4.75736 19.2426 3.75 18 3.75Z" stroke="#5018CA" stroke-width="1.5" stroke-linecap="round" stroke-linejoin="round"/>
<path d="M9.375 10.3125C9.89277 10.3125 10.3125 9.89277 10.3125 9.375C10.3125 8.85723 9.89277 8.4375 9.375 8.4375C8.85723 8.4375 8.4375 8.85723 8.4375 9.375C8.4375 9.89277 8.85723 10.3125 9.375 10.3125Z" fill="#5018CA"/>
<path d="M14.625 10.3125C15.1428 10.3125 15.5625 9.89277 15.5625 9.375C15.5625 8.85723 15.1428 8.4375 14.625 8.4375C14.1072 8.4375 13.6875 8.85723 13.6875 9.375C13.6875 9.89277 14.1072 10.3125 14.625 10.3125Z" fill="#5018CA"/>
<path d="M9.375 15.5625C9.89277 15.5625 10.3125 15.1428 10.3125 14.625C10.3125 14.1072 9.89277 13.6875 9.375 13.6875C8.85723 13.6875 8.4375 14.1072 8.4375 14.625C8.4375 15.1428 8.85723 15.5625 9.375 15.5625Z" fill="#5018CA"/>
<path d="M14.625 15.5625C15.1428 15.5625 15.5625 15.1428 15.5625 14.625C15.5625 14.1072 15.1428 13.6875 14.625 13.6875C14.1072 13.6875 13.6875 14.1072 13.6875 14.625C13.6875 15.1428 14.1072 15.5625 14.625 15.5625Z" fill="#5018CA"/>
</svg>
