<svg width="24" height="24" viewBox="0 0 24 24" fill="none" xmlns="http://www.w3.org/2000/svg">
<path d="M18 3.75H6C4.75736 3.75 3.75 4.75736 3.75 6V18C3.75 19.2426 4.75736 20.25 6 20.25H18C19.2426 20.25 20.25 19.2426 20.25 18V6C20.25 4.75736 19.2426 3.75 18 3.75Z" stroke="#5018CA" stroke-width="1.5" stroke-linecap="round" stroke-linejoin="round"/>
<path d="M8.625 8.8125C9.14277 8.8125 9.5625 8.39277 9.5625 7.875C9.5625 7.35723 9.14277 6.9375 8.625 6.9375C8.10723 6.9375 7.6875 7.35723 7.6875 7.875C7.6875 8.39277 8.10723 8.8125 8.625 8.8125Z" fill="#5018CA"/>
<path d="M15.375 8.8125C15.8928 8.8125 16.3125 8.39277 16.3125 7.875C16.3125 7.35723 15.8928 6.9375 15.375 6.9375C14.8572 6.9375 14.4375 7.35723 14.4375 7.875C14.4375 8.39277 14.8572 8.8125 15.375 8.8125Z" fill="#5018CA"/>
<path d="M8.625 12.9375C9.14277 12.9375 9.5625 12.5178 9.5625 12C9.5625 11.4822 9.14277 11.0625 8.625 11.0625C8.10723 11.0625 7.6875 11.4822 7.6875 12C7.6875 12.5178 8.10723 12.9375 8.625 12.9375Z" fill="#5018CA"/>
<path d="M15.375 12.9375C15.8928 12.9375 16.3125 12.5178 16.3125 12C16.3125 11.4822 15.8928 11.0625 15.375 11.0625C14.8572 11.0625 14.4375 11.4822 14.4375 12C14.4375 12.5178 14.8572 12.9375 15.375 12.9375Z" fill="#5018CA"/>
<path d="M8.625 17.0625C9.14277 17.0625 9.5625 16.6428 9.5625 16.125C9.5625 15.6072 9.14277 15.1875 8.625 15.1875C8.10723 15.1875 7.6875 15.6072 7.6875 16.125C7.6875 16.6428 8.10723 17.0625 8.625 17.0625Z" fill="#5018CA"/>
<path d="M15.375 17.0625C15.8928 17.0625 16.3125 16.6428 16.3125 16.125C16.3125 15.6072 15.8928 15.1875 15.375 15.1875C14.8572 15.1875 14.4375 15.6072 14.4375 16.125C14.4375 16.6428 14.8572 17.0625 15.375 17.0625Z" fill="#5018CA"/>
</svg>
