<svg width="24" height="24" viewBox="0 0 24 24" fill="none" xmlns="http://www.w3.org/2000/svg">
<path d="M12 18V20.25" stroke="#5018CA" stroke-width="1.5" stroke-linecap="round" stroke-linejoin="round"/>
<path d="M8.625 14.0625C9.14277 14.0625 9.5625 13.6428 9.5625 13.125C9.5625 12.6072 9.14277 12.1875 8.625 12.1875C8.10723 12.1875 7.6875 12.6072 7.6875 13.125C7.6875 13.6428 8.10723 14.0625 8.625 14.0625Z" fill="#5018CA"/>
<path d="M15.375 14.0625C15.8928 14.0625 16.3125 13.6428 16.3125 13.125C16.3125 12.6072 15.8928 12.1875 15.375 12.1875C14.8572 12.1875 14.4375 12.6072 14.4375 13.125C14.4375 13.6428 14.8572 14.0625 15.375 14.0625Z" fill="#5018CA"/>
<path d="M13.5 16.5L12 18L10.5 16.5" stroke="#5018CA" stroke-width="1.5" stroke-linecap="round" stroke-linejoin="round"/>
<path d="M14.25 4.50021L19.4777 3.19329C19.5769 3.16849 19.6801 3.16424 19.781 3.18079C19.8819 3.19735 19.9784 3.23437 20.0644 3.28957C20.1505 3.34477 20.2244 3.41699 20.2815 3.50179C20.3387 3.58659 20.3779 3.68218 20.3967 3.78268L21.936 11.992C22.0805 12.7631 21.0938 13.2105 20.6091 12.5936L14.25 4.50021Z" stroke="#5018CA" stroke-width="1.5" stroke-linecap="round" stroke-linejoin="round"/>
<path d="M9.75008 4.50021L4.52242 3.19329C4.42322 3.16849 4.31999 3.16424 4.21908 3.18079C4.11818 3.19735 4.02172 3.23437 3.93564 3.28957C3.84957 3.34477 3.77569 3.41699 3.71854 3.50179C3.6614 3.58659 3.6222 3.68218 3.60336 3.78268L2.06412 11.992C1.91954 12.7631 2.90631 13.2105 3.39101 12.5936L9.75008 4.50021Z" stroke="#5018CA" stroke-width="1.5" stroke-linecap="round" stroke-linejoin="round"/>
<path d="M9.75 4.5H14.25" stroke="#5018CA" stroke-width="1.5" stroke-linecap="round" stroke-linejoin="round"/>
<path d="M19.5 11.1816V17.2498C19.5 18.0455 19.1839 18.8085 18.6213 19.3711C18.0587 19.9338 17.2956 20.2498 16.5 20.2498H7.5C6.70435 20.2498 5.94129 19.9338 5.37868 19.3711C4.81607 18.8085 4.5 18.0455 4.5 17.2498V11.1816" stroke="#5018CA" stroke-width="1.5" stroke-linecap="round" stroke-linejoin="round"/>
</svg>
