<svg width="24" height="24" viewBox="0 0 24 24" fill="none" xmlns="http://www.w3.org/2000/svg">
<path d="M11.8506 13.5C12.679 13.5 13.3506 12.8284 13.3506 12C13.3506 11.1716 12.679 10.5 11.8506 10.5C11.0222 10.5 10.3506 11.1716 10.3506 12C10.3506 12.8284 11.0222 13.5 11.8506 13.5Z" fill="#5018CA"/>
<path d="M20.1006 13.5C20.929 13.5 21.6006 12.8284 21.6006 12C21.6006 11.1716 20.929 10.5 20.1006 10.5C19.2722 10.5 18.6006 11.1716 18.6006 12C18.6006 12.8284 19.2722 13.5 20.1006 13.5Z" fill="#5018CA"/>
<path d="M4.35059 13.5C5.17901 13.5 5.85059 12.8284 5.85059 12C5.85059 11.1716 5.17901 10.5 4.35059 10.5C3.52216 10.5 2.85059 11.1716 2.85059 12C2.85059 12.8284 3.52216 13.5 4.35059 13.5Z" fill="#5018CA"/>
</svg>
