<svg width="24" height="24" viewBox="0 0 24 24" fill="none" xmlns="http://www.w3.org/2000/svg">
<path d="M12 21C16.9706 21 21 16.9706 21 12C21 7.02944 16.9706 3 12 3C7.02944 3 3 7.02944 3 12C3 16.9706 7.02944 21 12 21Z" stroke="#5018CA" stroke-width="1.5" stroke-linecap="round" stroke-linejoin="round"/>
<path d="M6.6582 19.2441C7.9932 17.0325 9.87704 15.2033 12.127 13.9341C14.3771 12.6648 16.9169 11.9985 19.5002 11.9998C20.0061 11.9998 20.5058 12.0244 20.9993 12.0737" stroke="#5018CA" stroke-width="1.5" stroke-linecap="round" stroke-linejoin="round"/>
<path d="M17.6277 4.97729C16.2224 6.70461 14.4494 8.09667 12.438 9.05203C10.4265 10.0074 8.22731 10.502 6.00052 10.4998C5.05202 10.5003 4.1056 10.4113 3.17383 10.2339" stroke="#5018CA" stroke-width="1.5" stroke-linecap="round" stroke-linejoin="round"/>
<path d="M8.05566 3.90796C10.3112 5.2314 12.1813 7.12178 13.4804 9.39142C14.7795 11.6611 15.4624 14.231 15.4612 16.8461C15.4621 18.0715 15.3131 19.2923 15.0177 20.4815" stroke="#5018CA" stroke-width="1.5" stroke-linecap="round" stroke-linejoin="round"/>
</svg>
