<svg width="24" height="24" viewBox="0 0 24 24" fill="none" xmlns="http://www.w3.org/2000/svg">
<path d="M16.875 14.25C16.875 14.7473 16.6775 15.2242 16.3258 15.5758C15.9742 15.9275 15.4973 16.125 15 16.125C14.5027 16.125 14.0258 15.9275 13.6742 15.5758C13.3225 15.2242 13.125 14.7473 13.125 14.25C13.125 12 15.75 12 15.75 9.75C15.75 8.75544 15.3549 7.80161 14.6517 7.09835C13.9484 6.39509 12.9946 6 12 6C11.0054 6 10.0516 6.39509 9.34835 7.09835C8.64509 7.80161 8.25 8.75544 8.25 9.75" stroke="#5018CA" stroke-width="1.5" stroke-linecap="round" stroke-linejoin="round"/>
<path d="M15.1818 20.2504C14.6412 20.9055 13.9115 21.3779 13.0924 21.6028C12.2732 21.8277 11.4046 21.7942 10.6052 21.507C9.80584 21.2198 9.1146 20.6928 8.62593 19.998C8.13727 19.3032 7.87502 18.4744 7.875 17.625C7.875 13.7353 4.5 15 4.5 9.75C4.5 7.76088 5.29018 5.85322 6.6967 4.4467C8.10322 3.04018 10.0109 2.25 12 2.25C13.9891 2.25 15.8968 3.04018 17.3033 4.4467C18.7098 5.85322 19.5 7.76088 19.5 9.75" stroke="#5018CA" stroke-width="1.5" stroke-linecap="round" stroke-linejoin="round"/>
</svg>
