<svg width="24" height="24" viewBox="0 0 24 24" fill="none" xmlns="http://www.w3.org/2000/svg">
<path d="M11.4488 3.59725L4.16179 11.4915C4.06291 11.5986 3.99739 11.7322 3.97325 11.876C3.9491 12.0198 3.96739 12.1675 4.02586 12.301C4.08433 12.4346 4.18045 12.5482 4.30247 12.628C4.42448 12.7077 4.56711 12.7502 4.71289 12.7502H19.2869C19.4327 12.7502 19.5753 12.7077 19.6973 12.628C19.8194 12.5482 19.9155 12.4346 19.9739 12.301C20.0324 12.1675 20.0507 12.0198 20.0266 11.876C20.0024 11.7322 19.9369 11.5986 19.838 11.4915L12.551 3.59725C12.4808 3.52117 12.3956 3.46045 12.3007 3.41892C12.2059 3.3774 12.1034 3.35596 11.9999 3.35596C11.8964 3.35596 11.7939 3.3774 11.6991 3.41892C11.6043 3.46045 11.519 3.52117 11.4488 3.59725V3.59725Z" stroke="#5018CA" stroke-width="1.5" stroke-linecap="round" stroke-linejoin="round"/>
<path d="M3.75 16.5V18.75C3.75 19.1642 4.08579 19.5 4.5 19.5H19.5C19.9142 19.5 20.25 19.1642 20.25 18.75V16.5C20.25 16.0858 19.9142 15.75 19.5 15.75H4.5C4.08579 15.75 3.75 16.0858 3.75 16.5Z" stroke="#5018CA" stroke-width="1.5" stroke-linecap="round" stroke-linejoin="round"/>
</svg>
