<svg width="24" height="24" viewBox="0 0 24 24" fill="none" xmlns="http://www.w3.org/2000/svg">
<path d="M11.4184 3.71651L3.24409 13.7772C3.1547 13.8872 3.09831 14.0203 3.08148 14.161C3.06465 14.3018 3.08805 14.4444 3.14897 14.5724C3.20989 14.7004 3.30584 14.8085 3.4257 14.8842C3.54556 14.9599 3.68441 15.0001 3.82617 15.0001H20.1747C20.3165 15.0001 20.4553 14.9599 20.5752 14.8842C20.695 14.8085 20.791 14.7004 20.8519 14.5724C20.9128 14.4444 20.9362 14.3018 20.9194 14.161C20.9026 14.0203 20.8462 13.8872 20.7568 13.7772L12.5825 3.71651C12.5122 3.62996 12.4235 3.56018 12.3228 3.51225C12.2221 3.46432 12.112 3.43945 12.0004 3.43945C11.8889 3.43945 11.7788 3.46432 11.6781 3.51225C11.5774 3.56018 11.4887 3.62996 11.4184 3.71651Z" stroke="#5018CA" stroke-width="1.5" stroke-linecap="round" stroke-linejoin="round"/>
<path d="M21 19.5H3" stroke="#5018CA" stroke-width="1.5" stroke-linecap="round" stroke-linejoin="round"/>
</svg>
