<svg width="24" height="24" viewBox="0 0 24 24" fill="none" xmlns="http://www.w3.org/2000/svg">
<path d="M16.856 10.8563L17.3142 11.3144C17.4535 11.4537 17.564 11.6191 17.6394 11.8011C17.7148 11.9831 17.7536 12.1781 17.7536 12.3751C17.7536 12.5721 17.7148 12.7671 17.6394 12.9491C17.564 13.1311 17.4535 13.2965 17.3142 13.4358L16.6552 14.0948C16.5146 14.2354 16.3238 14.3144 16.1249 14.3144C15.926 14.3144 15.7352 14.2354 15.5946 14.0948L9.90522 8.40542C9.76456 8.26477 9.68555 8.07401 9.68555 7.87509C9.68555 7.67618 9.76456 7.48542 9.90522 7.34476L10.5642 6.68575C10.7035 6.54647 10.8689 6.43598 11.0509 6.3606C11.2328 6.28521 11.4279 6.24641 11.6249 6.24641C11.8219 6.24641 12.0169 6.28521 12.1989 6.3606C12.3809 6.43598 12.5463 6.54647 12.6855 6.68575L13.1437 7.14394L15.7301 4.55755C16.7415 3.54616 18.3894 3.4842 19.4282 4.46749C19.6832 4.70857 19.8873 4.99833 20.0284 5.31965C20.1695 5.64096 20.2447 5.98731 20.2496 6.3382C20.2546 6.6891 20.1891 7.03742 20.0571 7.36257C19.9251 7.68772 19.7292 7.98311 19.481 8.23125L16.856 10.8563Z" stroke="#5018CA" stroke-width="1.5" stroke-linecap="round" stroke-linejoin="round"/>
<path d="M14.8711 13.3713L9.62105 18.6213C9.24878 18.9939 8.78495 19.2619 8.27622 19.3982C7.7675 19.5346 7.23182 19.5346 6.7231 19.3982L4.52913 20.356C4.39097 20.4163 4.23784 20.4336 4.08971 20.4056C3.94158 20.3776 3.80533 20.3056 3.69873 20.199V20.199C3.6222 20.1224 3.5705 20.0246 3.55039 19.9183C3.53028 19.8119 3.54269 19.702 3.58599 19.6028L4.60149 17.2766C4.46509 16.7679 4.46509 16.2322 4.60147 15.7235C4.73786 15.2148 5.00583 14.7509 5.37841 14.3787L10.6284 9.12866" stroke="#5018CA" stroke-width="1.5" stroke-linecap="round" stroke-linejoin="round"/>
</svg>
