<svg width="24" height="24" viewBox="0 0 24 24" fill="none" xmlns="http://www.w3.org/2000/svg">
<path d="M22.6436 11.3689L14.2806 5.99265C14.1673 5.91982 14.0365 5.87884 13.9018 5.87402C13.7672 5.86919 13.6338 5.90071 13.5156 5.96525C13.3974 6.02979 13.2987 6.12498 13.23 6.24081C13.1613 6.35664 13.125 6.48885 13.125 6.62353V17.376C13.125 17.5107 13.1613 17.6429 13.23 17.7588C13.2987 17.8746 13.3974 17.9698 13.5156 18.0343C13.6338 18.0989 13.7672 18.1304 13.9018 18.1256C14.0365 18.1207 14.1673 18.0798 14.2806 18.0069L22.6436 12.6307C22.7493 12.5628 22.8362 12.4694 22.8963 12.3592C22.9565 12.2489 22.9881 12.1254 22.9881 11.9998C22.9881 11.8742 22.9565 11.7506 22.8963 11.6404C22.8362 11.5302 22.7493 11.4368 22.6436 11.3689Z" stroke="#5018CA" stroke-width="1.5" stroke-linecap="round" stroke-linejoin="round"/>
<path d="M12.1436 11.3689L3.78057 5.99265C3.66727 5.91982 3.53645 5.87884 3.40185 5.87402C3.26724 5.86919 3.13383 5.90071 3.01561 5.96525C2.89739 6.02979 2.79873 6.12498 2.73 6.24081C2.66127 6.35664 2.625 6.48885 2.625 6.62353V17.376C2.625 17.5107 2.66127 17.6429 2.73 17.7588C2.79873 17.8746 2.89739 17.9698 3.01561 18.0343C3.13383 18.0989 3.26724 18.1304 3.40185 18.1256C3.53645 18.1207 3.66727 18.0798 3.78057 18.0069L12.1436 12.6307C12.2493 12.5628 12.3362 12.4694 12.3963 12.3592C12.4565 12.2489 12.4881 12.1254 12.4881 11.9998C12.4881 11.8742 12.4565 11.7506 12.3963 11.6404C12.3362 11.5302 12.2493 11.4368 12.1436 11.3689Z" stroke="#5018CA" stroke-width="1.5" stroke-linecap="round" stroke-linejoin="round"/>
</svg>
