<svg width="24" height="24" viewBox="0 0 24 24" fill="none" xmlns="http://www.w3.org/2000/svg">
<path d="M4.49902 12.75V4.5C4.49902 4.30109 4.57804 4.11032 4.71869 3.96967C4.85935 3.82902 5.05011 3.75 5.24902 3.75H14.2498L19.4998 9V12.75" stroke="#5018CA" stroke-width="1.5" stroke-linecap="round" stroke-linejoin="round"/>
<path d="M14.25 3.75V9H19.5007" stroke="#5018CA" stroke-width="1.5" stroke-linecap="round" stroke-linejoin="round"/>
<path d="M4.5 18.75H6C6.39782 18.75 6.77936 18.592 7.06066 18.3107C7.34196 18.0294 7.5 17.6478 7.5 17.25C7.5 16.8522 7.34196 16.4706 7.06066 16.1893C6.77936 15.908 6.39782 15.75 6 15.75H4.5V20.25" stroke="#5018CA" stroke-width="1.5" stroke-linecap="round" stroke-linejoin="round"/>
<path d="M11.625 20.25C12.2217 20.25 12.794 20.0129 13.216 19.591C13.6379 19.169 13.875 18.5967 13.875 18C13.875 17.4033 13.6379 16.831 13.216 16.409C12.794 15.9871 12.2217 15.75 11.625 15.75H10.5V20.25H11.625Z" stroke="#5018CA" stroke-width="1.5" stroke-linecap="round" stroke-linejoin="round"/>
<path d="M19.5 15.75H16.875V20.25" stroke="#5018CA" stroke-width="1.5" stroke-linecap="round" stroke-linejoin="round"/>
<path d="M19.125 18.375H16.875" stroke="#5018CA" stroke-width="1.5" stroke-linecap="round" stroke-linejoin="round"/>
</svg>
