<svg width="24" height="24" viewBox="0 0 24 24" fill="none" xmlns="http://www.w3.org/2000/svg">
<path d="M15.75 9.75H8.25C6.59315 9.75 5.25 11.0931 5.25 12.75V13.5C5.25 15.1569 6.59315 16.5 8.25 16.5H15.75C17.4069 16.5 18.75 15.1569 18.75 13.5V12.75C18.75 11.0931 17.4069 9.75 15.75 9.75Z" stroke="#5018CA" stroke-width="1.5" stroke-linecap="round" stroke-linejoin="round"/>
<path d="M2.25 6C2.25 5.40326 2.48705 4.83097 2.90901 4.40901C3.33097 3.98705 3.90326 3.75 4.5 3.75C5.09674 3.75 5.66903 3.98705 6.09099 4.40901C6.51295 4.83097 6.75 5.40326 6.75 6H17.25C17.25 5.40326 17.4871 4.83097 17.909 4.40901C18.331 3.98705 18.9033 3.75 19.5 3.75C20.0967 3.75 20.669 3.98705 21.091 4.40901C21.5129 4.83097 21.75 5.40326 21.75 6V13.5C21.75 15.0913 21.1179 16.6174 19.9926 17.7426C18.8674 18.8679 17.3413 19.5 15.75 19.5H8.25C6.6587 19.5 5.13258 18.8679 4.00736 17.7426C2.88214 16.6174 2.25 15.0913 2.25 13.5V6Z" stroke="#5018CA" stroke-width="1.5" stroke-linecap="round" stroke-linejoin="round"/>
<path d="M8.625 14.0625C9.14277 14.0625 9.5625 13.6428 9.5625 13.125C9.5625 12.6072 9.14277 12.1875 8.625 12.1875C8.10723 12.1875 7.6875 12.6072 7.6875 13.125C7.6875 13.6428 8.10723 14.0625 8.625 14.0625Z" fill="#5018CA"/>
<path d="M15.375 14.0625C15.8928 14.0625 16.3125 13.6428 16.3125 13.125C16.3125 12.6072 15.8928 12.1875 15.375 12.1875C14.8572 12.1875 14.4375 12.6072 14.4375 13.125C14.4375 13.6428 14.8572 14.0625 15.375 14.0625Z" fill="#5018CA"/>
</svg>
