<svg width="24" height="24" viewBox="0 0 24 24" fill="none" xmlns="http://www.w3.org/2000/svg">
<path d="M16.8176 13.875C16.6581 14.8966 16.1782 15.841 15.4471 16.5721C14.716 17.3032 13.7716 17.7832 12.75 17.9427" stroke="#5018CA" stroke-width="1.5" stroke-linecap="round" stroke-linejoin="round"/>
<path d="M6.75337 6.12709C5.30604 8.30896 4.125 10.8013 4.125 13.1248C4.125 15.2134 4.95468 17.2165 6.43153 18.6933C7.90838 20.1702 9.91142 20.9998 12 20.9998C14.0886 20.9998 16.0916 20.1702 17.5685 18.6933C19.0453 17.2165 19.875 15.2134 19.875 13.1248C19.875 8.24984 16.5 4.49984 13.7647 1.76904L13.7646 1.76912L10.5 8.62484L6.75347 6.12715L6.75337 6.12709Z" stroke="#5018CA" stroke-width="1.5" stroke-linecap="round" stroke-linejoin="round"/>
</svg>
