<svg width="24" height="24" viewBox="0 0 24 24" fill="none" xmlns="http://www.w3.org/2000/svg">
<path d="M14.625 8.0625C15.1428 8.0625 15.5625 7.64277 15.5625 7.125C15.5625 6.60723 15.1428 6.1875 14.625 6.1875C14.1072 6.1875 13.6875 6.60723 13.6875 7.125C13.6875 7.64277 14.1072 8.0625 14.625 8.0625Z" fill="#5018CA"/>
<path d="M17.4659 15.7447C17.3944 15.7481 17.3224 15.7498 17.25 15.7498C16.0565 15.7498 14.9119 15.2757 14.068 14.4318C13.2241 13.5879 12.75 12.4433 12.75 11.2498C11.5565 11.2498 10.4119 10.7757 9.56802 9.9318C8.72411 9.08789 8.25 7.94329 8.25 6.74982C8.25 6.67703 8.25171 6.60467 8.25514 6.53271" stroke="#5018CA" stroke-width="1.5" stroke-linecap="round" stroke-linejoin="round"/>
<path d="M5.82909 14.3605L0.75 16.4965L6 18L7.5 23.25L9.63753 18.1687V18.1687C22.6087 17.8607 20.8881 6.64705 20.3608 4.21304C20.3305 4.07233 20.2602 3.94336 20.1584 3.84157C20.0566 3.73979 19.9276 3.6695 19.7869 3.63912C17.353 3.11188 6.14016 1.39142 5.82909 14.3605H5.82909Z" stroke="#5018CA" stroke-width="1.5" stroke-linecap="round" stroke-linejoin="round"/>
</svg>
