<svg width="24" height="24" viewBox="0 0 24 24" fill="none" xmlns="http://www.w3.org/2000/svg">
<path d="M14.625 8.0625C15.1428 8.0625 15.5625 7.64277 15.5625 7.125C15.5625 6.60723 15.1428 6.1875 14.625 6.1875C14.1072 6.1875 13.6875 6.60723 13.6875 7.125C13.6875 7.64277 14.1072 8.0625 14.625 8.0625Z" fill="#5018CA"/>
<path d="M1.5 17.2465C23.2351 22.0042 20.9804 7.07506 20.3613 4.21498C20.3308 4.07369 20.2602 3.94419 20.158 3.84198C20.0558 3.73977 19.9263 3.66919 19.785 3.6387C16.9249 3.01958 1.99544 0.764831 6.75 22.5" stroke="#5018CA" stroke-width="1.5" stroke-linecap="round" stroke-linejoin="round"/>
<path d="M18.8763 14.2493C17.6731 14.2662 16.4788 14.0416 15.364 13.5889C14.2491 13.1362 13.2364 12.4645 12.3856 11.6136C11.5348 10.7628 10.8633 9.74989 10.4108 8.63497C9.95822 7.52005 9.73385 6.3257 9.7509 5.12256" stroke="#5018CA" stroke-width="1.5" stroke-linecap="round" stroke-linejoin="round"/>
</svg>
