<svg width="24" height="24" viewBox="0 0 24 24" fill="none" xmlns="http://www.w3.org/2000/svg">
<path d="M9.74958 3V8.79226C9.74958 8.9282 9.71264 9.06158 9.6427 9.17814L3.6811 19.1141C3.61282 19.2279 3.57595 19.3578 3.57428 19.4905C3.5726 19.6232 3.60618 19.754 3.67157 19.8695C3.73696 19.985 3.83183 20.0811 3.94649 20.1479C4.06115 20.2148 4.1915 20.25 4.32422 20.25H19.6749C19.8077 20.25 19.938 20.2148 20.0527 20.1479C20.1673 20.0811 20.2622 19.985 20.3276 19.8695C20.393 19.754 20.4266 19.6232 20.4249 19.4905C20.4232 19.3578 20.3863 19.2279 20.3181 19.1141L14.3565 9.17813C14.2865 9.06157 14.2496 8.92819 14.2496 8.79226V3" stroke="#5018CA" stroke-width="1.5" stroke-linecap="round" stroke-linejoin="round"/>
<path d="M8.25 3H15.75" stroke="#5018CA" stroke-width="1.5" stroke-linecap="round" stroke-linejoin="round"/>
<path d="M5.87012 15.4654C6.97859 14.6575 8.88143 14.1908 11.9998 15.75C15.3471 17.4236 17.2938 16.7631 18.3609 15.8518" stroke="#5018CA" stroke-width="1.5" stroke-linecap="round" stroke-linejoin="round"/>
</svg>
