<svg width="24" height="24" viewBox="0 0 24 24" fill="none" xmlns="http://www.w3.org/2000/svg">
<path d="M4.125 19.125C5.57475 19.125 6.75 17.9497 6.75 16.5C6.75 15.0503 5.57475 13.875 4.125 13.875C2.67525 13.875 1.5 15.0503 1.5 16.5C1.5 17.9497 2.67525 19.125 4.125 19.125Z" stroke="#5018CA" stroke-width="1.5" stroke-linecap="round" stroke-linejoin="round"/>
<path d="M18.75 3.75L22.5 7.5L18.75 11.25" stroke="#5018CA" stroke-width="1.5" stroke-linecap="round" stroke-linejoin="round"/>
<path d="M6.75 16.5H7.50001C8.69348 16.5 9.83807 16.0259 10.682 15.182C11.5259 14.3381 12 13.1935 12 12V12C12 10.8065 12.4741 9.66193 13.318 8.81802C14.1619 7.97411 15.3065 7.5 16.5 7.5H22.5" stroke="#5018CA" stroke-width="1.5" stroke-linecap="round" stroke-linejoin="round"/>
</svg>
