<svg width="24" height="24" viewBox="0 0 24 24" fill="none" xmlns="http://www.w3.org/2000/svg">
<path d="M5.25 20.25V5.25C5.25 4.85218 5.40804 4.47064 5.68934 4.18934C5.97064 3.90804 6.35218 3.75 6.75 3.75H14.25C14.6478 3.75 15.0294 3.90804 15.3107 4.18934C15.592 4.47064 15.75 4.85218 15.75 5.25V20.25" stroke="#5018CA" stroke-width="1.5" stroke-linecap="round" stroke-linejoin="round"/>
<path d="M3 20.25H18" stroke="#5018CA" stroke-width="1.5" stroke-linecap="round" stroke-linejoin="round"/>
<path d="M15.75 10.5H18C18.3978 10.5 18.7794 10.658 19.0607 10.9393C19.342 11.2206 19.5 11.6022 19.5 12V15.75C19.5 16.1478 19.658 16.5294 19.9393 16.8107C20.2206 17.092 20.6022 17.25 21 17.25C21.3978 17.25 21.7794 17.092 22.0607 16.8107C22.342 16.5294 22.5 16.1478 22.5 15.75V8.12132C22.5 7.7235 22.342 7.34197 22.0607 7.06066L20.25 5.25" stroke="#5018CA" stroke-width="1.5" stroke-linecap="round" stroke-linejoin="round"/>
<path d="M12.75 10.5H8.25" stroke="#5018CA" stroke-width="1.5" stroke-linecap="round" stroke-linejoin="round"/>
</svg>
