<svg width="24" height="24" viewBox="0 0 24 24" fill="none" xmlns="http://www.w3.org/2000/svg">
<path d="M12.0005 16.5002C14.4858 16.5002 16.5005 14.4855 16.5005 12.0002C16.5005 9.51496 14.4858 7.50024 12.0005 7.50024C9.51521 7.50024 7.50049 9.51496 7.50049 12.0002C7.50049 14.4855 9.51521 16.5002 12.0005 16.5002Z" stroke="#5018CA" stroke-width="1.5" stroke-linecap="round" stroke-linejoin="round"/>
<path d="M18.5069 7.561C18.7287 7.8867 18.9258 8.2286 19.0963 8.58381L21.5288 9.93414C21.8251 11.2949 21.8261 12.7034 21.5318 14.0645L19.098 15.4156C18.9268 15.7706 18.7293 16.1121 18.5069 16.4375L18.5537 19.2192C17.5234 20.1562 16.3042 20.8613 14.9782 21.287L12.5912 19.8548C12.1983 19.8841 11.8037 19.8837 11.4107 19.8539L9.02509 21.2853C7.6985 20.8615 6.47822 20.1581 5.44656 19.2227L5.49341 16.4394C5.27159 16.1137 5.07455 15.7718 4.90396 15.4166L2.4715 14.0663C2.17522 12.7055 2.1742 11.297 2.46852 9.93585L4.90233 8.58478C5.07348 8.22983 5.27106 7.88824 5.49339 7.5629L5.44657 4.78117C6.47688 3.8442 7.69614 3.13909 9.02211 2.71338L11.4091 4.14559C11.802 4.11633 12.1967 4.11665 12.5896 4.14652L14.9752 2.7151C16.3018 3.1389 17.5221 3.84225 18.5538 4.77772L18.5069 7.561Z" stroke="#5018CA" stroke-width="1.5" stroke-linecap="round" stroke-linejoin="round"/>
</svg>
