<svg width="24" height="24" viewBox="0 0 24 24" fill="none" xmlns="http://www.w3.org/2000/svg">
<path d="M9.375 11.8125C9.89277 11.8125 10.3125 11.3928 10.3125 10.875C10.3125 10.3572 9.89277 9.9375 9.375 9.9375C8.85723 9.9375 8.4375 10.3572 8.4375 10.875C8.4375 11.3928 8.85723 11.8125 9.375 11.8125Z" fill="#5018CA"/>
<path d="M14.625 11.8125C15.1428 11.8125 15.5625 11.3928 15.5625 10.875C15.5625 10.3572 15.1428 9.9375 14.625 9.9375C14.1072 9.9375 13.6875 10.3572 13.6875 10.875C13.6875 11.3928 14.1072 11.8125 14.625 11.8125Z" fill="#5018CA"/>
<path d="M20.25 20.25L17.5 18L14.75 20.25L12 18L9.25 20.25L6.5 18L3.75 20.25V11.25C3.75 9.06196 4.61919 6.96354 6.16637 5.41637C7.71354 3.86919 9.81196 3 12 3C14.188 3 16.2865 3.86919 17.8336 5.41637C19.3808 6.96354 20.25 9.06196 20.25 11.25V20.25Z" stroke="#5018CA" stroke-width="1.5" stroke-linecap="round" stroke-linejoin="round"/>
</svg>
