<svg width="24" height="24" viewBox="0 0 24 24" fill="none" xmlns="http://www.w3.org/2000/svg">
<path d="M12 21C16.9706 21 21 16.9706 21 12C21 7.02944 16.9706 3 12 3C7.02944 3 3 7.02944 3 12C3 16.9706 7.02944 21 12 21Z" stroke="#5018CA" stroke-width="1.5" stroke-linecap="round" stroke-linejoin="round"/>
<path d="M4.64844 17.1932L5.74323 16.5323C5.85321 16.4659 5.94429 16.3724 6.00774 16.2607C6.0712 16.149 6.1049 16.0229 6.10562 15.8944L6.12463 12.5073C6.12543 12.3658 6.16624 12.2274 6.24236 12.1081L8.10261 9.19273C8.15759 9.10656 8.22961 9.03254 8.31424 8.97521C8.39887 8.91788 8.49432 8.87846 8.59474 8.85936C8.69516 8.84026 8.79842 8.8419 8.89819 8.86415C8.99795 8.88641 9.09211 8.92883 9.17489 8.9888L11.0176 10.3239C11.1737 10.4369 11.3673 10.4856 11.5583 10.4597L14.5096 10.06C14.6906 10.0355 14.8565 9.94578 14.976 9.80765L17.0533 7.40757C17.1794 7.26187 17.2445 7.07322 17.2353 6.88074L17.1258 4.60229" stroke="#5018CA" stroke-width="1.5" stroke-linecap="round" stroke-linejoin="round"/>
<path d="M17.5371 19.0954L16.531 18.0873C16.4369 17.993 16.3194 17.9255 16.1905 17.8917L14.1788 17.3637C14.0002 17.3169 13.8452 17.2058 13.7434 17.0518C13.6417 16.8978 13.6003 16.7117 13.6271 16.529L13.8507 15.0107C13.8696 14.8825 13.9213 14.7614 14.0009 14.6592C14.0805 14.5569 14.1852 14.4771 14.3049 14.4274L17.1596 13.2408C17.2915 13.186 17.4362 13.17 17.5769 13.1946C17.7175 13.2192 17.8482 13.2835 17.9536 13.3799L20.2875 15.5144" stroke="#5018CA" stroke-width="1.5" stroke-linecap="round" stroke-linejoin="round"/>
</svg>
