<svg width="24" height="24" viewBox="0 0 24 24" fill="none" xmlns="http://www.w3.org/2000/svg">
<path d="M11.9996 9.75V3.375C11.9996 2.87772 11.8021 2.40081 11.4504 2.04917C11.0988 1.69754 10.6219 1.5 10.1246 1.5C9.62734 1.5 9.15043 1.69754 8.7988 2.04917C8.44717 2.40081 8.24962 2.87772 8.24962 3.375V14.7437L6.19392 11.1831C6.07092 10.9697 5.90705 10.7825 5.7117 10.6324C5.51634 10.4823 5.29332 10.3722 5.05538 10.3083C4.81744 10.2445 4.56925 10.2281 4.32499 10.2602C4.08073 10.2923 3.84519 10.3723 3.63184 10.4955C3.41848 10.6186 3.23149 10.7827 3.08156 10.9781C2.93163 11.1736 2.82169 11.3967 2.75802 11.6347C2.69436 11.8727 2.67822 12.1209 2.71053 12.3652C2.74284 12.6094 2.82296 12.8449 2.94632 13.0581C5.99962 19.5 7.85749 21.75 11.9996 21.75C12.9845 21.75 13.9598 21.556 14.8697 21.1791C15.7797 20.8022 16.6065 20.2497 17.3029 19.5533C17.9994 18.8569 18.5518 18.0301 18.9287 17.1201C19.3056 16.2102 19.4996 15.2349 19.4996 14.25V10.5C19.4996 10.0027 19.3021 9.52581 18.9504 9.17417C18.5988 8.82254 18.1219 8.625 17.6246 8.625C17.1273 8.625 16.6504 8.82254 16.2988 9.17417C15.9472 9.52581 15.7496 10.0027 15.7496 10.5" stroke="#5018CA" stroke-width="1.5" stroke-linecap="round" stroke-linejoin="round"/>
<path d="M15.75 10.5V9.375C15.75 8.87772 15.5525 8.40081 15.2008 8.04917C14.8492 7.69754 14.3723 7.5 13.875 7.5C13.3777 7.5 12.9008 7.69754 12.5492 8.04917C12.1975 8.40081 12 8.87772 12 9.375V9.75" stroke="#5018CA" stroke-width="1.5" stroke-linecap="round" stroke-linejoin="round"/>
</svg>
