<svg width="24" height="24" viewBox="0 0 24 24" fill="none" xmlns="http://www.w3.org/2000/svg">
<path d="M4.85732 11.4284C4.74657 11.2364 4.59908 11.0681 4.42326 10.9331C4.24744 10.7981 4.04675 10.699 3.83265 10.6416C3.61854 10.5842 3.39522 10.5695 3.17544 10.5984C2.95566 10.6273 2.74373 10.6992 2.55176 10.8101C2.35978 10.9209 2.19153 11.0685 2.0566 11.2444C1.92168 11.4203 1.82273 11.621 1.76541 11.8351C1.70808 12.0493 1.69351 12.2726 1.72252 12.4924C1.75153 12.7121 1.82356 12.924 1.93448 13.1159L5.40323 19.124C6.29834 20.6744 7.77267 21.8056 9.50188 22.269C11.2311 22.7323 13.0735 22.4898 14.6239 21.5947C16.1743 20.6996 17.3056 19.2252 17.7689 17.496C18.2322 15.7668 17.9897 13.9244 17.0946 12.374L15.5008 9.61353C15.2771 9.22594 14.9085 8.94312 14.4762 8.82728C14.0439 8.71144 13.5833 8.77209 13.1957 8.99586C12.8081 9.21964 12.5252 9.58822 12.4094 10.0205C12.2936 10.4528 12.3542 10.9134 12.578 11.301" stroke="#5018CA" stroke-width="1.5" stroke-linecap="round" stroke-linejoin="round"/>
<path d="M10.0298 13.638L6.46728 7.46753C6.24351 7.07994 5.87492 6.79712 5.44262 6.68128C5.01032 6.56545 4.54971 6.62609 4.16211 6.84987C3.77452 7.07364 3.4917 7.44222 3.37586 7.87453C3.26003 8.30683 3.32067 8.76744 3.54445 9.15503L7.10695 15.3255" stroke="#5018CA" stroke-width="1.5" stroke-linecap="round" stroke-linejoin="round"/>
<path d="M14.0782 13.8991L10.1407 7.07916C9.91683 6.69179 9.54827 6.40919 9.11607 6.29349C8.68387 6.17779 8.22342 6.23846 7.83594 6.46217C7.44847 6.68588 7.16569 7.05431 7.04979 7.48645C6.93389 7.91859 6.99435 8.37908 7.21788 8.76666" stroke="#5018CA" stroke-width="1.5" stroke-linecap="round" stroke-linejoin="round"/>
<path d="M9.28503 6.34799L8.31533 4.66841C8.20458 4.47638 8.05709 4.30806 7.88127 4.17305C7.70545 4.03804 7.50476 3.939 7.29065 3.88158C7.07655 3.82415 6.85323 3.80948 6.63345 3.83839C6.41367 3.86729 6.20174 3.93922 6.00977 4.05006C5.81779 4.16089 5.64954 4.30847 5.51461 4.48435C5.37969 4.66023 5.28074 4.86097 5.22341 5.0751C5.16609 5.28923 5.15152 5.51256 5.18053 5.73232C5.20954 5.95209 5.28157 6.16399 5.39249 6.35591L5.61216 6.73638" stroke="#5018CA" stroke-width="1.5" stroke-linecap="round" stroke-linejoin="round"/>
<path d="M17.6286 17.9546C18.7723 16.9183 19.5265 15.5215 19.7656 13.9968C20.0047 12.4721 19.7143 10.9115 18.9428 9.57486L17.349 6.8144C17.2383 6.62238 17.0908 6.45405 16.915 6.31905C16.7391 6.18404 16.5384 6.085 16.3243 6.02757C16.1102 5.97015 15.8869 5.95547 15.6671 5.98438C15.4474 6.01329 15.2354 6.08522 15.0435 6.19605C14.8515 6.30689 14.6832 6.45446 14.5483 6.63034C14.4134 6.80622 14.3144 7.00696 14.2571 7.22109C14.1998 7.43523 14.1852 7.65855 14.2142 7.87832C14.2432 8.09809 14.3153 8.30998 14.4262 8.5019" stroke="#5018CA" stroke-width="1.5" stroke-linecap="round" stroke-linejoin="round"/>
<path d="M14.646 8.88251L11.9888 4.28003C11.878 4.08812 11.7304 3.9199 11.5546 3.785C11.3788 3.65009 11.1782 3.55114 10.9641 3.49378C10.5318 3.37795 10.0712 3.43859 9.6836 3.66237C9.29601 3.88614 9.01318 4.25472 8.89735 4.68703C8.78151 5.11933 8.84215 5.57994 9.06593 5.96753" stroke="#5018CA" stroke-width="1.5" stroke-linecap="round" stroke-linejoin="round"/>
<path d="M16.5791 1.05664L16.1909 2.50553" stroke="#5018CA" stroke-width="1.5" stroke-linecap="round" stroke-linejoin="round"/>
<path d="M19.4121 2.37769L18.5518 3.60641" stroke="#5018CA" stroke-width="1.5" stroke-linecap="round" stroke-linejoin="round"/>
<path d="M21.6223 4.58789L20.3936 5.44826" stroke="#5018CA" stroke-width="1.5" stroke-linecap="round" stroke-linejoin="round"/>
</svg>
