<svg width="24" height="24" viewBox="0 0 24 24" fill="none" xmlns="http://www.w3.org/2000/svg">
<path d="M22.5673 11.4172L20.25 12.5759L17.25 6.83067L19.5909 5.66024C19.7667 5.5723 19.9701 5.55695 20.1572 5.61749C20.3443 5.67802 20.5001 5.80961 20.5911 5.9839L22.8967 10.3992C22.9428 10.4875 22.9708 10.5841 22.9792 10.6834C22.9876 10.7826 22.9761 10.8825 22.9454 10.9773C22.9148 11.0721 22.8655 11.1598 22.8006 11.2353C22.7357 11.3108 22.6564 11.3727 22.5673 11.4172V11.4172Z" stroke="#5018CA" stroke-width="1.5" stroke-linecap="round" stroke-linejoin="round"/>
<path d="M3.74994 12.4755L1.43266 11.3169C1.34357 11.2723 1.26425 11.2105 1.19932 11.135C1.13439 11.0594 1.08516 10.9717 1.0545 10.877C1.02383 10.7822 1.01235 10.6823 1.02072 10.583C1.02909 10.4838 1.05714 10.3872 1.10325 10.2989L3.40883 5.88357C3.49985 5.70927 3.65567 5.57768 3.84275 5.51714C4.02982 5.45661 4.23319 5.47196 4.40906 5.55989L6.74994 6.73033L3.74994 12.4755Z" stroke="#5018CA" stroke-width="1.5" stroke-linecap="round" stroke-linejoin="round"/>
<path d="M20.25 12.5761L18.75 14.3309L15.3003 17.7806C15.2087 17.8722 15.095 17.9385 14.9701 17.9731C14.8453 18.0076 14.7137 18.0093 14.588 17.9779L9.15458 16.6195C9.05266 16.594 8.95724 16.5474 8.87448 16.4827L3.75 12.4756" stroke="#5018CA" stroke-width="1.5" stroke-linecap="round" stroke-linejoin="round"/>
<path d="M18.7498 14.3308L14.6248 11.3308L13.4248 12.2308C12.9055 12.6203 12.2739 12.8308 11.6248 12.8308C10.9757 12.8308 10.3441 12.6203 9.8248 12.2308L9.3166 11.8497C9.23064 11.7852 9.15953 11.703 9.1081 11.6087C9.05667 11.5143 9.02611 11.41 9.01849 11.3028C9.01087 11.1956 9.02637 11.0881 9.06395 10.9874C9.10152 10.8867 9.16029 10.7953 9.23627 10.7193L12.9051 7.05048C12.9748 6.98084 13.0574 6.92559 13.1484 6.8879C13.2394 6.85021 13.337 6.83081 13.4355 6.83081H17.2498" stroke="#5018CA" stroke-width="1.5" stroke-linecap="round" stroke-linejoin="round"/>
<path d="M6.80371 6.73022L11.615 5.32758C11.7868 5.27748 11.971 5.2905 12.1341 5.3643L15.3749 6.83071" stroke="#5018CA" stroke-width="1.5" stroke-linecap="round" stroke-linejoin="round"/>
<path d="M10.5 19.9558L7.67443 19.2494C7.55977 19.2207 7.4535 19.1654 7.3643 19.0878L5.25 17.25" stroke="#5018CA" stroke-width="1.5" stroke-linecap="round" stroke-linejoin="round"/>
</svg>
