<svg width="24" height="24" viewBox="0 0 24 24" fill="none" xmlns="http://www.w3.org/2000/svg">
<path d="M20.249 20.2501V10.8319C20.249 10.7274 20.2272 10.624 20.1849 10.5284C20.1426 10.4329 20.0809 10.3472 20.0035 10.2769L12.503 3.45799C12.365 3.33248 12.1851 3.26293 11.9985 3.26294C11.8119 3.26295 11.632 3.3325 11.494 3.45803L3.99447 10.2769C3.91716 10.3472 3.85539 10.4329 3.81312 10.5284C3.77086 10.624 3.74902 10.7273 3.74902 10.8318V20.2501" stroke="#5018CA" stroke-width="1.5" stroke-linecap="round" stroke-linejoin="round"/>
<path d="M1.49902 20.25H22.499" stroke="#5018CA" stroke-width="1.5" stroke-linecap="round" stroke-linejoin="round"/>
<path d="M14.248 20.2493V14.9993C14.248 14.8004 14.169 14.6096 14.0284 14.4689C13.8877 14.3283 13.697 14.2493 13.498 14.2493H10.498C10.2991 14.2493 10.1084 14.3283 9.96772 14.4689C9.82706 14.6096 9.74805 14.8004 9.74805 14.9993V20.2493" stroke="#5018CA" stroke-width="1.5" stroke-linecap="round" stroke-linejoin="round"/>
</svg>
