<svg width="24" height="24" viewBox="0 0 24 24" fill="none" xmlns="http://www.w3.org/2000/svg">
<path d="M9 15.75C12.7279 15.75 15.75 12.7279 15.75 9C15.75 5.27208 12.7279 2.25 9 2.25C5.27208 2.25 2.25 5.27208 2.25 9C2.25 12.7279 5.27208 15.75 9 15.75Z" stroke="#5018CA" stroke-width="1.5" stroke-linecap="round" stroke-linejoin="round"/>
<path d="M15 21.75C18.7279 21.75 21.75 18.7279 21.75 15C21.75 11.2721 18.7279 8.25 15 8.25C11.2721 8.25 8.25 11.2721 8.25 15C8.25 18.7279 11.2721 21.75 15 21.75Z" stroke="#5018CA" stroke-width="1.5" stroke-linecap="round" stroke-linejoin="round"/>
<path d="M11.4863 9.23608L14.7645 12.5143" stroke="#5018CA" stroke-width="1.5" stroke-linecap="round" stroke-linejoin="round"/>
<path d="M9.23535 11.4858L12.5136 14.7641" stroke="#5018CA" stroke-width="1.5" stroke-linecap="round" stroke-linejoin="round"/>
</svg>
