<svg width="24" height="24" viewBox="0 0 24 24" fill="none" xmlns="http://www.w3.org/2000/svg">
<path d="M10.5 12.8182V4.18182C10.5 3.94333 10.1642 3.75 9.75 3.75L6 3.75C5.58579 3.75 5.25 3.94333 5.25 4.18182L5.25 12.8182C5.25 13.0567 5.58579 13.25 6 13.25H9.75C10.1642 13.25 10.5 13.0567 10.5 12.8182Z" stroke="#5018CA" stroke-width="1.5" stroke-linecap="round" stroke-linejoin="round"/>
<path d="M18.75 19.5V4.5C18.75 4.08579 18.4142 3.75 18 3.75L14.25 3.75C13.8358 3.75 13.5 4.08579 13.5 4.5V19.5C13.5 19.9142 13.8358 20.25 14.25 20.25H18C18.4142 20.25 18.75 19.9142 18.75 19.5Z" stroke="#5018CA" stroke-width="1.5" stroke-linecap="round" stroke-linejoin="round"/>
</svg>
