<svg width="24" height="24" viewBox="0 0 24 24" fill="none" xmlns="http://www.w3.org/2000/svg">
<path d="M6.49484 3.75H17.5057C17.6525 3.75 17.7961 3.79307 17.9186 3.87387C18.0412 3.95467 18.1373 4.06965 18.1951 4.20456L22.0522 13.2046C22.1011 13.3186 22.121 13.4431 22.1099 13.5667C22.0989 13.6903 22.0573 13.8093 21.989 13.9129C21.9207 14.0165 21.8277 14.1015 21.7185 14.1604C21.6092 14.2192 21.487 14.25 21.3629 14.25H2.6377C2.51358 14.25 2.39141 14.2192 2.28213 14.1604C2.17286 14.1015 2.07989 14.0165 2.01156 13.9129C1.94324 13.8093 1.9017 13.6903 1.89067 13.5667C1.87963 13.4431 1.89945 13.3186 1.94834 13.2046L5.80548 4.20456C5.8633 4.06965 5.95943 3.95467 6.08197 3.87387C6.20451 3.79307 6.34806 3.75 6.49484 3.75V3.75Z" stroke="#5018CA" stroke-width="1.5" stroke-linecap="round" stroke-linejoin="round"/>
<path d="M12 14.25V20.25" stroke="#5018CA" stroke-width="1.5" stroke-linecap="round" stroke-linejoin="round"/>
<path d="M9 20.25H15" stroke="#5018CA" stroke-width="1.5" stroke-linecap="round" stroke-linejoin="round"/>
<path d="M18.75 14.25V18" stroke="#5018CA" stroke-width="1.5" stroke-linecap="round" stroke-linejoin="round"/>
</svg>
