<svg width="24" height="24" viewBox="0 0 24 24" fill="none" xmlns="http://www.w3.org/2000/svg">
<path d="M10.8008 20.1818L10.8008 3.81818C10.8008 3.36631 10.417 3 9.94364 3L5.65792 3C5.18454 3 4.80078 3.36631 4.80078 3.81818L4.80078 20.1818C4.80078 20.6337 5.18454 21 5.65792 21L9.94364 21C10.417 21 10.8008 20.6337 10.8008 20.1818Z" stroke="#5018CA" stroke-width="1.5" stroke-linecap="round" stroke-linejoin="round"/>
<path d="M19.8008 13.0227L19.8008 3.47727C19.8008 3.21368 19.417 3 18.9436 3L14.6579 3C14.1845 3 13.8008 3.21368 13.8008 3.47727L13.8008 13.0227C13.8008 13.2863 14.1845 13.5 14.6579 13.5L18.9436 13.5C19.417 13.5 19.8008 13.2863 19.8008 13.0227Z" stroke="#5018CA" stroke-width="1.5" stroke-linecap="round" stroke-linejoin="round"/>
</svg>
