<svg width="24" height="24" viewBox="0 0 24 24" fill="none" xmlns="http://www.w3.org/2000/svg">
<path d="M9 6.75V4.5" stroke="#5018CA" stroke-width="1.5" stroke-linecap="round" stroke-linejoin="round"/>
<path d="M15 19.5V17.25" stroke="#5018CA" stroke-width="1.5" stroke-linecap="round" stroke-linejoin="round"/>
<path d="M6.75 9H4.5" stroke="#5018CA" stroke-width="1.5" stroke-linecap="round" stroke-linejoin="round"/>
<path d="M19.5 15H17.25" stroke="#5018CA" stroke-width="1.5" stroke-linecap="round" stroke-linejoin="round"/>
<path d="M6.6592 12.0376L5.59854 13.0983C4.89562 13.8016 4.50083 14.7553 4.50098 15.7497C4.50112 16.744 4.8962 17.6976 5.59933 18.4008C6.30245 19.1039 7.25605 19.499 8.25042 19.4991C9.24479 19.4993 10.1985 19.1045 10.9018 18.4016L11.9625 17.3409" stroke="#5018CA" stroke-width="1.5" stroke-linecap="round" stroke-linejoin="round"/>
<path d="M17.3409 11.9623L18.4016 10.9016C19.1045 10.1983 19.4993 9.24454 19.4991 8.25018C19.499 7.25581 19.1039 6.30221 18.4008 5.59908C17.6976 4.89596 16.744 4.50088 15.7497 4.50073C14.7553 4.50058 13.8016 4.89538 13.0983 5.59829L12.0376 6.65895" stroke="#5018CA" stroke-width="1.5" stroke-linecap="round" stroke-linejoin="round"/>
</svg>
