<svg width="24" height="24" viewBox="0 0 24 24" fill="none" xmlns="http://www.w3.org/2000/svg">
<path d="M11.4698 6.6968L13.326 4.84065C13.7089 4.45731 14.1637 4.15319 14.6642 3.94565C15.1648 3.73811 15.7013 3.63123 16.2432 3.6311C16.785 3.63098 17.3216 3.73761 17.8223 3.94492C18.3229 4.15222 18.7778 4.45613 19.161 4.83929C19.5441 5.22244 19.848 5.67734 20.0553 6.17798C20.2626 6.67862 20.3693 7.2152 20.3691 7.75706C20.369 8.29893 20.2621 8.83546 20.0546 9.336C19.8471 9.83655 19.5429 10.2913 19.1596 10.6743L16.5079 13.3259C16.1249 13.709 15.6702 14.0128 15.1697 14.2201C14.6692 14.4274 14.1328 14.5341 13.5911 14.5341C13.0494 14.5341 12.513 14.4274 12.0126 14.2201C11.5121 14.0128 11.0574 13.709 10.6743 13.3259" stroke="#5018CA" stroke-width="1.5" stroke-linecap="round" stroke-linejoin="round"/>
<path d="M12.5302 17.3034L10.674 19.1595C10.2911 19.5429 9.8363 19.847 9.33576 20.0545C8.83521 20.2621 8.29868 20.3689 7.75682 20.3691C7.21496 20.3692 6.67838 20.2626 6.17773 20.0553C5.67709 19.848 5.2222 19.544 4.83904 19.1609C4.45589 18.7777 4.15198 18.3228 3.94467 17.8222C3.73737 17.3216 3.63073 16.785 3.63086 16.2431C3.63099 15.7012 3.73787 15.1647 3.94541 14.6642C4.15295 14.1636 4.45707 13.7089 4.8404 13.3259L7.49205 10.6742C7.87509 10.2912 8.32983 9.98736 8.8303 9.78006C9.33077 9.57276 9.86717 9.46606 10.4089 9.46606C10.9506 9.46606 11.487 9.57276 11.9874 9.78006C12.4879 9.98736 12.9426 10.2912 13.3257 10.6742" stroke="#5018CA" stroke-width="1.5" stroke-linecap="round" stroke-linejoin="round"/>
</svg>
