<svg width="24" height="24" viewBox="0 0 24 24" fill="none" xmlns="http://www.w3.org/2000/svg">
<path d="M11.999 16.5C16.1412 16.5 19.499 13.1421 19.499 9C19.499 4.85786 16.1412 1.5 11.999 1.5C7.85689 1.5 4.49902 4.85786 4.49902 9C4.49902 13.1421 7.85689 16.5 11.999 16.5Z" stroke="#5018CA" stroke-width="1.5" stroke-linecap="round" stroke-linejoin="round"/>
<path d="M11.999 13.5C14.4843 13.5 16.499 11.4853 16.499 9C16.499 6.51472 14.4843 4.5 11.999 4.5C9.51374 4.5 7.49902 6.51472 7.49902 9C7.49902 11.4853 9.51374 13.5 11.999 13.5Z" stroke="#5018CA" stroke-width="1.5" stroke-linecap="round" stroke-linejoin="round"/>
<path d="M16.5 14.9995V22.5L11.9993 20.25L7.5 22.5V15.0002" stroke="#5018CA" stroke-width="1.5" stroke-linecap="round" stroke-linejoin="round"/>
</svg>
