<svg width="24" height="24" viewBox="0 0 24 24" fill="none" xmlns="http://www.w3.org/2000/svg">
<path d="M16.875 18.75C18.3247 18.75 19.5 17.5747 19.5 16.125C19.5 14.6753 18.3247 13.5 16.875 13.5C15.4253 13.5 14.25 14.6753 14.25 16.125C14.25 17.5747 15.4253 18.75 16.875 18.75Z" stroke="#5018CA" stroke-width="1.5" stroke-linecap="round" stroke-linejoin="round"/>
<path d="M4.875 21.75C6.32475 21.75 7.5 20.5747 7.5 19.125C7.5 17.6753 6.32475 16.5 4.875 16.5C3.42525 16.5 2.25 17.6753 2.25 19.125C2.25 20.5747 3.42525 21.75 4.875 21.75Z" stroke="#5018CA" stroke-width="1.5" stroke-linecap="round" stroke-linejoin="round"/>
<path d="M7.5 19.125V6L19.5 3V16.125" stroke="#5018CA" stroke-width="1.5" stroke-linecap="round" stroke-linejoin="round"/>
</svg>
