<svg width="24" height="24" viewBox="0 0 24 24" fill="none" xmlns="http://www.w3.org/2000/svg">
<path d="M12 21C16.9706 21 21 16.9706 21 12C21 7.02944 16.9706 3 12 3C7.02944 3 3 7.02944 3 12C3 16.9706 7.02944 21 12 21Z" stroke="#5018CA" stroke-width="1.5" stroke-linecap="round" stroke-linejoin="round"/>
<path d="M9.92681 8.87427C10.049 8.58521 10.2303 8.32489 10.459 8.11005C10.6878 7.8952 10.9589 7.73058 11.2551 7.62675C11.5512 7.52291 11.8658 7.48217 12.1786 7.50713C12.4914 7.53209 12.7956 7.6222 13.0715 7.77168C13.3475 7.92116 13.5891 8.1267 13.7809 8.3751C13.9726 8.6235 14.1104 8.90926 14.1852 9.21404C14.2599 9.51882 14.2702 9.83587 14.2152 10.1448C14.1601 10.4538 14.0411 10.7478 13.8657 11.0081V11.0081L9.75 16.5001V16.4995H14.25" stroke="#5018CA" stroke-width="1.5" stroke-linecap="round" stroke-linejoin="round"/>
</svg>
