<svg width="24" height="24" viewBox="0 0 24 24" fill="none" xmlns="http://www.w3.org/2000/svg">
<path d="M12 21C16.9706 21 21 16.9706 21 12C21 7.02944 16.9706 3 12 3C7.02944 3 3 7.02944 3 12C3 16.9706 7.02944 21 12 21Z" stroke="#5018CA" stroke-width="1.5" stroke-linecap="round" stroke-linejoin="round"/>
<path d="M9.75 7.87427H14.25L11.6256 11.625C12.0573 11.625 12.4823 11.7315 12.863 11.935C13.2437 12.1385 13.5684 12.4327 13.8082 12.7916C14.048 13.1506 14.1956 13.5631 14.238 13.9927C14.2803 14.4223 14.216 14.8557 14.0508 15.2545C13.8856 15.6534 13.6246 16.0053 13.2909 16.2792C12.9572 16.553 12.5611 16.7403 12.1377 16.8246C11.7143 16.9088 11.2767 16.8873 10.8636 16.762C10.4505 16.6367 10.0747 16.4114 9.76944 16.1062" stroke="#5018CA" stroke-width="1.5" stroke-linecap="round" stroke-linejoin="round"/>
</svg>
