<svg width="24" height="24" viewBox="0 0 24 24" fill="none" xmlns="http://www.w3.org/2000/svg">
<path d="M16.7595 6.71875C16.7568 7.31299 16.6316 7.90029 16.3917 8.44397C16.1519 8.98765 15.8025 9.47604 15.3654 9.87863C14.4467 10.7205 13.2459 11.1875 11.9998 11.1875C10.7538 11.1875 9.55296 10.7205 8.63429 9.87863C8.19508 9.47774 7.84426 8.98969 7.60423 8.44562C7.3642 7.90155 7.24023 7.31341 7.24023 6.71875C7.24023 6.12409 7.3642 5.53595 7.60423 4.99188C7.84426 4.44782 8.19508 3.95976 8.63429 3.55887C9.55296 2.717 10.7538 2.25 11.9998 2.25C13.2459 2.25 14.4467 2.717 15.3654 3.55887C15.8025 3.96146 16.1519 4.44985 16.3917 4.99353C16.6316 5.53721 16.7568 6.12451 16.7595 6.71875V6.71875Z" stroke="#5018CA" stroke-width="1.5" stroke-linecap="round" stroke-linejoin="round"/>
<path d="M17.625 16.4688C17.6218 17.171 17.4739 17.8651 17.1904 18.5076C16.9069 19.1502 16.494 19.7274 15.9775 20.2032C14.8918 21.1981 13.4726 21.75 12 21.75C10.5274 21.75 9.10822 21.1981 8.02252 20.2032C7.50345 19.7294 7.08885 19.1526 6.80518 18.5096C6.52151 17.8666 6.375 17.1715 6.375 16.4688C6.375 15.766 6.52151 15.0709 6.80518 14.4279C7.08885 13.7849 7.50345 13.2081 8.02252 12.7343C9.10822 11.7394 10.5274 11.1875 12 11.1875C13.4726 11.1875 14.8918 11.7394 15.9775 12.7343C16.494 13.2101 16.9069 13.7873 17.1904 14.4299C17.4739 15.0724 17.6218 15.7665 17.625 16.4688Z" stroke="#5018CA" stroke-width="1.5" stroke-linecap="round" stroke-linejoin="round"/>
</svg>
