<svg width="24" height="24" viewBox="0 0 24 24" fill="none" xmlns="http://www.w3.org/2000/svg">
<path d="M18.75 5.25H4.5C4.08579 5.25 3.75 5.58579 3.75 6V12C3.75 12.4142 4.08579 12.75 4.5 12.75H18.75C19.1642 12.75 19.5 12.4142 19.5 12V6C19.5 5.58579 19.1642 5.25 18.75 5.25Z" stroke="#5018CA" stroke-width="1.5" stroke-linecap="round" stroke-linejoin="round"/>
<path d="M19.5 9H21.75C21.9489 9 22.1397 9.07902 22.2803 9.21967C22.421 9.36032 22.5 9.55109 22.5 9.75V14.4343C22.5 14.5973 22.4469 14.7558 22.3488 14.8859C22.2506 15.016 22.1128 15.1106 21.956 15.1554L12.544 17.8446C12.3872 17.8894 12.2494 17.984 12.1512 18.1141C12.0531 18.2442 12 18.4027 12 18.5657V21.75" stroke="#5018CA" stroke-width="1.5" stroke-linecap="round" stroke-linejoin="round"/>
<path d="M3.75 9H1.5" stroke="#5018CA" stroke-width="1.5" stroke-linecap="round" stroke-linejoin="round"/>
</svg>
