<svg width="24" height="24" viewBox="0 0 24 24" fill="none" xmlns="http://www.w3.org/2000/svg">
<path d="M6.75 9.75L14.25 17.25" stroke="#5018CA" stroke-width="1.5" stroke-linecap="round" stroke-linejoin="round"/>
<path d="M9.53939 17.1914L6.61523 20.1156" stroke="#5018CA" stroke-width="1.5" stroke-linecap="round" stroke-linejoin="round"/>
<path d="M6.91439 14.5664L3.99023 17.4906" stroke="#5018CA" stroke-width="1.5" stroke-linecap="round" stroke-linejoin="round"/>
<path d="M12.7619 8.64397L17.909 2.90894C18.1179 2.69981 18.3659 2.53389 18.639 2.42066C18.912 2.30743 19.2047 2.24911 19.5003 2.24902C19.7958 2.24894 20.0885 2.3071 20.3616 2.42017C20.6347 2.53325 20.8829 2.69903 21.0919 2.90803C21.3009 3.11704 21.4667 3.36518 21.5798 3.63828C21.6928 3.91138 21.751 4.20408 21.7509 4.49966C21.7508 4.79525 21.6925 5.08791 21.5793 5.36095C21.466 5.63398 21.3001 5.88203 21.091 6.09092L15.356 11.238C15.2801 11.3061 15.219 11.3889 15.1762 11.4814C15.1334 11.5738 15.1099 11.6741 15.1072 11.7759C15.1044 11.8778 15.1225 11.9792 15.1602 12.0738C15.1979 12.1685 15.2545 12.2545 15.3266 12.3265L16.1893 13.1893C16.3286 13.3286 16.4391 13.4939 16.5145 13.6759C16.5899 13.8579 16.6287 14.0529 16.6287 14.2499C16.6287 14.4469 16.5899 14.642 16.5145 14.824C16.4391 15.0059 16.3286 15.1713 16.1893 15.3106L9 22.4999L1.5 14.9999L8.68934 7.81059C8.82863 7.6713 8.99399 7.56081 9.17598 7.48543C9.35796 7.41005 9.55302 7.37125 9.75 7.37125C9.94698 7.37125 10.142 7.41005 10.324 7.48543C10.506 7.56081 10.6714 7.6713 10.8107 7.81059L11.6734 8.67335C11.7455 8.7454 11.8315 8.80202 11.9261 8.83974C12.0208 8.87746 12.1221 8.8955 12.224 8.89275C12.3259 8.89 12.4261 8.86652 12.5186 8.82375C12.6111 8.78097 12.6939 8.7198 12.7619 8.64397Z" stroke="#5018CA" stroke-width="1.5" stroke-linecap="round" stroke-linejoin="round"/>
</svg>
