<svg width="24" height="24" viewBox="0 0 24 24" fill="none" xmlns="http://www.w3.org/2000/svg">
<path d="M20.9027 11.5767L11.8871 20.5923C11.6058 20.8736 11.2243 21.0316 10.8264 21.0316C10.4286 21.0316 10.0471 20.8736 9.76578 20.5923L1.81043 12.6369C1.67115 12.4976 1.56066 12.3323 1.48527 12.1503C1.40989 11.9683 1.37109 11.7733 1.37109 11.5763C1.37109 11.3793 1.40989 11.1842 1.48527 11.0022C1.56066 10.8203 1.67115 10.6549 1.81043 10.5156L10.826 1.5L20.9027 11.5767Z" stroke="#5018CA" stroke-width="1.5" stroke-linecap="round" stroke-linejoin="round"/>
<path d="M11.625 12.7505C12.6605 12.7505 13.5 11.911 13.5 10.8755C13.5 9.83995 12.6605 9.00049 11.625 9.00049C10.5895 9.00049 9.75 9.83995 9.75 10.8755C9.75 11.911 10.5895 12.7505 11.625 12.7505Z" stroke="#5018CA" stroke-width="1.5" stroke-linecap="round" stroke-linejoin="round"/>
<path d="M19.5 19.125C19.5 17.2505 21.375 15.375 21.375 15.375C21.375 15.375 23.25 17.2505 23.25 19.125C23.25 19.6223 23.0525 20.0992 22.7008 20.4508C22.3492 20.8025 21.8723 21 21.375 21C20.8777 21 20.4008 20.8025 20.0492 20.4508C19.6975 20.0992 19.5 19.6223 19.5 19.125V19.125Z" stroke="#5018CA" stroke-width="1.5" stroke-linecap="round" stroke-linejoin="round"/>
<path d="M10.2988 9.5498L3.54883 2.7998" stroke="#5018CA" stroke-width="1.5" stroke-linecap="round" stroke-linejoin="round"/>
</svg>
