<svg width="24" height="24" viewBox="0 0 24 24" fill="none" xmlns="http://www.w3.org/2000/svg">
<path d="M20.5811 11.3457L4.74536 2.4777C4.61214 2.4031 4.45932 2.37093 4.30732 2.3855C4.15533 2.40008 4.01141 2.4607 3.89479 2.55926C3.77817 2.65781 3.69441 2.78962 3.65471 2.93706C3.615 3.08449 3.62125 3.24054 3.6726 3.38433L6.65957 11.7479C6.71783 11.911 6.71783 12.0892 6.65957 12.2524L3.6726 20.6159C3.62124 20.7597 3.615 20.9157 3.65471 21.0632C3.69441 21.2106 3.77817 21.3424 3.89479 21.441C4.01141 21.5395 4.15533 21.6001 4.30732 21.6147C4.45932 21.6293 4.61214 21.5971 4.74536 21.5225L20.5811 12.6545C20.6975 12.5894 20.7943 12.4944 20.8617 12.3794C20.9291 12.2643 20.9647 12.1334 20.9647 12.0001C20.9647 11.8668 20.9291 11.7359 20.8617 11.6209C20.7943 11.5058 20.6974 11.4109 20.5811 11.3457V11.3457Z" stroke="#5018CA" stroke-width="1.5" stroke-linecap="round" stroke-linejoin="round"/>
<path d="M6.75 12H12.75" stroke="#5018CA" stroke-width="1.5" stroke-linecap="round" stroke-linejoin="round"/>
</svg>
