<svg width="24" height="24" viewBox="0 0 24 24" fill="none" xmlns="http://www.w3.org/2000/svg">
<path d="M10.875 15C11.9105 15 12.75 14.1605 12.75 13.125C12.75 12.0895 11.9105 11.25 10.875 11.25C9.83947 11.25 9 12.0895 9 13.125C9 14.1605 9.83947 15 10.875 15Z" stroke="#5018CA" stroke-width="1.5" stroke-linecap="round" stroke-linejoin="round"/>
<path d="M3.00098 21.0004L9.5496 14.4509" stroke="#5018CA" stroke-width="1.5" stroke-linecap="round" stroke-linejoin="round"/>
<path d="M3.00098 21.0002L16.074 18.8214C16.2038 18.7998 16.3257 18.7443 16.4273 18.6607C16.5289 18.5771 16.6067 18.4682 16.653 18.345L18.751 12.7502L11.251 5.25024L5.65627 7.34826C5.53304 7.39447 5.42414 7.4723 5.3405 7.57392C5.25687 7.67555 5.20145 7.79739 5.17982 7.92721L3.00098 21.0002Z" stroke="#5018CA" stroke-width="1.5" stroke-linecap="round" stroke-linejoin="round"/>
<path d="M18.751 12.7504L21.2206 10.2807C21.2903 10.2111 21.3455 10.1284 21.3832 10.0374C21.4209 9.94639 21.4403 9.84887 21.4403 9.75037C21.4403 9.65188 21.4209 9.55436 21.3832 9.46336C21.3455 9.37237 21.2903 9.28969 21.2206 9.22004L14.7813 2.7807C14.6407 2.64005 14.4499 2.56104 14.251 2.56104C14.0521 2.56104 13.8613 2.64005 13.7206 2.7807L11.251 5.25038" stroke="#5018CA" stroke-width="1.5" stroke-linecap="round" stroke-linejoin="round"/>
</svg>
