<svg width="24" height="24" viewBox="0 0 24 24" fill="none" xmlns="http://www.w3.org/2000/svg">
<path d="M4.5 3.75L19.5 20.25" stroke="#5018CA" stroke-width="1.5" stroke-linecap="round" stroke-linejoin="round"/>
<path d="M10.7805 10.6587C10.3107 10.7319 9.84861 10.8474 9.39973 11.004C9.27818 11.0474 9.17003 11.1216 9.08591 11.2195C9.0018 11.3174 8.94463 11.4355 8.92002 11.5622L8.36706 14.3285C8.3426 14.4509 8.28801 14.5652 8.20823 14.6611C8.12845 14.757 8.02599 14.8316 7.91015 14.8779L3.4746 16.6521C3.32432 16.7128 3.1584 16.723 3.00183 16.6811C2.84525 16.6393 2.70652 16.5477 2.60652 16.4202C1.93674 15.5541 1.6056 14.4736 1.6751 13.381C1.7446 12.2884 2.20999 11.2586 2.98411 10.4843C4.35362 9.11085 6.01956 8.06933 7.85411 7.4397" stroke="#5018CA" stroke-width="1.5" stroke-linecap="round" stroke-linejoin="round"/>
<path d="M11.2988 6.76903C13.0888 6.66852 14.8797 6.94755 16.5542 7.58783C18.2287 8.22811 19.7489 9.21517 21.0152 10.4843C21.7893 11.2585 22.2547 12.2883 22.3242 13.3809C22.3937 14.4736 22.0625 15.5541 21.3928 16.4201C21.2928 16.5477 21.154 16.6392 20.9974 16.6811C20.8409 16.7229 20.675 16.7127 20.5247 16.652L20.1451 16.5002" stroke="#5018CA" stroke-width="1.5" stroke-linecap="round" stroke-linejoin="round"/>
</svg>
