<svg width="24" height="24" viewBox="0 0 24 24" fill="none" xmlns="http://www.w3.org/2000/svg">
<path d="M4.5 17.25V6.75" stroke="#5018CA" stroke-width="1.5" stroke-linecap="round" stroke-linejoin="round"/>
<path d="M19.5 6.75V17.25" stroke="#5018CA" stroke-width="1.5" stroke-linecap="round" stroke-linejoin="round"/>
<path d="M9 12V13.5" stroke="#5018CA" stroke-width="1.5" stroke-linecap="round" stroke-linejoin="round"/>
<path d="M12 11.25V13.5" stroke="#5018CA" stroke-width="1.5" stroke-linecap="round" stroke-linejoin="round"/>
<path d="M15 10.5V13.5" stroke="#5018CA" stroke-width="1.5" stroke-linecap="round" stroke-linejoin="round"/>
<path d="M20.25 3.75H3.75C3.33579 3.75 3 4.08579 3 4.5V6C3 6.41421 3.33579 6.75 3.75 6.75H20.25C20.6642 6.75 21 6.41421 21 6V4.5C21 4.08579 20.6642 3.75 20.25 3.75Z" stroke="#5018CA" stroke-width="1.5" stroke-linecap="round" stroke-linejoin="round"/>
<path d="M12 17.25V20.25" stroke="#5018CA" stroke-width="1.5" stroke-linecap="round" stroke-linejoin="round"/>
<path d="M12 23.25C12.8284 23.25 13.5 22.5784 13.5 21.75C13.5 20.9216 12.8284 20.25 12 20.25C11.1716 20.25 10.5 20.9216 10.5 21.75C10.5 22.5784 11.1716 23.25 12 23.25Z" stroke="#5018CA" stroke-width="1.5" stroke-linecap="round" stroke-linejoin="round"/>
<path d="M3 17.25H21" stroke="#5018CA" stroke-width="1.5" stroke-linecap="round" stroke-linejoin="round"/>
</svg>
