<svg width="24" height="24" viewBox="0 0 24 24" fill="none" xmlns="http://www.w3.org/2000/svg">
<path d="M17.625 4.5C18.4534 4.5 19.125 3.82843 19.125 3C19.125 2.17157 18.4534 1.5 17.625 1.5C16.7966 1.5 16.125 2.17157 16.125 3C16.125 3.82843 16.7966 4.5 17.625 4.5Z" stroke="#5018CA" stroke-width="1.5" stroke-linecap="round" stroke-linejoin="round"/>
<path d="M15.0966 16.5C14.139 16.9928 13.0775 17.2499 12.0005 17.2499C10.9234 17.25 9.86196 16.9928 8.9043 16.5" stroke="#5018CA" stroke-width="1.5" stroke-linecap="round" stroke-linejoin="round"/>
<path d="M12 6.75L12.75 2.25L16.1423 2.77191" stroke="#5018CA" stroke-width="1.5" stroke-linecap="round" stroke-linejoin="round"/>
<path d="M5.56962 8.4261C7.28605 7.38265 9.53637 6.75 12.0001 6.75C14.4639 6.75 16.7142 7.38265 18.4306 8.4261L18.4305 8.4263C18.6271 8.15609 18.8815 7.93307 19.1751 7.77344C19.4687 7.6138 19.7941 7.52157 20.1278 7.50344C20.4615 7.4853 20.7951 7.54172 21.1042 7.6686C21.4134 7.79547 21.6904 7.98961 21.9152 8.23693C22.1399 8.48424 22.3068 8.77851 22.4036 9.09836C22.5004 9.41821 22.5248 9.75561 22.4749 10.0861C22.4251 10.4165 22.3022 10.7317 22.1153 11.0087C21.9284 11.2858 21.6822 11.5177 21.3945 11.6877L21.3947 11.6876C21.6284 12.2633 21.7491 12.8786 21.7501 13.5C21.7501 17.2279 17.3849 20.25 12.0001 20.25C6.61535 20.25 2.25012 17.2279 2.25012 13.5C2.25115 12.8786 2.37184 12.2633 2.60559 11.6876L2.60578 11.6877C2.31803 11.5177 2.07176 11.2858 1.88484 11.0087C1.69793 10.7317 1.57507 10.4165 1.5252 10.086C1.47532 9.75557 1.49968 9.41816 1.59651 9.09829C1.69333 8.77842 1.86019 8.48414 2.08496 8.23682C2.30973 7.9895 2.58676 7.79534 2.89594 7.66847C3.20512 7.54159 3.53868 7.48518 3.87239 7.50332C4.20609 7.52147 4.53157 7.61372 4.82517 7.77337C5.11877 7.93302 5.37312 8.15606 5.56975 8.4263L5.56962 8.4261Z" stroke="#5018CA" stroke-width="1.5" stroke-linecap="round" stroke-linejoin="round"/>
<path d="M8.25 13.6875C8.97487 13.6875 9.5625 13.0999 9.5625 12.375C9.5625 11.6501 8.97487 11.0625 8.25 11.0625C7.52513 11.0625 6.9375 11.6501 6.9375 12.375C6.9375 13.0999 7.52513 13.6875 8.25 13.6875Z" fill="#5018CA"/>
<path d="M15.75 13.6875C16.4749 13.6875 17.0625 13.0999 17.0625 12.375C17.0625 11.6501 16.4749 11.0625 15.75 11.0625C15.0251 11.0625 14.4375 11.6501 14.4375 12.375C14.4375 13.0999 15.0251 13.6875 15.75 13.6875Z" fill="#5018CA"/>
</svg>
