<svg width="24" height="24" viewBox="0 0 24 24" fill="none" xmlns="http://www.w3.org/2000/svg">
<path d="M1.35615 11.3689L9.71921 5.99265C9.83251 5.91982 9.96333 5.87884 10.0979 5.87402C10.2325 5.86919 10.3659 5.90071 10.4842 5.96525C10.6024 6.02979 10.701 6.12498 10.7698 6.24081C10.8385 6.35664 10.8748 6.48885 10.8748 6.62353V17.376C10.8748 17.5107 10.8385 17.6429 10.7698 17.7588C10.701 17.8746 10.6024 17.9698 10.4842 18.0343C10.3659 18.0989 10.2325 18.1304 10.0979 18.1256C9.96333 18.1207 9.83251 18.0798 9.71921 18.0069L1.35615 12.6307C1.25051 12.5628 1.16361 12.4694 1.10343 12.3592C1.04326 12.2489 1.01172 12.1254 1.01172 11.9998C1.01172 11.8742 1.04326 11.7506 1.10343 11.6404C1.16361 11.5302 1.25051 11.4368 1.35615 11.3689V11.3689Z" stroke="#5018CA" stroke-width="1.5" stroke-linecap="round" stroke-linejoin="round"/>
<path d="M11.8562 11.3689L20.2192 5.99265C20.3325 5.91982 20.4633 5.87884 20.5979 5.87402C20.7325 5.86919 20.8659 5.90071 20.9842 5.96525C21.1024 6.02979 21.201 6.12498 21.2698 6.24081C21.3385 6.35664 21.3748 6.48885 21.3748 6.62353V17.376C21.3748 17.5107 21.3385 17.6429 21.2698 17.7588C21.201 17.8746 21.1024 17.9698 20.9842 18.0343C20.8659 18.0989 20.7325 18.1304 20.5979 18.1256C20.4633 18.1207 20.3325 18.0798 20.2192 18.0069L11.8562 12.6307C11.7505 12.5628 11.6636 12.4694 11.6034 12.3592C11.5433 12.2489 11.5117 12.1254 11.5117 11.9998C11.5117 11.8742 11.5433 11.7506 11.6034 11.6404C11.6636 11.5302 11.7505 11.4368 11.8562 11.3689Z" stroke="#5018CA" stroke-width="1.5" stroke-linecap="round" stroke-linejoin="round"/>
</svg>
