<svg width="24" height="24" viewBox="0 0 24 24" fill="none" xmlns="http://www.w3.org/2000/svg">
<path d="M5.25 4.5C9.02934 4.5 12.6539 6.00133 15.3263 8.67373C17.9987 11.3461 19.5 14.9707 19.5 18.75" stroke="#5018CA" stroke-width="1.5" stroke-linecap="round" stroke-linejoin="round"/>
<path d="M5.25 11.25C6.23491 11.25 7.21018 11.444 8.12013 11.8209C9.03007 12.1978 9.85686 12.7503 10.5533 13.4467C11.2497 14.1431 11.8022 14.9699 12.1791 15.8799C12.556 16.7898 12.75 17.7651 12.75 18.75" stroke="#5018CA" stroke-width="1.5" stroke-linecap="round" stroke-linejoin="round"/>
<path d="M5.25 19.6875C5.76777 19.6875 6.1875 19.2678 6.1875 18.75C6.1875 18.2322 5.76777 17.8125 5.25 17.8125C4.73223 17.8125 4.3125 18.2322 4.3125 18.75C4.3125 19.2678 4.73223 19.6875 5.25 19.6875Z" fill="#5018CA"/>
</svg>
