<svg width="24" height="24" viewBox="0 0 24 24" fill="none" xmlns="http://www.w3.org/2000/svg">
<path d="M2.99902 9V5.25C2.99902 5.05109 3.07804 4.86032 3.21869 4.71967C3.35935 4.57902 3.55011 4.5 3.74902 4.5H20.249C20.4479 4.5 20.6387 4.57902 20.7794 4.71967C20.92 4.86032 20.999 5.05109 20.999 5.25V18.75C20.999 18.9489 20.92 19.1397 20.7794 19.2803C20.6387 19.421 20.4479 19.5 20.249 19.5H13.499" stroke="#5018CA" stroke-width="1.5" stroke-linecap="round" stroke-linejoin="round"/>
<path d="M2.99902 18C3.39685 18 3.77838 18.158 4.05968 18.4393C4.34099 18.7206 4.49902 19.1022 4.49902 19.5" stroke="#5018CA" stroke-width="1.5" stroke-linecap="round" stroke-linejoin="round"/>
<path d="M2.99902 15C4.1925 15 5.33709 15.4741 6.181 16.318C7.02492 17.1619 7.49902 18.3065 7.49902 19.5" stroke="#5018CA" stroke-width="1.5" stroke-linecap="round" stroke-linejoin="round"/>
<path d="M2.99902 12C3.98394 12 4.95921 12.194 5.86915 12.5709C6.77909 12.9478 7.60588 13.5003 8.30232 14.1967C8.99876 14.8931 9.55121 15.7199 9.92812 16.6299C10.305 17.5398 10.499 18.5151 10.499 19.5" stroke="#5018CA" stroke-width="1.5" stroke-linecap="round" stroke-linejoin="round"/>
</svg>
