<svg width="24" height="24" viewBox="0 0 24 24" fill="none" xmlns="http://www.w3.org/2000/svg">
<path d="M13.0053 16.4498L11.2037 21.3398C11.1507 21.4837 11.0548 21.6079 10.9289 21.6957C10.8031 21.7834 10.6534 21.8305 10.5 21.8305C10.3465 21.8305 10.1968 21.7834 10.071 21.6957C9.94514 21.6079 9.84923 21.4837 9.7962 21.3398L7.99462 16.4498C7.9571 16.3479 7.89793 16.2555 7.82119 16.1787C7.74446 16.102 7.65198 16.0428 7.55014 16.0053L2.66015 14.2037C2.5162 14.1507 2.39197 14.0548 2.30423 13.9289C2.21648 13.8031 2.16943 13.6534 2.16943 13.5C2.16943 13.3465 2.21648 13.1968 2.30423 13.071C2.39197 12.9451 2.5162 12.8492 2.66015 12.7962L7.55014 10.9946C7.65198 10.9571 7.74446 10.8979 7.82119 10.8212C7.89793 10.7445 7.9571 10.652 7.99462 10.5501L9.7962 5.66015C9.84923 5.5162 9.94514 5.39197 10.071 5.30423C10.1968 5.21648 10.3465 5.16943 10.5 5.16943C10.6534 5.16943 10.8031 5.21648 10.9289 5.30423C11.0548 5.39197 11.1507 5.5162 11.2037 5.66015L13.0053 10.5501C13.0428 10.652 13.102 10.7445 13.1787 10.8212C13.2555 10.8979 13.3479 10.9571 13.4498 10.9946L18.3398 12.7962C18.4837 12.8492 18.6079 12.9451 18.6957 13.071C18.7834 13.1968 18.8305 13.3465 18.8305 13.5C18.8305 13.6534 18.7834 13.8031 18.6957 13.9289C18.6079 14.0548 18.4837 14.1507 18.3398 14.2037L13.4498 16.0053C13.3479 16.0428 13.2555 16.102 13.1787 16.1787C13.102 16.2555 13.0428 16.3479 13.0053 16.4498V16.4498Z" stroke="#5018CA" stroke-width="1.5" stroke-linecap="round" stroke-linejoin="round"/>
<path d="M16.5 1.5V6" stroke="#5018CA" stroke-width="1.5" stroke-linecap="round" stroke-linejoin="round"/>
<path d="M18.75 3.75H14.25" stroke="#5018CA" stroke-width="1.5" stroke-linecap="round" stroke-linejoin="round"/>
<path d="M21 6.75V9.75" stroke="#5018CA" stroke-width="1.5" stroke-linecap="round" stroke-linejoin="round"/>
<path d="M22.5 8.25H19.5" stroke="#5018CA" stroke-width="1.5" stroke-linecap="round" stroke-linejoin="round"/>
</svg>
