<svg width="24" height="24" viewBox="0 0 24 24" fill="none" xmlns="http://www.w3.org/2000/svg">
<path d="M8.61914 14.25C8.61914 15.4926 10.133 16.5 12.0005 16.5C13.8679 16.5 15.3818 15.4926 15.3818 14.25C15.3818 11.25 8.80699 12.375 8.80699 9.75C8.80699 8.50736 10.133 7.5 12.0005 7.5C13.4011 7.5 14.4971 8.06664 14.9576 8.8742" stroke="#5018CA" stroke-width="1.5" stroke-linecap="round" stroke-linejoin="round"/>
<path d="M19.5 3.75H4.5C4.08579 3.75 3.75 4.08579 3.75 4.5V19.5C3.75 19.9142 4.08579 20.25 4.5 20.25H19.5C19.9142 20.25 20.25 19.9142 20.25 19.5V4.5C20.25 4.08579 19.9142 3.75 19.5 3.75Z" stroke="#5018CA" stroke-width="1.5" stroke-linecap="round" stroke-linejoin="round"/>
</svg>
