<svg width="24" height="24" viewBox="0 0 24 24" fill="none" xmlns="http://www.w3.org/2000/svg">
<path d="M3 6V13.5" stroke="#5018CA" stroke-width="1.5" stroke-linecap="round" stroke-linejoin="round"/>
<path d="M5.08398 20.2499C5.83349 19.0986 6.85857 18.1526 8.06623 17.4978C9.2739 16.843 10.6259 16.5 11.9997 16.5C13.3735 16.5 14.7255 16.843 15.9332 17.4978C17.1409 18.1526 18.166 19.0986 18.9155 20.2499" stroke="#5018CA" stroke-width="1.5" stroke-linecap="round" stroke-linejoin="round"/>
<path d="M21 6L12 9L3 6L12 3L21 6Z" stroke="#5018CA" stroke-width="1.5" stroke-linecap="round" stroke-linejoin="round"/>
<path d="M15.8753 7.70801C16.5623 8.45965 17.0158 9.39484 17.1807 10.3997C17.3456 11.4045 17.2147 12.4356 16.804 13.3674C16.3933 14.2991 15.7205 15.0913 14.8675 15.6475C14.0146 16.2037 13.0183 16.4998 12 16.4998C10.9817 16.4998 9.98544 16.2037 9.13248 15.6475C8.27952 15.0913 7.60671 14.2991 7.196 13.3674C6.78529 12.4356 6.6544 11.4045 6.81929 10.3997C6.98418 9.39484 7.43772 8.45965 8.12467 7.70801" stroke="#5018CA" stroke-width="1.5" stroke-linecap="round" stroke-linejoin="round"/>
</svg>
