<svg width="24" height="24" viewBox="0 0 24 24" fill="none" xmlns="http://www.w3.org/2000/svg">
<path d="M6 12.1875C6.51777 12.1875 6.9375 11.7678 6.9375 11.25C6.9375 10.7322 6.51777 10.3125 6 10.3125C5.48223 10.3125 5.0625 10.7322 5.0625 11.25C5.0625 11.7678 5.48223 12.1875 6 12.1875Z" fill="#5018CA"/>
<path d="M6 18.75C8.07107 18.75 9.75 15.3921 9.75 11.25C9.75 7.10786 8.07107 3.75 6 3.75C3.92893 3.75 2.25 7.10786 2.25 11.25C2.25 15.3921 3.92893 18.75 6 18.75Z" stroke="#5018CA" stroke-width="1.5" stroke-linecap="round" stroke-linejoin="round"/>
<path d="M9.75 11.25V19.5C9.75 19.6989 9.82902 19.8897 9.96967 20.0303C10.1103 20.171 10.3011 20.25 10.5 20.25H21C21.1989 20.25 21.3897 20.171 21.5303 20.0303C21.671 19.8897 21.75 19.6989 21.75 19.5V11.25C21.75 7.10786 20.0711 3.75 18 3.75H6" stroke="#5018CA" stroke-width="1.5" stroke-linecap="round" stroke-linejoin="round"/>
<path d="M9.75 11.25H12" stroke="#5018CA" stroke-width="1.5" stroke-linecap="round" stroke-linejoin="round"/>
<path d="M15 11.25H16.5" stroke="#5018CA" stroke-width="1.5" stroke-linecap="round" stroke-linejoin="round"/>
<path d="M19.5 11.25H21.75" stroke="#5018CA" stroke-width="1.5" stroke-linecap="round" stroke-linejoin="round"/>
</svg>
