<svg width="24" height="24" viewBox="0 0 24 24" fill="none" xmlns="http://www.w3.org/2000/svg">
<path d="M4.125 12H19.875" stroke="#5018CA" stroke-width="1.5" stroke-linecap="round" stroke-linejoin="round"/>
<path d="M4.125 6.75H19.875" stroke="#5018CA" stroke-width="1.5" stroke-linecap="round" stroke-linejoin="round"/>
<path d="M9 19.5L6.75 22.5" stroke="#5018CA" stroke-width="1.5" stroke-linecap="round" stroke-linejoin="round"/>
<path d="M15 19.5L17.25 22.5" stroke="#5018CA" stroke-width="1.5" stroke-linecap="round" stroke-linejoin="round"/>
<path d="M17.625 3H6.375C5.13236 3 4.125 4.00736 4.125 5.25V17.25C4.125 18.4926 5.13236 19.5 6.375 19.5H17.625C18.8676 19.5 19.875 18.4926 19.875 17.25V5.25C19.875 4.00736 18.8676 3 17.625 3Z" stroke="#5018CA" stroke-width="1.5" stroke-linecap="round" stroke-linejoin="round"/>
<path d="M12 6.75V12" stroke="#5018CA" stroke-width="1.5" stroke-linecap="round" stroke-linejoin="round"/>
<path d="M16.125 17.0625C16.6428 17.0625 17.0625 16.6428 17.0625 16.125C17.0625 15.6072 16.6428 15.1875 16.125 15.1875C15.6072 15.1875 15.1875 15.6072 15.1875 16.125C15.1875 16.6428 15.6072 17.0625 16.125 17.0625Z" fill="#5018CA"/>
<path d="M7.875 17.0625C8.39277 17.0625 8.8125 16.6428 8.8125 16.125C8.8125 15.6072 8.39277 15.1875 7.875 15.1875C7.35723 15.1875 6.9375 15.6072 6.9375 16.125C6.9375 16.6428 7.35723 17.0625 7.875 17.0625Z" fill="#5018CA"/>
</svg>
