<svg width="24" height="24" viewBox="0 0 24 24" fill="none" xmlns="http://www.w3.org/2000/svg">
<path d="M6.57285 3H17.4272C17.5917 3 17.7516 3.0541 17.8824 3.15397C18.0131 3.25384 18.1074 3.39393 18.1507 3.55266L20.25 11.25L18.1507 18.9473C18.1074 19.1061 18.0131 19.2462 17.8824 19.346C17.7516 19.4459 17.5917 19.5 17.4272 19.5H6.57285C6.40832 19.5 6.24835 19.4459 6.1176 19.346C5.98685 19.2462 5.89256 19.1061 5.84927 18.9473L3.75 11.25L5.84927 3.55266C5.89256 3.39393 5.98685 3.25384 6.1176 3.15397C6.24835 3.0541 6.40832 3 6.57285 3Z" stroke="#5018CA" stroke-width="1.5" stroke-linecap="round" stroke-linejoin="round"/>
<path d="M12 19.5V12.75" stroke="#5018CA" stroke-width="1.5" stroke-linecap="round" stroke-linejoin="round"/>
<path d="M3.75 11.25L12 12.75L20.25 11.25" stroke="#5018CA" stroke-width="1.5" stroke-linecap="round" stroke-linejoin="round"/>
<path d="M9 8.25H15" stroke="#5018CA" stroke-width="1.5" stroke-linecap="round" stroke-linejoin="round"/>
<path d="M9 19.5L6.75 22.5" stroke="#5018CA" stroke-width="1.5" stroke-linecap="round" stroke-linejoin="round"/>
<path d="M15 19.5L17.25 22.5" stroke="#5018CA" stroke-width="1.5" stroke-linecap="round" stroke-linejoin="round"/>
</svg>
