<svg width="24" height="24" viewBox="0 0 24 24" fill="none" xmlns="http://www.w3.org/2000/svg">
<path d="M18 11.25H20.5365C20.6758 11.25 20.8123 11.2112 20.9308 11.138C21.0493 11.0648 21.145 10.96 21.2073 10.8354L22.9327 7.38459C23.0184 7.21312 23.0353 7.01532 22.9797 6.83184C22.9242 6.64835 22.8004 6.49311 22.634 6.39799L18 3.75" stroke="#5018CA" stroke-width="1.5" stroke-linecap="round" stroke-linejoin="round"/>
<path d="M6.00017 11.25H3.46369C3.32441 11.25 3.18788 11.2112 3.0694 11.138C2.95091 11.0648 2.85516 10.96 2.79287 10.8354L1.06746 7.38459C0.981726 7.21312 0.964908 7.01532 1.02046 6.83184C1.07602 6.64835 1.19973 6.49311 1.36618 6.39799L6.00017 3.75" stroke="#5018CA" stroke-width="1.5" stroke-linecap="round" stroke-linejoin="round"/>
<path d="M15 3.75C15 4.54565 14.6839 5.30871 14.1213 5.87132C13.5587 6.43393 12.7956 6.75 12 6.75C11.2044 6.75 10.4413 6.43393 9.87868 5.87132C9.31607 5.30871 9 4.54565 9 3.75H6V19.5C6 19.6989 6.07902 19.8897 6.21967 20.0303C6.36032 20.171 6.55109 20.25 6.75 20.25H17.25C17.4489 20.25 17.6397 20.171 17.7803 20.0303C17.921 19.8897 18 19.6989 18 19.5V3.75H15Z" stroke="#5018CA" stroke-width="1.5" stroke-linecap="round" stroke-linejoin="round"/>
</svg>
